<?xml version="1.0" standalone="no"?>
<!DOCTYPE svg PUBLIC "-//W3C//DTD SVG 20010904//EN"
 "http://www.w3.org/TR/2001/REC-SVG-20010904/DTD/svg10.dtd">
<svg version="1.0" xmlns="http://www.w3.org/2000/svg"
 width="1094.000000pt" height="1094.000000pt" viewBox="0 0 1094.000000 1094.000000"
 preserveAspectRatio="xMidYMid meet">
<metadata>
Created by potrace 1.14, written by Peter Selinger 2001-2017
</metadata>
<g transform="translate(0.000000,1094.000000) scale(0.100000,-0.100000)"
fill="#000000" stroke="none">
<path d="M5336 10924 c-52 -13 -116 -43 -127 -58 -4 -5 -11 -6 -17 -2 -6 3
-13 2 -17 -4 -3 -5 -15 -10 -26 -10 -20 0 -21 -31 -7 -260 3 -43 -1 -48 -39
-44 -21 2 -39 7 -41 12 -10 31 -30 43 -75 44 -56 1 -73 -11 -89 -63 -14 -49 4
-115 36 -126 61 -21 126 -2 126 39 0 15 8 18 44 18 l44 0 1 -124 c2 -123 2
-125 -21 -128 -42 -6 -66 4 -77 31 -10 24 -17 26 -61 26 -63 0 -90 -25 -97
-86 -3 -33 1 -52 16 -76 19 -31 29 -35 81 -35 44 0 51 3 62 30 7 15 13 28 14
30 5 8 62 10 73 2 9 -5 14 -43 17 -129 l3 -121 -47 0 c-44 0 -49 2 -59 30 -10
27 -15 30 -56 30 -60 0 -75 -7 -92 -41 -19 -36 -19 -82 0 -119 17 -33 43 -43
101 -38 34 3 40 7 48 34 9 29 12 31 58 30 l48 0 0 -65 c0 -52 5 -70 23 -95 31
-41 44 -82 43 -133 -1 -39 1 -43 24 -44 105 -3 433 1 439 6 3 4 7 25 9 48 4
65 5 67 15 67 6 0 7 3 4 7 -4 3 5 22 20 42 23 30 28 46 28 101 l1 65 52 1 c50
1 53 -1 68 -33 15 -30 20 -33 59 -33 57 0 73 7 90 41 26 48 17 109 -21 146 -7
7 -35 13 -62 13 -46 0 -51 -2 -64 -30 -12 -28 -17 -30 -66 -30 l-53 0 3 127 3
126 48 2 c46 1 49 -1 62 -32 12 -27 20 -33 47 -34 86 -3 110 16 115 93 3 43 0
58 -17 78 -38 43 -150 32 -150 -15 0 -14 -55 -24 -86 -15 -16 4 -19 13 -18 60
1 30 2 85 3 123 l1 67 48 0 c45 0 49 -2 60 -33 12 -32 14 -33 63 -31 81 3 116
55 92 136 -16 57 -35 65 -128 59 -8 -1 -21 -13 -29 -28 -12 -24 -20 -27 -59
-28 l-46 0 4 40 c2 22 5 89 7 149 3 102 2 109 -17 112 -19 3 -42 12 -105 44
-96 49 -225 62 -334 34z"/>
<path d="M5229 9412 c0 -26 -2 -211 -4 -412 -2 -201 -4 -365 -4 -365 -1 0 -9
-894 -11 -1193 -1 -100 1 -186 4 -190 7 -11 470 -12 487 -2 9 6 12 46 11 152
-1 78 -3 461 -6 850 -3 390 -8 712 -11 718 -3 5 -1 10 5 10 6 0 8 5 4 11 -3 6
-7 113 -8 238 l-2 226 -232 2 -232 2 -1 -47z"/>
<path d="M5869 8162 c-8 -50 -5 -55 94 -114 55 -32 103 -58 108 -58 5 0 9 -4
9 -10 0 -5 5 -10 10 -10 6 0 51 -24 101 -52 50 -29 107 -62 127 -74 20 -12 66
-38 102 -59 36 -20 85 -49 110 -63 25 -14 62 -36 82 -49 21 -12 42 -23 48 -23
5 0 10 -5 10 -11 0 -5 4 -8 9 -5 5 3 14 -1 21 -9 7 -8 19 -15 26 -15 8 0 14
-4 14 -10 0 -5 4 -10 10 -10 5 0 139 -75 297 -166 266 -154 292 -167 341 -169
34 -1 51 2 49 9 -2 6 -8 11 -13 11 -5 0 -52 26 -104 56 -175 104 -275 162
-330 192 -51 28 -185 106 -220 127 -8 6 -33 19 -55 31 -22 12 -42 24 -45 28
-3 3 -35 22 -72 41 -37 19 -68 38 -68 43 0 4 -4 7 -10 7 -5 0 -92 48 -192 106
-101 58 -190 109 -198 114 -8 4 -55 32 -105 61 -143 83 -155 89 -156 81z"/>
<path d="M5010 8134 c-25 -14 -63 -36 -85 -49 -60 -33 -89 -50 -340 -195 -126
-74 -241 -140 -255 -147 -14 -8 -38 -23 -55 -33 -16 -11 -37 -23 -45 -27 -22
-10 -423 -241 -435 -250 -6 -4 -28 -18 -50 -29 -22 -12 -60 -34 -85 -48 -25
-14 -71 -41 -102 -59 -32 -17 -58 -35 -58 -38 0 -3 24 -5 53 -4 39 2 67 11
112 37 140 80 393 228 425 247 19 11 42 24 50 28 8 4 78 44 155 88 77 45 160
93 185 107 25 14 126 72 225 130 99 58 219 127 267 154 83 46 87 51 86 81 -1
18 -2 33 -2 33 -1 0 -21 -12 -46 -26z"/>
<path d="M5869 7893 c0 -5 -2 -16 -4 -26 -5 -24 13 -39 100 -87 41 -23 75 -45
75 -49 0 -5 -30 -9 -67 -9 -103 0 -110 -1 -110 -17 0 -16 8 -17 179 -17 76 1
92 -3 123 -23 19 -14 35 -21 35 -17 0 4 4 2 8 -3 4 -6 24 -19 45 -30 21 -11
50 -30 65 -42 24 -19 24 -21 6 -17 -21 6 -42 -11 -30 -24 4 -3 33 -7 64 -8 51
-2 69 -9 150 -58 51 -31 97 -56 103 -56 6 0 8 -4 5 -8 -3 -5 -161 -8 -351 -8
-191 1 -352 -2 -357 -5 -6 -4 -7 -12 -4 -18 5 -8 122 -11 398 -11 l390 0 96
-55 c54 -30 104 -59 112 -64 10 -7 -16 -10 -85 -11 -99 -1 -100 -1 -70 -17 40
-22 227 -25 268 -5 32 16 30 20 -33 54 -25 14 -164 94 -309 177 -144 84 -284
164 -310 178 -25 14 -53 32 -62 39 -8 8 -18 14 -22 14 -4 0 -39 19 -79 43 -40
24 -80 46 -88 50 -8 4 -22 11 -30 17 -53 34 -152 90 -160 90 -6 0 -10 5 -10
11 0 5 -4 7 -10 4 -5 -3 -10 -1 -10 4 0 12 -20 15 -21 4z"/>
<path d="M5030 7876 c-14 -7 -45 -24 -70 -37 -25 -13 -49 -27 -55 -32 -28 -23
-194 -114 -199 -109 -3 3 -6 0 -6 -6 0 -7 -7 -12 -15 -12 -8 0 -15 -4 -15 -8
0 -5 -16 -14 -35 -22 -19 -8 -35 -17 -35 -21 0 -4 -8 -9 -17 -12 -20 -7 -110
-58 -285 -162 -9 -5 -39 -22 -65 -36 -26 -15 -75 -43 -108 -63 -33 -20 -75
-43 -94 -52 -19 -8 -40 -22 -48 -30 -8 -8 -19 -14 -24 -14 -6 0 -7 -5 -4 -10
4 -6 10 -8 15 -5 5 3 26 6 47 6 26 1 68 18 135 55 96 54 97 54 178 53 85 -1
96 2 87 23 -3 9 -22 13 -56 12 -28 0 -51 1 -51 2 0 2 17 13 38 24 20 11 44 24
52 30 55 35 263 150 270 150 6 0 10 5 10 10 0 6 4 10 10 10 5 0 33 14 62 32
38 23 70 34 112 38 61 5 84 23 44 33 -20 6 -11 14 62 55 77 44 85 52 86 80 1
18 1 32 0 32 -1 0 -12 -6 -26 -14z"/>
<path d="M4622 7541 c3 -14 28 -16 211 -16 184 -1 210 1 218 16 8 15 -10 16
-212 16 -197 0 -220 -1 -217 -16z"/>
<path d="M4738 7389 c-6 -4 -7 -12 -4 -18 5 -7 59 -11 162 -11 130 0 154 2
154 15 0 8 -3 15 -7 16 -35 5 -297 3 -305 -2z"/>
<path d="M2763 6866 c-126 -31 -264 -130 -312 -225 -23 -45 -60 -156 -65 -197
-2 -16 -7 -40 -10 -54 -19 -72 -30 -434 -16 -515 23 -136 40 -187 88 -262 42
-66 92 -108 167 -144 116 -55 280 -67 381 -29 14 6 29 8 34 5 8 -5 78 -18 95
-17 104 3 119 23 122 162 6 424 6 441 -8 455 -20 20 -109 31 -224 28 -143 -3
-178 -11 -191 -41 -11 -26 -12 -175 -1 -189 13 -18 42 -16 80 3 49 26 93 29
99 7 7 -29 1 -136 -10 -163 -5 -14 -11 -29 -12 -35 -4 -16 -49 -55 -66 -56 -7
-1 -24 -2 -36 -3 -60 -5 -138 47 -168 112 -52 113 -68 209 -65 391 3 141 10
198 40 317 38 148 108 264 170 280 40 10 114 -9 116 -30 0 -6 2 -31 3 -56 6
-114 90 -174 181 -130 60 29 88 73 91 139 4 108 -61 186 -194 233 -70 25 -215
31 -289 14z"/>
<path d="M4647 6863 c-4 -3 -28 -8 -54 -10 -27 -2 -64 -5 -83 -7 -19 -3 -41
-5 -48 -5 -7 -1 -24 -12 -37 -25 -31 -31 -24 -57 21 -81 34 -18 54 -43 61 -75
15 -70 21 -683 8 -815 -4 -44 -9 -100 -10 -125 -2 -25 -4 -45 -5 -45 -1 0 -3
-7 -5 -16 -6 -35 -17 -59 -25 -59 -4 0 -22 -13 -38 -29 -58 -54 -19 -94 103
-106 79 -8 229 -9 290 -2 22 3 45 5 51 6 6 1 16 12 22 25 10 22 6 30 -27 73
-32 40 -40 59 -46 110 -19 175 -20 741 -1 951 4 44 14 74 32 102 15 22 30 40
34 40 4 0 10 9 13 21 6 21 -22 58 -45 60 -7 0 -52 2 -99 3 -47 2 -90 6 -96 9
-6 4 -13 4 -16 0z"/>
<path d="M6325 6863 c-66 -7 -102 -23 -114 -51 -11 -29 -38 -140 -56 -232 -3
-14 -7 -36 -10 -50 -4 -14 -8 -34 -10 -45 -2 -11 -6 -30 -9 -42 -3 -13 -8 -31
-10 -40 -17 -75 -81 -304 -151 -543 -58 -200 -95 -261 -172 -284 -55 -17 -31
-88 34 -101 53 -11 136 -17 216 -16 88 1 95 1 110 0 19 -1 60 10 84 22 26 14
25 34 -1 75 -11 15 -19 39 -20 53 -1 52 32 212 56 273 20 52 151 80 226 49 34
-14 48 -47 73 -171 5 -30 13 -66 16 -80 9 -41 6 -102 -5 -109 -15 -9 -29 -52
-25 -73 4 -18 28 -28 78 -35 41 -5 253 -4 290 2 17 3 43 7 58 9 52 8 80 51 54
84 -6 8 -29 22 -51 33 -40 19 -84 70 -91 106 -2 10 -4 19 -5 21 -2 1 -3 5 -4
10 -1 4 -9 30 -18 57 -9 28 -28 91 -43 140 -15 50 -33 113 -41 140 -8 28 -16
57 -18 65 -2 8 -6 22 -9 30 -3 8 -9 29 -13 45 -4 17 -8 35 -10 40 -3 9 -8 30
-18 73 -19 78 -68 288 -77 332 -6 30 -17 74 -24 97 -7 23 -11 43 -9 46 3 2 -8
18 -24 35 -25 27 -34 30 -85 30 -32 -1 -60 1 -63 5 -3 3 -18 2 -34 -3 -15 -4
-32 -5 -36 -1 -5 4 -22 5 -39 4z m94 -435 c6 -29 13 -66 17 -83 3 -16 7 -39 8
-51 1 -11 5 -24 8 -30 3 -5 4 -17 3 -26 -2 -10 0 -18 3 -18 4 0 8 -17 10 -38
l2 -39 -67 2 c-38 1 -67 6 -66 11 0 5 11 56 23 114 23 108 25 122 36 178 3 17
8 32 9 32 2 0 8 -24 14 -52z"/>
<path d="M3428 6854 c-2 -1 -24 -4 -49 -7 -26 -3 -60 -11 -75 -18 -49 -24 -42
-79 13 -100 28 -11 52 -47 59 -90 2 -19 7 -169 9 -334 5 -301 12 -494 19 -550
9 -71 67 -183 116 -223 31 -25 103 -65 143 -80 67 -23 95 -26 213 -27 107 0
112 1 185 37 125 62 196 144 219 254 9 40 14 174 16 409 2 345 8 491 20 550 4
17 19 46 34 65 45 57 44 95 -2 106 -46 11 -270 12 -347 1 -119 -16 -146 -62
-67 -116 51 -35 57 -47 62 -121 2 -30 7 -84 10 -120 8 -87 9 -593 1 -650 -10
-73 -17 -101 -33 -132 -66 -128 -197 -136 -260 -16 -37 71 -42 136 -38 500 4
406 11 528 33 528 4 0 14 11 21 25 7 13 17 22 22 19 4 -3 8 -2 9 3 0 4 2 18 5
30 8 44 -31 55 -191 58 -80 1 -146 1 -147 -1z"/>
<path d="M4952 6847 c-12 -6 -23 -17 -23 -26 -5 -44 -3 -221 1 -221 3 0 6 -18
7 -41 1 -45 26 -81 51 -72 10 3 35 26 57 51 l41 45 116 5 c75 3 118 1 122 -6
16 -26 9 -729 -9 -843 -2 -13 -6 -45 -10 -71 -5 -36 -13 -53 -36 -73 -17 -14
-34 -25 -39 -25 -11 0 -20 -39 -13 -56 14 -38 101 -55 283 -56 209 -2 251 26
176 113 -20 24 -36 56 -41 82 -9 50 -16 857 -8 906 l6 34 119 -5 c130 -6 127
-4 178 -77 18 -27 66 -28 79 -3 12 23 22 118 24 230 1 117 -1 118 -156 113
-168 -5 -680 -4 -802 1 -56 3 -110 1 -123 -5z"/>
<path d="M7288 6855 c-2 -2 -40 -5 -85 -8 -82 -6 -125 -23 -137 -53 -9 -23 3
-42 41 -65 51 -32 63 -57 68 -142 2 -42 6 -81 9 -86 4 -5 2 -12 -3 -16 -6 -3
-7 -16 -3 -28 9 -27 8 -492 -1 -597 -14 -155 -17 -186 -21 -206 -5 -25 -28
-64 -37 -64 -3 0 -18 -11 -32 -24 -17 -16 -24 -30 -20 -45 9 -35 36 -48 113
-55 14 -1 30 -4 35 -7 27 -14 310 0 337 17 18 11 6 53 -28 96 -39 50 -41 65
-49 255 -3 80 0 103 10 107 8 3 17 1 20 -4 3 -5 13 -8 23 -7 32 2 137 -53 168
-89 30 -35 37 -46 62 -104 18 -43 28 -94 38 -204 15 -171 46 -267 108 -334 56
-61 113 -85 201 -84 81 0 101 4 117 20 7 7 17 12 23 12 18 0 57 67 62 108 14
106 -86 176 -196 138 l-41 -14 -1 37 c-5 278 -53 455 -149 551 l-45 45 56 55
c139 139 173 354 84 535 -78 159 -195 227 -435 251 -49 5 -288 12 -292 9z
m326 -179 c52 -22 100 -70 131 -133 27 -52 29 -68 29 -153 0 -78 -4 -102 -22
-138 -54 -102 -150 -153 -271 -143 -11 1 -12 43 -7 249 5 210 8 279 15 325 2
12 90 8 125 -7z"/>
<path d="M8452 6647 c11 -33 34 -57 78 -80 30 -17 60 -33 270 -154 91 -53 176
-103 190 -111 14 -9 28 -17 32 -17 23 -1 28 -35 30 -199 l3 -179 28 -3 27 -3
-2 202 -3 201 -30 16 c-16 8 -31 18 -33 23 -2 4 -8 7 -13 7 -5 0 -57 29 -116
64 -180 105 -437 252 -455 259 -15 5 -15 2 -6 -26z"/>
<path d="M8487 6382 c-2 -4 -3 -18 -3 -31 1 -20 14 -33 63 -61 34 -19 64 -38
67 -40 3 -3 -28 -5 -67 -5 -59 0 -72 -3 -75 -17 -3 -15 9 -16 105 -16 107 0
108 0 175 -38 56 -32 68 -43 68 -65 l0 -26 -107 -1 c-60 0 -114 -1 -120 -1 -7
-1 -13 -8 -13 -16 0 -16 10 -17 164 -16 43 0 76 -2 73 -6 -4 -3 -2 -14 3 -24
6 -10 7 -20 2 -23 -4 -2 -6 -24 -4 -49 4 -41 6 -44 32 -45 l28 -1 -2 65 c-1
35 2 64 7 64 6 0 6 5 1 13 -5 6 -9 38 -9 69 l1 57 -120 68 c-65 37 -137 79
-160 91 -22 13 -55 32 -73 42 -18 11 -34 16 -36 12z"/>
<path d="M1878 6328 l-48 -30 0 -198 0 -199 28 2 27 2 2 180 c1 162 3 180 20
194 15 13 34 83 21 80 -2 0 -24 -14 -50 -31z"/>
<path d="M8523 5907 c-3 -5 -3 -10 0 -13 9 -9 47 -13 51 -5 5 8 57 13 134 14
23 0 42 4 42 9 0 10 -220 6 -227 -5z"/>
<path d="M8766 5911 c-3 -5 1 -11 9 -15 8 -3 15 -1 15 5 0 6 5 7 10 4 6 -3 10
-1 10 4 0 13 -37 15 -44 2z"/>
<path d="M2070 5693 c-14 -3 -37 -14 -53 -25 l-28 -20 -16 22 c-14 20 -22 22
-103 18 -81 -3 -91 -6 -126 -33 -20 -17 -45 -46 -55 -65 -11 -19 -19 -33 -20
-30 0 3 -2 14 -4 25 -2 10 1 26 8 33 17 21 18 49 3 61 -9 7 -44 11 -92 9 -60
-2 -79 -7 -88 -20 -8 -13 -8 -23 2 -38 18 -29 15 -49 -3 -22 -9 12 -37 34 -63
49 -45 27 -54 28 -201 31 -120 3 -155 1 -162 -9 -6 -11 -11 -11 -21 -1 -15 15
-164 17 -173 2 -5 -8 -11 -8 -20 0 -8 6 -45 10 -91 8 -60 -2 -79 -7 -88 -20
-8 -13 -8 -23 2 -38 18 -29 18 -436 1 -485 -11 -30 -11 -38 1 -50 16 -15 47
-16 313 -15 133 0 138 1 148 23 7 16 7 29 -3 48 -20 39 -15 159 12 258 5 19 7
38 4 43 -3 4 -1 8 3 8 5 0 10 13 11 29 1 17 6 40 11 53 7 16 10 -10 11 -92 2
-200 -1 -274 -13 -308 -17 -50 4 -65 88 -63 77 1 107 13 98 38 -12 30 12 5 32
-34 39 -76 100 -112 165 -98 29 6 63 42 59 61 -4 24 3 34 26 34 36 0 50 32 29
71 -12 25 -13 34 -3 43 9 8 10 8 5 -1 -4 -8 11 -30 38 -57 35 -35 54 -46 90
-51 61 -9 108 0 138 28 l25 23 33 -27 c115 -96 288 10 267 163 -6 41 -38 110
-64 136 -13 13 -13 17 -2 21 39 13 61 78 34 101 -10 8 -11 20 -4 45 17 61 18
93 3 106 -15 13 -123 21 -164 12z m-1184 -78 c9 -8 12 -15 7 -15 -4 0 -3 -4 3
-8 7 -4 15 -23 18 -42 8 -50 12 -66 34 -152 18 -69 18 -76 3 -75 -35 2 -70
-14 -77 -36 -7 -20 -9 -32 -13 -72 0 -8 -5 -15 -9 -15 -12 0 -10 403 3 417 13
16 14 16 31 -2z m176 -7 c-7 -7 -12 -8 -12 -2 0 14 12 26 19 19 2 -3 -1 -11
-7 -17z m326 -102 c11 -40 -1 -94 -26 -118 -18 -19 -19 -17 -19 82 -1 99 -1
101 18 84 11 -10 23 -31 27 -48z m566 28 c3 -8 2 -12 -4 -9 -6 3 -10 10 -10
16 0 14 7 11 14 -7z m-98 -106 c32 -8 81 10 87 32 6 22 27 27 27 6 0 -7 26
-42 58 -77 31 -35 66 -75 77 -89 19 -24 19 -24 -10 2 -17 14 -39 28 -50 29
-24 3 -68 -10 -76 -23 -4 -7 -14 -6 -27 1 -31 17 -60 13 -85 -10 -26 -24 -28
-35 -10 -71 16 -34 -1 -47 -21 -16 -8 13 -18 37 -21 53 -9 41 -14 168 -7 200
l5 26 17 -29 c10 -16 26 -31 36 -34z m-344 -168 c0 -39 -2 -73 -5 -77 -3 -3
-14 13 -24 36 -10 22 -21 41 -25 41 -5 0 -8 4 -8 9 0 10 53 70 58 66 2 -2 4
-35 4 -75z m603 -31 c-5 -38 -13 -48 -25 -30 -5 9 -3 23 6 36 8 12 11 25 7 30
-5 4 -3 5 4 1 6 -3 10 -20 8 -37z"/>
<path d="M10044 5681 c-22 -10 -51 -31 -63 -47 l-23 -29 -17 21 c-34 42 -80
58 -186 62 -91 3 -101 2 -112 -16 -9 -15 -8 -25 3 -47 24 -46 16 -48 -26 -4
-22 23 -40 39 -40 35 0 -3 -12 1 -27 11 -19 13 -53 18 -124 21 -88 4 -99 2
-110 -15 -11 -19 -12 -19 -47 -1 -94 47 -214 -8 -229 -106 -7 -46 -13 -45 -13
2 0 23 6 51 12 62 10 15 10 25 2 38 -10 15 -35 17 -240 20 -142 1 -240 -2
-260 -8 -48 -16 -100 -75 -126 -144 -19 -50 -23 -80 -23 -166 0 -99 2 -110 32
-170 21 -43 45 -73 68 -89 47 -31 129 -40 172 -17 27 14 32 14 43 1 12 -15 53
-17 265 -15 66 1 83 18 67 63 -12 32 -17 95 -7 86 4 -4 10 -29 14 -59 1 -3 11
-17 24 -31 51 -59 132 -75 200 -39 29 16 37 17 37 6 0 -20 23 -26 100 -26 49
0 73 4 84 16 9 8 14 20 11 25 -4 5 -4 9 -2 9 2 0 20 -26 40 -57 20 -32 46 -64
59 -72 64 -39 157 -11 153 46 -2 30 -1 30 52 32 66 2 90 11 125 46 l27 27 25
-29 c65 -77 208 -60 262 32 28 46 25 138 -5 198 -14 26 -28 47 -33 47 -16 0
-8 23 17 46 28 26 32 51 11 79 -12 16 -12 26 0 66 16 53 7 93 -23 101 -49 12
-130 7 -169 -11z m-1169 -187 c0 -75 -4 -109 -12 -111 -9 -3 -12 25 -12 108 0
62 2 116 6 122 13 21 19 -18 18 -119z m-151 -56 c0 -110 -3 -132 -15 -129 -8
2 -31 4 -52 4 -57 -1 -84 -46 -55 -93 13 -20 6 -36 -11 -25 -28 17 -49 159
-39 268 2 22 5 22 31 -8 31 -35 70 -39 101 -10 26 24 35 68 16 80 -6 4 -5 15
2 30 6 13 14 23 17 21 3 -2 6 -64 5 -138z m805 61 c9 -42 -2 -90 -27 -112 -17
-16 -18 -13 -19 85 -1 101 -1 101 18 81 11 -11 24 -35 28 -54z m309 -107 c1
-108 -3 -154 -13 -172 -12 -22 -14 -3 -14 165 0 161 2 187 13 172 10 -12 14
-58 14 -165z m-632 -6 c-1 -90 -5 -168 -9 -172 -4 -4 -7 72 -7 170 0 97 4 175
8 172 5 -3 8 -79 8 -170z m-169 62 c-3 -8 -6 -5 -6 6 -1 11 2 17 5 13 3 -3 4
-12 1 -19z m1073 -160 c0 -6 -9 1 -21 16 -16 20 -29 26 -60 26 l-39 0 0 48 1
47 59 -63 c33 -34 60 -68 60 -74z m-452 -28 c-2 -85 -9 -111 -21 -72 -3 9 -16
34 -28 54 l-22 37 34 34 c19 20 35 36 36 36 1 1 1 -39 1 -89z m-782 -45 c0
-35 -5 -56 -13 -59 -10 -4 -13 8 -13 48 0 50 5 66 20 66 3 0 6 -25 6 -55z
m1239 8 c-8 -34 -11 -37 -24 -29 -7 5 -7 15 1 31 15 34 32 32 23 -2z"/>
<path d="M4649 5235 c-3 -2 -17 -6 -32 -9 -42 -7 -115 -45 -154 -79 -34 -30
-80 -100 -88 -134 -35 -145 -38 -168 -39 -323 0 -91 2 -184 6 -207 9 -55 59
-161 90 -194 68 -72 168 -109 288 -105 176 5 296 122 326 316 3 19 8 49 11 65
3 17 6 82 6 145 1 209 -22 322 -80 399 -36 47 -46 55 -121 92 -49 24 -81 32
-137 35 -40 2 -74 1 -76 -1z m98 -167 c13 -12 23 -27 23 -35 0 -7 4 -13 8 -13
10 0 39 -102 48 -170 8 -61 8 -192 0 -256 -10 -88 -20 -121 -49 -178 -92 -175
-212 -43 -221 242 -1 23 1 42 4 42 3 0 5 18 4 40 -3 122 64 311 121 339 30 14
36 13 62 -11z"/>
<path d="M6692 5210 c-28 -9 -58 -23 -67 -30 -8 -7 -15 -9 -15 -6 0 4 -18 -10
-39 -30 -42 -39 -91 -104 -95 -126 -1 -7 -4 -17 -7 -23 -4 -5 -6 -25 -5 -43 0
-17 -2 -32 -6 -32 -4 0 -4 -10 1 -22 4 -13 6 -29 4 -35 -3 -7 0 -13 7 -13 6 0
8 -4 5 -10 -9 -15 30 -84 74 -128 22 -22 88 -73 146 -112 108 -74 177 -141
200 -196 46 -111 28 -248 -43 -321 -42 -44 -80 -72 -108 -78 -11 -2 -32 -8
-49 -13 -16 -5 -60 -8 -97 -6 -110 4 -205 45 -253 108 -32 42 -32 68 1 92 15
10 34 36 44 57 15 32 16 45 6 78 -7 22 -20 48 -29 59 -22 27 -21 32 6 30 36
-3 45 -1 61 16 13 12 15 34 12 112 -5 110 -15 147 -45 155 -16 4 -29 -4 -49
-29 -29 -35 -52 -44 -130 -48 -42 -3 -70 13 -58 33 4 5 3 12 -2 15 -4 2 -7 17
-6 33 1 15 3 33 3 40 2 22 68 -1 99 -34 16 -18 28 -22 45 -17 12 3 24 8 25 9
20 18 22 217 3 253 -16 29 -52 28 -81 -3 -17 -18 -32 -24 -59 -22 -31 2 -36 5
-37 27 -1 50 8 56 93 53 76 -2 79 -3 106 -38 31 -38 57 -44 78 -19 15 18 17
31 22 146 3 59 1 93 -8 104 -11 15 -38 17 -226 18 -234 1 -338 -7 -350 -26 -6
-10 -11 -8 -22 6 -12 16 -26 18 -113 16 -139 -4 -460 -4 -514 -1 -113 7 -146
2 -157 -22 -15 -32 -6 -218 12 -246 13 -22 53 -11 78 20 18 24 33 32 60 33 20
1 39 5 43 9 4 3 15 2 25 -4 12 -6 19 -6 19 0 0 5 9 7 20 4 22 -6 20 13 23
-303 0 -109 -9 -282 -19 -338 -6 -32 -20 -49 -45 -57 -15 -5 -19 -14 -15 -41
2 -19 5 -37 8 -39 22 -22 291 -32 334 -13 31 14 31 42 0 87 -18 26 -27 56 -32
106 -7 72 -9 583 -2 590 5 5 73 7 121 3 29 -3 44 -11 63 -36 30 -37 68 -43 84
-12 6 12 12 52 13 90 1 43 6 70 13 70 22 0 45 -39 50 -86 3 -27 7 -62 9 -79 6
-42 6 -221 0 -275 -3 -25 -7 -63 -9 -85 -3 -29 -13 -47 -33 -65 -43 -36 -47
-57 -18 -86 26 -26 22 -26 180 -28 62 -1 111 -6 111 -11 2 -14 -18 -55 -26
-55 -4 0 -7 -6 -7 -12 0 -7 -5 -33 -11 -57 -10 -42 -9 -109 2 -158 25 -113
169 -242 319 -284 73 -21 80 -22 182 -23 116 -1 162 5 234 33 209 79 339 271
326 484 -10 179 -91 289 -325 445 -134 90 -157 121 -139 187 15 52 68 103 106
100 39 -3 38 -2 53 -32 20 -44 23 -100 6 -125 -22 -31 -20 -65 3 -78 25 -13
161 -13 196 0 30 11 55 63 48 100 -33 185 -85 257 -215 295 -68 19 -146 18
-216 -5z"/>
<path d="M3572 5209 c-88 -11 -121 -63 -62 -97 31 -17 48 -54 50 -107 4 -94 2
-524 -3 -545 -3 -14 -6 -44 -6 -68 -1 -35 -7 -50 -36 -79 -19 -20 -35 -42 -35
-49 0 -19 28 -43 58 -51 43 -12 289 -10 302 3 18 18 20 52 4 65 -40 33 -47 69
-52 266 -2 106 -2 193 1 193 4 0 152 -296 192 -383 16 -38 16 -39 -4 -61 -27
-29 -18 -61 22 -78 44 -18 298 -18 320 0 16 13 16 59 1 71 -43 31 -49 79 -49
411 1 356 7 404 59 441 14 11 -9 62 -30 66 -32 7 -217 6 -259 -1 -82 -14 -109
-63 -53 -95 15 -9 32 -27 38 -41 15 -32 24 -400 10 -400 -5 0 -10 4 -10 9 0 4
-29 69 -65 144 -36 75 -66 139 -66 142 0 2 -13 34 -30 70 -31 70 -35 95 -18
112 15 15 -14 63 -39 64 -94 4 -197 3 -240 -2z"/>
<path d="M2473 4932 c-34 -3 -44 -18 -19 -28 8 -3 165 -6 350 -7 314 -2 336
-1 336 16 0 14 -10 17 -62 17 -35 1 -178 2 -318 3 -140 1 -270 1 -287 -1z"/>
<path d="M7530 4918 c0 -20 -1 -20 99 -20 79 1 83 2 73 19 -4 6 -42 13 -90 15
-73 3 -82 1 -82 -14z"/>
<path d="M1365 4902 c-2 -3 -37 -5 -77 -4 -40 1 -77 -3 -83 -8 -14 -12 -14
-245 0 -259 10 -10 26 -11 235 -10 63 0 155 0 203 -1 49 -1 91 1 94 4 4 3 7
32 7 64 1 50 -2 58 -22 67 -21 9 -23 16 -20 67 2 48 -1 60 -17 72 -11 8 -23
12 -28 9 -4 -2 -30 -5 -57 -6 -28 0 -50 -5 -50 -10 0 -5 -6 -5 -13 1 -7 6 -26
10 -43 10 -17 -1 -36 2 -43 6 -6 4 -11 2 -11 -4 0 -6 -5 -8 -11 -5 -14 9 -57
14 -64 7z"/>
<path d="M9437 4902 c-3 -4 -54 -7 -114 -6 -59 0 -117 -3 -129 -8 -66 -30 -84
-168 -29 -232 l24 -28 142 -3 143 -3 29 29 c25 26 28 35 23 67 -3 20 -6 65 -6
99 -1 52 -4 64 -20 73 -11 6 -20 8 -20 5 0 -3 -9 -1 -19 5 -11 5 -22 7 -24 2z"/>
<path d="M2074 4862 c-8 -5 -11 -361 -11 -1318 0 -1298 0 -1311 20 -1323 11
-7 35 -21 53 -32 19 -10 51 -29 72 -41 20 -11 55 -31 77 -42 22 -12 42 -24 45
-27 3 -3 12 -8 20 -12 8 -4 33 -18 55 -32 22 -14 47 -28 55 -32 8 -4 55 -31
103 -60 48 -29 90 -53 92 -53 3 0 66 -36 141 -80 75 -44 138 -80 140 -80 4 0
124 -71 154 -90 8 -6 26 -16 40 -22 14 -7 27 -15 30 -19 3 -3 20 -12 38 -20
17 -8 32 -16 32 -20 0 -3 16 -11 35 -19 19 -8 35 -17 35 -22 0 -4 4 -8 10 -8
8 0 107 -56 160 -90 8 -6 22 -13 30 -17 8 -4 31 -16 50 -28 19 -12 67 -39 105
-60 39 -21 77 -44 86 -51 8 -8 18 -14 22 -14 5 0 323 -181 367 -209 8 -6 38
-22 65 -37 28 -15 52 -29 55 -33 3 -3 24 -15 47 -26 24 -11 43 -23 43 -27 0
-5 4 -8 10 -8 8 0 128 -67 180 -100 8 -5 49 -29 90 -52 41 -23 89 -51 105 -61
17 -9 38 -20 48 -23 9 -4 17 -10 17 -14 0 -4 8 -10 18 -13 19 -7 95 -49 114
-64 7 -6 45 -27 83 -48 39 -21 103 -57 142 -81 40 -24 77 -44 83 -44 5 0 10
-4 10 -10 0 -5 4 -10 9 -10 5 0 56 -27 113 -60 73 -42 110 -58 126 -53 12 3
22 9 22 14 0 5 4 9 9 9 9 0 143 76 481 273 340 198 463 267 471 267 5 0 9 5 9
10 0 6 5 10 10 10 6 0 118 63 251 140 132 77 244 140 249 140 5 0 10 3 12 8 2
4 20 16 40 27 20 11 83 47 140 80 119 69 117 68 277 160 67 39 130 75 139 80
9 6 35 21 57 33 22 12 56 32 75 43 19 12 103 60 185 107 83 47 183 105 222
129 40 23 77 43 83 43 5 0 10 3 10 8 0 4 27 20 60 37 33 16 60 33 60 37 0 4 5
8 11 8 6 0 38 16 70 36 32 19 60 34 61 32 2 -2 19 8 38 22 19 14 44 30 55 36
11 6 76 43 144 82 68 40 127 72 132 72 15 0 21 56 18 165 0 17 0 66 0 110 1
44 1 96 0 115 -3 134 -1 208 5 218 4 7 4 12 -1 12 -10 0 -9 213 1 229 4 6 4
11 -1 11 -10 0 -9 372 1 388 4 7 4 12 -1 12 -10 0 -9 212 1 228 4 7 4 12 -1
12 -10 0 -9 212 1 228 4 7 4 12 -1 12 -10 0 -9 212 1 228 4 7 4 12 -1 12 -10
0 -9 212 1 228 4 7 4 12 -1 12 -10 0 -9 213 1 229 4 6 4 11 -1 11 -4 0 -7 42
-7 94 l2 93 -30 1 -29 1 2 -125 c0 -69 -2 -128 -5 -131 -3 -4 -32 -7 -64 -8
-43 -1 -57 -5 -57 -15 0 -12 14 -15 61 -15 l61 0 2 -67 c1 -41 -2 -68 -9 -68
-14 0 -13 -27 3 -33 9 -3 11 -22 7 -68 l-5 -64 -142 0 c-78 0 -145 -4 -149 -8
-13 -12 18 -28 43 -22 12 3 25 1 28 -5 4 -6 13 -7 23 -2 17 8 188 9 196 1 4
-4 9 -70 7 -105 -1 -20 -3 -20 -513 -20 -282 1 -525 -1 -540 -3 -16 -2 -28
-10 -28 -17 0 -16 -52 -15 618 -15 l462 0 0 -64 0 -65 -37 0 c-21 -1 -200 -2
-398 -3 -312 -2 -360 -4 -360 -17 0 -13 51 -15 395 -15 l395 0 3 -64 c2 -43
-1 -67 -9 -72 -10 -6 -10 -11 0 -22 11 -14 19 -123 9 -132 -2 -2 -70 -5 -151
-6 -119 -1 -147 -4 -147 -15 0 -16 -10 -15 160 -17 l135 -2 3 -65 3 -65 -336
1 c-184 0 -340 -3 -346 -7 -36 -22 21 -27 323 -27 178 0 331 -1 341 -1 14 -1
17 -11 17 -66 l0 -65 -120 0 c-100 0 -120 -2 -120 -15 0 -18 -10 -17 125 -18
l110 -2 3 -62 c3 -55 1 -63 -15 -64 -10 -1 -74 -1 -143 -1 -69 0 -128 -2 -132
-4 -4 -3 -5 -11 -2 -18 4 -10 37 -13 140 -12 75 1 140 -2 146 -5 9 -6 13 -277
4 -286 -1 -2 -36 -3 -77 -3 -41 0 -119 -1 -174 -1 -55 0 -101 -2 -103 -4 -2
-2 -15 0 -28 5 -14 6 -26 6 -29 0 -3 -6 -15 -6 -29 0 -13 5 -27 6 -30 3 -8 -8
-68 -8 -89 0 -10 4 -17 3 -17 -1 0 -4 -46 -6 -101 -4 -96 3 -135 -5 -115 -25
4 -4 184 -8 399 -8 l392 0 0 -65 0 -65 -645 -1 c-355 -1 -648 -2 -652 -3 -5 0
-8 -7 -8 -15 0 -12 99 -14 655 -13 648 2 655 2 656 -18 1 -11 0 -24 -1 -30 -1
-5 -2 -27 -1 -48 1 -37 0 -38 -32 -37 -17 1 -72 2 -120 1 -78 -1 -88 -3 -85
-18 3 -16 16 -18 122 -16 112 1 118 0 113 -18 -3 -10 -1 -22 4 -25 6 -3 6 -11
1 -17 -5 -7 -6 -23 -2 -37 13 -51 1 -74 -53 -105 -29 -17 -56 -32 -62 -34 -5
-2 -12 -7 -15 -10 -3 -3 -23 -15 -44 -26 -36 -18 -61 -20 -315 -22 -336 -1
-311 0 -311 -18 0 -13 38 -15 262 -17 l263 -3 -140 -80 c-77 -44 -149 -85
-160 -91 -38 -21 -90 -51 -145 -85 l-55 -33 -260 -1 c-220 -1 -260 -3 -260
-15 0 -13 37 -16 224 -20 l225 -5 -40 -20 c-21 -11 -41 -23 -44 -26 -3 -4 -25
-17 -50 -29 -25 -12 -48 -28 -52 -34 -5 -8 -111 -13 -340 -16 -286 -4 -333 -7
-336 -20 -2 -13 34 -15 279 -15 154 0 282 -2 284 -5 2 -3 -13 -15 -33 -26 -20
-10 -66 -37 -102 -58 l-65 -39 -197 -1 c-108 -1 -199 -4 -203 -8 -19 -19 19
-25 161 -26 86 0 158 -2 160 -5 2 -2 -45 -31 -105 -65 l-109 -61 -294 1 c-286
1 -372 -4 -384 -23 -6 -11 -19 -10 329 -10 152 -1 277 -4 277 -7 0 -4 -21 -18
-47 -32 -27 -13 -71 -39 -98 -56 -53 -33 -91 -44 -112 -31 -7 5 -13 5 -13 0 0
-4 -74 -8 -165 -8 -91 0 -165 4 -165 8 0 5 -5 5 -10 2 -15 -9 -110 -12 -110
-3 0 4 -7 5 -15 1 -24 -9 -385 -9 -385 0 0 5 -5 5 -11 1 -16 -9 -269 -11 -269
-1 0 5 -5 5 -10 2 -16 -10 -110 -12 -110 -2 0 4 -5 5 -10 2 -16 -10 -190 -12
-190 -2 0 4 -5 5 -11 1 -6 -4 -34 -6 -63 -6 -62 1 -88 -6 -83 -21 3 -9 203
-12 795 -12 435 0 793 -3 796 -6 3 -3 -12 -14 -34 -25 -22 -10 -40 -22 -40
-25 0 -3 -16 -11 -35 -19 -19 -8 -35 -17 -35 -21 0 -4 -15 -13 -32 -20 -24 -9
-112 -13 -313 -15 -349 -2 -325 -1 -325 -21 0 -9 3 -13 6 -10 4 3 15 2 25 -3
11 -6 20 -6 24 -1 3 6 17 6 35 1 18 -5 32 -5 35 1 4 5 13 5 24 -1 10 -5 21 -7
24 -4 5 6 86 6 193 2 22 -1 44 0 50 3 5 2 35 2 68 -1 l58 -5 -111 -63 -110
-63 -295 1 c-279 0 -326 -4 -302 -27 3 -4 123 -7 265 -7 207 -1 257 -3 249
-13 -6 -7 -16 -13 -23 -13 -8 0 -15 -4 -17 -9 -1 -4 -41 -28 -88 -53 l-85 -44
-338 1 c-186 0 -342 -2 -349 -6 -35 -22 22 -27 312 -27 171 0 313 -2 316 -4 2
-3 -8 -11 -24 -19 -15 -7 -44 -24 -65 -37 -22 -13 -58 -34 -80 -47 -23 -13
-109 -62 -191 -109 -131 -75 -151 -84 -170 -73 -11 7 -23 15 -26 18 -3 3 -10
8 -15 10 -6 2 -46 24 -89 49 l-78 45 114 3 c125 3 147 7 131 23 -7 7 -68 11
-160 11 l-148 1 -58 33 c-32 19 -60 34 -62 34 -2 0 -26 13 -52 30 -46 29 -46
30 -17 30 16 0 35 4 43 9 27 17 1 28 -66 27 -66 -2 -70 0 -188 67 -66 38 -124
75 -128 83 -4 8 -16 14 -25 14 -9 0 -55 23 -101 50 -46 28 -87 50 -90 50 -3 0
-15 8 -26 16 -19 14 -16 15 35 14 30 -1 57 -1 60 0 22 7 41 7 46 -1 3 -5 9 -7
13 -5 4 3 73 5 152 5 79 0 152 0 162 0 41 1 148 0 160 0 6 0 31 1 55 3 24 2
46 0 48 -4 3 -5 10 -6 15 -3 5 4 130 6 278 5 255 0 300 4 277 28 -4 3 -318 6
-699 6 l-692 1 -94 58 c-51 31 -97 57 -102 57 -5 0 -9 3 -9 8 0 4 180 7 401 7
220 0 405 3 411 6 32 20 -13 27 -167 26 -91 -1 -165 2 -165 6 0 5 -5 5 -10 2
-16 -10 -110 -12 -110 -2 0 4 -5 5 -11 1 -6 -3 -103 -7 -215 -7 -172 0 -207 2
-228 16 -14 10 -28 17 -31 17 -3 0 -35 18 -71 40 -36 22 -70 40 -74 40 -5 0
-11 4 -15 9 -3 6 118 9 309 8 254 -2 312 0 304 11 -6 7 -13 10 -16 8 -2 -3
-14 0 -25 5 -12 7 -129 11 -331 11 l-311 0 -113 65 c-76 44 -111 70 -108 79 3
8 2 14 -2 15 -4 0 -21 2 -38 4 -17 2 -62 22 -99 44 -37 23 -71 41 -76 41 -5 0
-9 5 -9 10 0 6 -9 10 -19 10 -10 0 -21 6 -24 13 -4 10 50 13 272 12 152 -1
282 1 289 3 9 3 8 8 -5 18 -14 10 -80 13 -303 14 -158 0 -290 -4 -295 -9 -6
-5 -64 23 -145 70 -74 44 -153 89 -175 101 -22 11 -58 32 -80 46 -22 14 -41
25 -42 24 -2 -1 -27 14 -57 33 -30 19 -60 35 -66 35 -5 0 -10 5 -10 11 0 5 -4
8 -9 4 -5 -3 -12 -1 -16 4 -3 5 -18 16 -33 24 -15 8 -79 44 -142 82 -63 37
-144 83 -180 103 -79 43 -157 91 -150 93 3 0 246 1 540 2 294 1 534 5 533 10
-2 4 -3 11 -3 15 0 5 -239 8 -531 8 -413 0 -532 3 -538 13 -7 11 -5 82 4 107
2 8 86 11 284 11 155 0 283 2 286 4 2 3 0 10 -4 18 -7 10 -66 13 -284 12 -255
-1 -277 0 -285 16 -5 10 -6 27 -2 38 4 11 4 27 -1 36 -4 8 -5 20 -1 26 9 13
82 22 82 10 0 -4 5 -5 11 -1 6 3 62 6 125 5 63 -1 122 -1 132 -1 9 0 64 0 122
0 58 0 112 0 120 0 8 0 62 0 120 0 58 0 112 0 120 0 149 2 217 2 225 0 6 -1
65 -2 133 -1 111 1 123 3 120 18 -3 17 -44 18 -652 18 -639 0 -649 0 -656 20
-4 11 -4 29 0 40 4 11 4 30 -1 42 -6 17 -4 25 8 32 13 7 14 13 6 23 -5 7 -11
20 -11 28 -1 8 -2 22 -3 30 -1 8 -1 30 -1 48 2 25 6 33 20 31 9 -1 252 -1 540
0 457 1 522 3 522 16 0 8 -6 15 -12 16 -7 0 -248 1 -536 1 -500 1 -523 2 -533
19 -5 11 -6 19 -2 19 4 0 7 19 5 42 -4 68 -4 120 1 156 2 17 1 32 -4 32 -5 0
-6 6 -3 13 4 11 60 13 282 12 258 -1 310 4 296 26 -3 5 -134 9 -291 9 -158 0
-283 3 -280 6 3 4 2 15 -4 25 -7 13 -6 19 1 19 7 0 8 6 1 18 -12 22 -4 62 13
63 6 0 32 1 58 1 47 -1 72 13 49 28 -7 4 -34 6 -61 5 -42 -2 -50 1 -59 22 -7
16 -7 23 0 23 6 0 7 5 3 12 -4 7 -7 44 -5 82 3 92 3 99 1 111 -1 6 -2 18 -1
28 1 16 27 17 401 17 349 0 400 2 400 15 0 8 -6 16 -12 16 -7 1 -186 2 -397 3
l-385 1 -7 27 c-4 15 -5 29 -2 32 3 2 5 21 5 40 0 20 4 36 9 36 5 0 9 7 9 15
0 8 -7 15 -16 15 -8 0 -13 4 -10 8 3 5 5 24 6 43 0 41 1 138 0 159 0 8 0 40 1
70 0 30 0 62 0 70 -2 45 -3 86 -2 95 1 8 128 11 396 11 217 0 398 3 402 7 23
24 -34 28 -402 30 -379 2 -388 2 -393 22 -4 21 -3 97 2 102 1 2 154 3 339 4
227 0 339 3 343 11 4 5 2 13 -4 17 -5 3 -161 6 -346 6 -353 -1 -345 -2 -336
40 1 6 2 28 1 50 l0 41 142 -2 c78 0 145 1 149 3 4 2 4 11 1 19 -4 11 -18 15
-47 14 -22 -1 -87 -1 -143 -1 l-102 1 -1 33 c0 17 -1 40 -2 50 -1 17 -24 22
-44 9z"/>
<path d="M2841 4762 c-6 -12 -8 -23 -4 -23 36 -6 112 -4 127 4 31 15 2 29 -53
26 -28 -2 -52 0 -54 6 -2 5 -9 0 -16 -13z"/>
<path d="M7510 4752 c0 -16 16 -17 233 -16 273 2 271 2 232 19 -22 11 -85 14
-247 15 -202 0 -218 -1 -218 -18z"/>
<path d="M8414 4759 c-11 -18 12 -25 74 -24 45 1 58 4 60 18 3 15 -6 17 -62
17 -37 0 -68 -5 -72 -11z"/>
<path d="M7528 4599 c-38 -23 25 -27 421 -27 387 0 458 4 438 25 -10 9 -844
11 -859 2z"/>
<path d="M9051 3365 c0 -649 -1 -1192 -1 -1207 0 -23 -11 -33 -72 -68 -40 -22
-89 -50 -108 -61 -19 -12 -114 -66 -210 -122 -96 -55 -208 -120 -247 -144 -40
-24 -75 -43 -77 -43 -2 0 -62 -34 -132 -76 -71 -42 -154 -90 -184 -107 -30
-17 -67 -37 -82 -46 -15 -9 -110 -63 -210 -121 -100 -58 -190 -109 -199 -115
-9 -5 -36 -21 -60 -34 -24 -13 -46 -26 -49 -30 -3 -3 -21 -14 -40 -25 -95 -50
-166 -90 -170 -96 -3 -4 -31 -19 -62 -35 -32 -16 -58 -33 -58 -37 0 -4 -4 -8
-9 -8 -5 0 -92 -47 -192 -105 -100 -58 -184 -105 -187 -105 -2 0 -16 -8 -30
-19 -15 -10 -47 -29 -72 -43 -25 -14 -61 -35 -80 -47 -19 -11 -42 -24 -50 -28
-8 -4 -59 -33 -113 -65 -54 -32 -101 -58 -103 -58 -2 0 -23 -12 -46 -26 -68
-43 -142 -85 -160 -91 -10 -3 -18 -9 -18 -14 0 -5 -4 -9 -8 -9 -4 0 -57 -28
-118 -63 -60 -35 -124 -72 -142 -83 -163 -94 -281 -159 -290 -161 -6 -2 -56
24 -112 57 -55 33 -105 60 -110 60 -6 0 -10 5 -10 10 0 6 -4 10 -9 10 -9 0
-222 119 -231 129 -3 3 -21 14 -40 23 -19 10 -80 44 -135 78 -55 33 -107 63
-115 67 -8 3 -122 69 -253 145 -131 76 -243 138 -248 138 -5 0 -9 5 -9 10 0 6
-4 10 -9 10 -5 0 -65 32 -133 71 -134 78 -173 100 -209 121 -13 7 -26 15 -29
18 -3 3 -16 11 -30 17 -14 7 -43 24 -65 38 -22 13 -49 29 -60 34 -11 5 -67 37
-125 71 -58 34 -128 75 -156 91 -28 15 -150 85 -270 155 -121 70 -239 138
-264 152 -82 45 -235 135 -262 153 -15 11 -29 19 -32 19 -3 0 -43 22 -88 49
-46 27 -99 58 -118 68 -19 11 -106 61 -193 112 -87 50 -162 91 -168 91 -5 0
-9 5 -9 10 0 6 -6 10 -12 11 -7 0 -28 10 -47 22 l-33 23 -2 1184 c-1 782 -4
1185 -11 1185 -5 0 -16 4 -23 8 -7 5 -14 3 -17 -5 -3 -7 -4 -552 -3 -1211 l3
-1198 30 -17 c17 -9 32 -19 35 -22 3 -3 23 -15 45 -28 22 -12 120 -68 217
-125 98 -56 186 -106 196 -112 9 -5 53 -31 97 -56 44 -26 96 -56 115 -67 19
-10 76 -43 125 -72 79 -46 154 -88 220 -124 11 -6 22 -13 25 -16 3 -3 16 -11
30 -19 81 -46 137 -78 324 -186 114 -66 215 -125 224 -130 9 -6 53 -30 97 -54
44 -24 91 -52 105 -61 14 -10 57 -34 95 -55 39 -21 77 -43 85 -49 8 -6 24 -16
35 -22 17 -9 437 -251 915 -527 85 -49 175 -101 200 -114 25 -14 50 -29 55
-33 6 -4 35 -21 65 -37 30 -17 110 -63 177 -102 l122 -71 43 24 c24 13 99 57
168 97 69 39 143 82 165 93 22 12 42 23 45 27 3 3 43 27 90 53 47 27 128 74
180 104 52 31 100 57 107 58 6 1 22 11 34 23 13 12 26 21 30 21 6 0 438 246
509 290 8 5 58 33 110 63 52 30 163 94 245 142 188 109 408 236 460 265 22 12
93 53 157 91 65 38 125 72 135 76 10 4 23 11 28 16 20 16 175 105 175 100 0
-4 8 1 18 9 18 16 163 102 172 103 3 0 28 15 56 33 28 17 56 32 62 32 7 0 12
3 12 8 0 4 10 12 23 18 12 5 130 73 262 149 132 76 265 152 295 170 l55 31 3
1192 2 1193 -29 32 -30 31 0 -1179z"/>
<path d="M7587 4442 c-17 -3 -24 -31 -9 -33 44 -5 914 -1 919 5 25 24 -34 28
-454 30 -242 0 -447 0 -456 -2z"/>
<path d="M2163 4267 c-12 -20 23 -23 244 -22 196 0 228 2 228 15 0 13 -33 15
-233 16 -135 0 -235 -3 -239 -9z"/>
<path d="M2945 4270 c-10 -16 15 -26 68 -26 45 0 57 3 57 16 0 13 -12 16 -60
16 -34 1 -63 -2 -65 -6z"/>
<path d="M7584 4268 c-8 -12 2 -21 27 -25 23 -4 64 15 54 25 -10 11 -75 10
-81 0z"/>
<path d="M7749 4269 c-29 -17 8 -26 102 -25 55 1 103 -2 105 -6 3 -5 11 -5 17
-1 7 4 64 7 127 8 95 0 115 3 115 15 0 13 -32 15 -228 15 -125 1 -232 -2 -238
-6z"/>
<path d="M2188 4112 c-28 -3 -36 -16 -18 -27 7 -5 737 -9 903 -6 30 1 39 30
10 32 -53 3 -872 4 -895 1z"/>
<path d="M2444 3938 c-3 -5 -3 -12 1 -16 9 -9 775 -9 775 0 0 4 -8 12 -18 17
-24 13 -750 12 -758 -1z"/>
<path d="M7517 3943 c-23 -23 -2 -29 93 -28 101 1 117 5 105 24 -7 12 -187 16
-198 4z"/>
<path d="M5005 3860 c-27 -15 -53 -25 -57 -23 -5 2 -8 -1 -8 -6 0 -6 -3 -10
-7 -9 -5 1 -33 -4 -63 -12 -33 -9 -103 -15 -175 -15 -124 0 -165 5 -249 30
-26 8 -52 13 -56 10 -21 -13 -92 -19 -232 -20 l-158 0 -61 -108 c-90 -158
-209 -399 -209 -421 0 -4 -6 -22 -14 -39 -32 -70 -87 -256 -100 -337 -3 -19
-8 -46 -10 -60 -26 -139 -19 -385 15 -525 21 -83 62 -202 89 -257 16 -32 26
-58 22 -58 -4 0 -2 -4 3 -8 6 -4 23 -28 38 -54 48 -83 137 -184 218 -248 24
-19 46 -38 47 -42 2 -4 9 -8 17 -8 7 0 18 -7 25 -16 8 -8 30 -23 49 -33 20
-10 52 -27 71 -38 100 -56 315 -127 480 -158 14 -2 50 -9 80 -15 30 -6 78 -13
105 -16 28 -2 59 -6 70 -9 123 -27 855 -27 1050 0 17 2 68 9 115 16 47 7 96
13 110 15 14 1 25 3 25 4 0 1 7 3 15 5 54 12 79 17 105 21 63 12 264 83 350
125 143 69 236 136 338 243 48 50 149 187 152 206 1 3 17 39 37 81 37 77 91
239 83 247 -2 3 0 12 5 21 8 16 15 59 26 161 5 54 5 209 -1 265 -7 66 -13 110
-15 110 -2 0 -6 21 -15 79 -3 21 -8 43 -11 48 -3 4 -7 19 -10 33 -12 69 -121
354 -165 430 -19 34 -13 35 -104 -3 -126 -52 -200 -65 -360 -66 -111 -1 -187
5 -242 19 -13 3 -31 7 -40 9 -213 53 -434 213 -532 388 -32 56 -43 62 -76 38
-12 -9 -84 -34 -105 -36 -8 -1 -35 -5 -60 -8 -117 -15 -364 -1 -410 24 -11 6
-20 8 -20 5 0 -3 -22 6 -50 20 -59 30 -62 30 -125 -5z"/>
<path d="M3237 3782 c-10 -2 -16 -9 -14 -15 3 -9 80 -13 279 -15 236 -2 277 0
288 13 7 8 11 16 9 16 -10 3 -546 4 -562 1z"/>
<path d="M7419 3768 c-9 -17 20 -18 530 -17 297 0 543 3 545 8 15 24 -37 27
-537 26 -493 0 -530 -1 -538 -17z"/>
<path d="M2423 3622 c-21 -2 -33 -9 -33 -18 0 -16 3 -16 79 -15 59 1 70 6 54
22 -12 12 -49 16 -100 11z"/>
<path d="M2968 3622 c-29 -3 -36 -16 -17 -28 8 -5 388 -8 552 -5 17 1 27 6 27
16 0 11 -12 15 -42 16 -148 3 -498 3 -520 1z"/>
<path d="M3641 3620 c-39 -9 -36 -27 5 -32 30 -4 64 10 64 27 0 7 -47 11 -69
5z"/>
<path d="M7310 3620 c-38 -7 -60 -17 -60 -28 0 -6 65 -7 173 -3 10 1 17 7 15
14 -5 15 -80 25 -128 17z"/>
<path d="M8025 3622 c-56 -4 -71 -10 -58 -23 12 -12 133 -18 133 -6 0 4 0 10
1 14 1 12 -33 18 -76 15z"/>
<path d="M2560 3448 c0 -4 -1 -11 -2 -15 -2 -5 192 -8 430 -9 388 0 432 1 430
15 -3 14 -51 16 -431 17 -235 0 -427 -3 -427 -8z"/>
<path d="M7322 3441 c3 -14 34 -16 253 -16 216 0 250 2 250 15 0 13 -35 15
-253 16 -224 0 -252 -1 -250 -15z"/>
<path d="M3057 3292 c-40 -2 -57 -7 -54 -15 2 -7 18 -12 35 -12 18 0 32 -2 32
-5 0 -8 216 -4 229 4 6 4 11 4 11 -1 0 -12 230 -7 243 6 6 6 8 13 5 16 -6 6
-408 12 -501 7z"/>
<path d="M7548 3290 c-141 -4 -166 -7 -159 -19 8 -12 77 -14 423 -13 227 0
423 1 436 1 14 1 22 7 22 19 0 16 -20 17 -277 17 -153 0 -353 -2 -445 -5z"/>
<path d="M2166 3115 c-3 -8 -2 -16 2 -18 4 -2 111 -3 237 -3 197 1 230 3 230
16 0 22 -460 27 -469 5z"/>
<path d="M2947 3116 c-3 -8 0 -16 6 -18 7 -3 131 -4 277 -4 244 1 265 2 268
19 3 16 -15 17 -271 17 -228 0 -276 -2 -280 -14z"/>
<path d="M7440 3123 c1 -24 22 -29 110 -27 122 2 120 2 114 18 -4 11 -31 14
-115 15 -60 1 -109 -2 -109 -6z"/>
<path d="M7740 3123 c1 -27 25 -30 242 -29 125 1 230 4 233 8 4 4 4 11 0 17
-7 13 -475 16 -475 4z"/>
<path d="M7634 2961 c-2 -2 -4 -10 -4 -17 0 -10 114 -13 575 -13 326 0 575 4
575 9 0 5 -6 12 -12 17 -13 8 -1126 12 -1134 4z"/>
<path d="M2463 2799 c-27 -10 -30 -25 -5 -30 14 -4 868 -3 955 0 17 1 27 7 27
16 0 11 -12 15 -47 16 -27 1 -52 0 -58 -1 -5 -1 -17 -2 -25 -1 -8 0 -62 1
-120 0 -58 0 -111 0 -117 0 -21 1 -142 0 -155 0 -7 0 -98 1 -201 1 -104 1
-191 -1 -194 -4 -3 -3 -13 -1 -22 3 -9 5 -26 5 -38 0z"/>
<path d="M7509 2805 c0 0 -2 -8 -4 -17 -4 -20 -9 -20 108 -22 60 -1 92 3 99
11 7 9 6 14 -3 18 -10 3 -145 10 -200 10z"/>
<path d="M3017 2472 c-9 -2 -17 -10 -17 -18 0 -16 -6 -15 220 -15 226 0 220
-1 220 16 0 8 -6 15 -12 16 -41 3 -397 3 -411 1z"/>
<path d="M7523 2472 c-14 -2 -23 -10 -23 -20 0 -16 30 -17 375 -16 206 1 382
5 392 8 12 5 13 10 5 18 -8 8 -121 11 -369 12 -197 1 -368 0 -380 -2z"/>
<path d="M7634 2298 c-4 -6 -2 -13 4 -17 15 -9 1126 -8 1130 2 1 4 2 11 2 16
0 12 -1128 12 -1136 -1z"/>
<path d="M2448 2139 c-6 -4 -7 -12 -4 -18 5 -8 160 -11 542 -11 506 0 534 1
525 17 -9 17 -45 18 -531 18 -287 0 -526 -3 -532 -6z"/>
<path d="M7425 2132 c-3 -7 -5 -16 -5 -18 0 -9 289 -4 295 5 12 20 -24 26
-152 27 -104 0 -133 -3 -138 -14z"/>
<path d="M2853 1979 c-13 -5 -23 -13 -23 -19 0 -5 10 -11 23 -11 109 -6 127
-4 127 11 0 4 -13 13 -30 19 -17 6 -30 6 -30 1 0 -6 -9 -6 -22 -1 -13 5 -33 5
-45 0z"/>
<path d="M7443 1982 c-21 -2 -33 -9 -33 -18 0 -17 -29 -16 298 -16 258 -1 318
5 282 27 -13 8 -438 10 -446 2 -3 -2 -19 -2 -37 2 -18 3 -47 5 -64 3z"/>
<path d="M3505 1969 c-11 -17 4 -22 59 -20 24 1 27 3 16 16 -14 17 -66 20 -75
4z"/>
<path d="M3114 1808 c-3 -5 -3 -12 0 -17 3 -4 133 -8 290 -8 259 0 283 2 274
16 -9 15 -42 17 -285 16 -151 0 -277 -3 -279 -7z"/>
<path d="M3616 1481 c-15 -23 21 -28 222 -27 116 0 212 4 212 8 0 21 -67 28
-241 27 -104 -1 -191 -4 -193 -8z"/>
<path d="M5225 832 c-16 -2 -36 -5 -44 -8 -24 -8 4 -27 41 -26 87 1 98 2 98
16 0 15 -44 23 -95 18z"/>
</g>
</svg>
