<?xml version="1.0" encoding="UTF-8"?><svg id="a" xmlns="http://www.w3.org/2000/svg" viewBox="0 0 480 547"><path id="b" d="M251.2,74.09l.84,110.65c-.38,0-.77,.02-1.17,.02-3.42,.06-7.02,.09-10.68,.09s-7.22-.03-10.62-.09c-.94-.02-1.81-.04-2.63-.06l1.1-110.58,23.15-.03Zm-33.2-24.49h-4.1c-3.74,1.26-3.79,8.6-.01,9.85h4.1c.88-.48,1.43-1.86,1.64-3.44h4.92c.06,4.17,.09,6.84,.09,6.84,3.28,3.34,3.33,6.69,3.33,6.69v3.56l23.31-.03v-3.56s.06-3.34,3.35-6.69c0,0,.04-2.67,.1-6.84h5.65c.21,1.57,.75,2.95,1.63,3.42h4.1c3.78-1.26,3.74-8.6,.01-9.85h-4.1c-.8,.44-1.32,1.6-1.56,2.99h-5.67c.06-3.74,.15-8.21,.25-12.9h5.36c.21,1.57,.75,2.95,1.63,3.42h4.1c3.78-1.26,3.74-8.6,.01-9.85h-4.1c-.8,.44-1.32,1.6-1.56,2.99h-5.37c.1-4.35,.21-8.78,.34-12.9h4.97c.21,1.57,.75,2.95,1.63,3.42h4.1c3.78-1.26,3.74-8.6,.01-9.85h-4.1c-.8,.44-1.32,1.6-1.56,2.99h-4.94c.26-7.57,.56-13.53,.89-14.98,0,0-2.08,.22-7.12-2.58C244.3-.5,238.77,.04,238.77,.04c0,0-5.98,.22-9.37,2.28-3.4,2.05-6.45,2.6-6.45,2.6,.33,1.45,.62,7.41,.86,14.98h-4.21c-.25-1.38-.76-2.54-1.56-2.97h-4.1c-3.74,1.26-3.79,8.6-.01,9.85h4.1c.89-.48,1.43-1.86,1.64-3.44h4.24c.11,4.11,.22,8.54,.31,12.9h-4.64c-.25-1.38-.76-2.54-1.56-2.97h-4.1c-3.74,1.26-3.79,8.6-.01,9.85h4.1c.89-.48,1.43-1.86,1.64-3.44h4.64c.09,4.68,.16,9.16,.22,12.9h-4.94c-.24-1.38-.76-2.54-1.56-2.97Zm103,322.53c-5.48,2.59-11.26,4.16-17.18,4.66-1.61,.14-3.23,.21-4.8,.21-3.89,0-7.74-.42-11.44-1.25-5.33-1.2-10.32-3.19-14.82-5.91-5.1-3.09-9.3-6.99-12.49-11.6-1.17-1.7-2.18-3.47-3.04-5.3-2.03,1.29-4.29,2.24-6.68,2.78-.95,.22-1.94,.38-3.12,.52-1.31,.15-2.78,.26-4.46,.32-.82,.03-1.69,.05-2.59,.05-.85,0-1.73-.02-2.64-.05-1.8-.06-3.52-.18-5.11-.34-2.15-.22-4.06-.56-5.81-1.02-2.38-.63-4.63-1.65-6.64-2.98-.68,.44-1.38,.85-2.09,1.24-4.93,2.72-10.59,4.09-16.8,4.09-.38,0-.77,0-1.17-.02-4.85-.09-9.37-.92-13.41-2.47-.74,.26-1.5,.47-2.26,.65-.97,.22-1.97,.38-3.14,.52-1.3,.15-2.76,.26-4.45,.32-.82,.03-1.69,.05-2.6,.05-.85,0-1.73-.02-2.65-.05-1.76-.06-3.42-.17-4.95-.33-8.27,14.52-26.26,43.21-18.92,74.71,7.85,33.65,34.81,49.12,92.2,49.05,57.39-.07,84.39-15.59,92.31-49.26,5.31-22.56-2.37-43.65-10.18-59.14-.35,.18-.7,.36-1.06,.53ZM53.95,313.54c.14,.59,0,1.22-.38,1.7-.38,.48-.96,.76-1.57,.76h-4.19c-.12,0-.23,0-.34-.03-.11,.02-.22,.03-.34,.03h-2.12c-.61,0-1.16-.27-1.53-.71-.37,.44-.92,.71-1.53,.71h-1.65c-.44,0-.85-.14-1.19-.39-.33,.25-.74,.39-1.19,.39h-2.12c-.56,0-1.08-.24-1.45-.62-.37,.38-.88,.62-1.45,.62h-2.11c-.2,0-.39-.03-.57-.08-.18,.05-.38,.08-.58,.08h-1.65c-1.01,0-1.85-.75-1.98-1.74-.07-.55,.07-1.1,.38-1.55v-7.41c-.32-.45-.46-1-.38-1.55,.13-1,.98-1.74,1.98-1.74h1.65c.2,0,.39,.03,.58,.08,.18-.05,.38-.08,.57-.08h2.11c.19,0,.37,.03,.54,.07,.17-.05,.35-.07,.54-.07h5.74c.1,0,.19,0,.28,.02,.09-.01,.19-.02,.28-.02h1.72c.71,0,1.35,.37,1.71,.96,.36-.58,1-.96,1.71-.96h1.71c.12,0,.23,0,.34,.03,.11-.02,.22-.03,.34-.03h2.12c1.01,0,1.86,.75,1.98,1.75,.07,.56-.07,1.12-.4,1.56v3.63c.1-.01,.21-.02,.31-.02,.31,0,.57,.05,.69,.09,.55,.15,1.01,.53,1.27,1.04,.26,.51,.28,1.11,.07,1.64h0s-.19,.68,.09,1.85Zm426.05-28.86c0,4.33-2.99,8.71-8.7,8.71-3.02,0-5.58-1.69-6.83-4.21-1.46,2.39-3.86,3.89-6.68,3.89h-3.78c.22,.41,.35,.88,.35,1.37,0,1.17-.62,2.25-1.67,2.88-.66,.42-1.66,.67-2.7,.67-2,0-3.84-.9-5.06-2.47-.84-1.09-1.88-2.94-2.97-4.9-.38-.68-.86-1.55-1.37-2.43,.01,.25,.04,.53,.07,.77,.16,.11,.31,.24,.44,.39,.68,.78,.62,1.7,.59,1.97-.13,1-.98,1.74-1.98,1.74h-5.78c-1,0-1.85-.74-1.98-1.73-.01-.09-.03-.25-.02-.45l-.02,.02c-1.5,1.35-3.51,2.14-5.5,2.16h-.07c-4.36-.1-7.92-3.46-7.92-7.5v-2.7c-.14,.1-.29,.2-.44,.29-.01,0-.03,.02-.04,.02v4.63c0,.35,.04,.82,.08,1.18,.15,.11,.29,.23,.41,.37,.68,.78,.62,1.71,.58,1.98-.13,.99-.98,1.73-1.98,1.73h-5.75c-.63,0-1.2-.29-1.57-.76-.37,.46-.94,.76-1.57,.76h-4.51c-1,0-1.85-.74-1.98-1.74,0-.04,0-.08-.01-.14-1.26,1.2-3.03,1.88-5.13,1.88-6.57,0-10.5-5.66-10.5-15.14,0-7.51,3.69-15.5,10.54-15.5h4.76c.43,0,.84,.14,1.16,.37,.33-.24,.73-.37,1.16-.37h4.51c.63,0,1.2,.3,1.57,.76,.37-.47,.94-.76,1.57-.76h5.75c1,0,1.85,.74,1.98,1.73,.04,.27,.1,1.2-.58,1.98-.12,.14-.26,.27-.41,.37-.04,.36-.08,.84-.08,1.19v7.37c.05,.03,.11,.06,.16,.09,.11,.07,.22,.14,.32,.22v-5.45c0-4.04,3.58-7.41,7.99-7.5,.01,0,.12,0,.15,0,2.08,.07,3.97,.89,5.38,2.17,0-.19,0-.35,.02-.43,.13-.99,.98-1.74,1.98-1.74h4.62c5.04,0,9,2.35,10.87,6.09v-.82c0-.35-.03-.82-.07-1.19-.15-.11-.29-.23-.41-.37-.68-.78-.62-1.7-.59-1.97,.13-.99,.98-1.74,1.98-1.74h4.65c4.46,0,7.81,1.66,9.58,4.54,.96-2.55,3.33-4.33,6.66-4.84,.63-.09,1.29-.14,1.98-.14,2.22,0,4.1,.48,4.18,.5,.88,.23,1.5,1.02,1.5,1.94,0,1.26-.52,2.99-1.07,4.83-.07,.22-.13,.45-.2,.68,.83,.5,1.38,1.41,1.38,2.45,0,1.39-1.02,2.71-2.42,3.15-.24,.07-.47,.13-.71,.16,2.06,2.28,4.16,5.1,4.16,8.98Zm-77.28-16.98c0-.18,0-.4-.02-.62-.42,1.02-.99,2.01-1.52,2.94-.04,.07-.08,.14-.12,.22,.6,.52,.98,1.29,.98,2.15,0,1.43-1.11,2.82-2.53,3.18-.35,.08-.73,.15-1.18,.15-.94,0-1.79-.33-2.45-.95-.93-.87-1.22-1.95-1.21-3.04-.47,1.73-.82,3.88-.82,6.17,0,5.9,1.74,9.51,2.69,9.51,.24,0,.34-.06,.46-.24,.19-.31,.24-.74,.21-1.03-.72-.3-1.23-1.01-1.23-1.85,0-1.81,1.59-3.22,3.63-3.22,1.12,0,2.29,.47,3.1,1.47v-14.83Zm7.65,15.85s-.1,0-.15,0c-.27,0-.76,.03-.97,.26-.23,.25-.25,.78-.25,.78,0,.05,0,.1,0,.15v3.05c0,.35,.04,.82,.08,1.18,.14,.09,.26,.2,.38,.33,.09,.09,.16,.19,.23,.28,.05-.08,.11-.16,.18-.24,.12-.14,.26-.27,.42-.38,.04-.36,.08-.84,.08-1.18v-4.25Zm0-15.85c0-.34-.03-.81-.08-1.18-.15-.11-.29-.23-.41-.37-.07-.08-.13-.16-.18-.24-.07,.1-.14,.19-.23,.28-.12,.12-.24,.23-.38,.33-.05,.36-.08,.83-.08,1.19v10.44c.45-.09,.91-.15,1.36-.19v-10.26Zm16.43,2.24c0-.43-.17-.83-.42-1.17-.25,.34-.41,.74-.41,1.17v15.63c0,.43,.17,.83,.42,1.17,.25-.34,.42-.74,.42-1.17v-15.63Zm16.4,3.69c0-2.92-1.27-4.46-2.63-5.19v10.19c1.45-.81,2.63-2.62,2.63-5Zm6.21,5.31c-.84,1.7-2.11,3.1-3.7,4.08,1.37,1.69,2.42,3.88,3.38,5.91,.03,.06,.06,.12,.09,.18,.05-.04,.11-.09,.16-.12,.04-.37,.07-.84,.07-1.19v-8.86Zm9.03,4.67c0-1.67-.01-4.58-.02-7.06,0-1.84-.01-3.45-.01-4.13,0-2.63-.28-3.59-1.43-3.95v18.76c.9-.73,1.47-2.23,1.47-3.62Zm13.17-13.96c0,.13,.01,.27,.03,.41,.05-.36,.11-.7,.16-1.02,.06-.35,.14-.81,.18-1.17-.16,.22-.38,.77-.38,1.79Zm.87,15.02c0-2.34-1.65-4-3.55-5.93-1.01-1.02-2.08-2.1-2.95-3.35,0,.46,.02,4.23,.02,5.53,.66-.38,1.38-.56,2.09-.56,2.17,0,3.87,1.6,3.87,3.64,0,.79-.46,1.47-1.12,1.8-.08,.64,.17,1.73,.49,1.93,.39-.01,1.14-1.03,1.14-3.05Zm-29.87,22.38c0-.45-.13-.88-.36-1.24,.18-.59,.32-1.15,.32-1.67,0-.92-.63-1.73-1.53-1.94-.09-.02-.92-.22-1.89-.22-.3,0-.62,.02-.94,.06-.63,.09-1.2,.27-1.69,.53-.22-.18-.48-.31-.77-.38-.09-.02-.91-.22-1.89-.22-.3,0-.62,.02-.94,.06-.59,.09-1.12,.25-1.59,.48-.33-.24-.74-.39-1.18-.39h-1.84c-3.44,0-5.3,3.57-5.3,6.93,0,4.13,2.07,6.8,5.28,6.8,.9,0,1.7-.24,2.34-.67,.69,.5,1.55,.79,2.49,.79,1.06,0,2.01-.3,2.76-.82,.7,.52,1.58,.82,2.54,.82,2.66,0,4.59-1.87,4.59-4.45,0-1.2-.41-2.17-.95-2.96,.35-.43,.56-.97,.56-1.53Zm-366.77-31.36c2.07,2.28,4.16,5.1,4.16,8.98,0,4.33-2.99,8.71-8.71,8.71-2.7,0-5.03-1.35-6.39-3.43-1.23,1.95-3.41,3.11-6.15,3.11-4.22,0-7.35-2.33-9.06-6.5v1.24c0,.34,.03,.8,.08,1.17,.16,.11,.31,.25,.45,.4,.68,.78,.62,1.7,.59,1.97-.13,.99-.98,1.74-1.98,1.74h-1.78c.23,.41,.35,.88,.35,1.37,0,1.17-.63,2.25-1.68,2.88-.66,.42-1.66,.67-2.7,.67-2,0-3.84-.9-5.06-2.47-.85-1.09-1.88-2.94-2.97-4.9-.38-.68-.87-1.56-1.38-2.44,.01,.25,.04,.54,.07,.78,.16,.11,.31,.24,.44,.39,.68,.78,.62,1.7,.59,1.97-.13,.99-.98,1.74-1.98,1.74h-5.79c-1,0-1.85-.74-1.98-1.74-.03-.26-.1-1.19,.59-1.97,.13-.14,.27-.27,.42-.38,.04-.37,.07-.84,.07-1.18,0,0,0-20.16,0-20.19-.08,.23-.16,.45-.21,.61l-3.07,13.61v5.96c0,.3,.04,.79,.09,1.18,.13,.09,.26,.2,.37,.32,.69,.73,.68,1.63,.67,1.89-.07,1.05-.94,1.87-2,1.87h-5.79c-.5,0-.96-.18-1.31-.49-.36,.31-.82,.49-1.31,.49H2c-1,0-1.85-.74-1.98-1.74-.04-.26-.1-1.19,.59-1.97,.13-.14,.27-.27,.42-.38,.04-.37,.07-.84,.07-1.18v-20.1c0-.34-.03-.81-.07-1.18-.15-.11-.29-.23-.42-.38-.68-.78-.62-1.7-.59-1.97,.13-.99,.98-1.74,1.98-1.74H7.8c.93,0,1.73,.64,1.94,1.53,.07-.29,.2-.56,.4-.8,.38-.46,.95-.73,1.55-.73h5.79c.82,0,1.56,.5,1.86,1.26,.05,.13,.09,.26,.12,.39,.03-.13,.07-.26,.12-.39,.3-.76,1.04-1.26,1.86-1.26h4.52c.16,0,.32,.02,.48,.06,.15-.04,.31-.06,.48-.06h4.63c4.78,0,8.6,2.11,10.58,5.52v-.25c0-.34-.03-.82-.07-1.19-.15-.11-.29-.23-.42-.38-.68-.78-.62-1.7-.59-1.97,.13-.99,.98-1.74,1.98-1.74h5.79c1,0,1.85,.74,1.98,1.74,.04,.26,.1,1.19-.59,1.97-.13,.15-.28,.29-.45,.4-.04,.36-.08,.83-.08,1.18v2.2c1.67-4.27,4.75-7.48,9.09-7.48h4.77c1.1,0,2,.9,2,2,0,.27-.02,.54-.06,.81,1.23-1.61,3.2-2.72,5.71-3.11,.63-.09,1.29-.14,1.98-.14,2.22,0,4.11,.48,4.19,.5,.88,.23,1.5,1.02,1.5,1.94,0,1.26-.52,2.99-1.07,4.83-.07,.22-.14,.45-.2,.68,.83,.5,1.38,1.41,1.38,2.45,0,1.39-1.02,2.71-2.43,3.15-.24,.07-.47,.12-.71,.16Zm-60.89,5.92l-3.07-13.35v-.03c-.28-.77-.47-1.22-.6-1.47-.82-.34-1.34-1.08-1.53-1.8-.07,.36-.22,.78-.56,1.17-.13,.15-.28,.28-.44,.39-.05,.36-.08,.82-.09,1.23v19.97c.53-.24,1.16-2.27,1.16-3.66,0-1.88,1.3-3.19,3.16-3.19,.47,0,.84,.08,.97,.12,.39,.1,.73,.32,.99,.61Zm.21,2.58c-.18,.78-.43,2.44-.08,4.79h0c.04-.37,.07-.84,.07-1.18v-3.6Zm4.74-18.08c-.04-.05-.08-.1-.12-.16-.16-.23-.27-.49-.33-.76-.06,.27-.17,.53-.33,.76-.03,.04-.06,.09-.1,.13,.05,.24,.13,.57,.25,.99,0,.02,.03,.11,.03,.13l.17,.75,.13-.66c.02-.09,.04-.17,.07-.26,.06-.21,.15-.58,.22-.93Zm16.31,7.51c0-2.92-1.27-4.47-2.64-5.19v10.19c1.45-.81,2.64-2.62,2.64-5Zm5.9,5.89c-.83,1.44-1.99,2.63-3.4,3.5,1.35,1.66,2.39,3.81,3.34,5.81,.03-.34,.06-.73,.06-1.03v-8.28Zm29.47-9.87c0,.14,.01,.29,.04,.43,.05-.37,.11-.72,.17-1.05,.06-.35,.14-.81,.18-1.18-.17,.23-.38,.81-.38,1.79Zm.88,15.02c0-2.34-1.65-4-3.56-5.93-2.27-2.3-4.85-4.9-4.85-9.1,0-.28,.01-.56,.04-.84-.22,.41-.46,.81-.68,1.2-.04,.07-.08,.14-.12,.22,.6,.52,.98,1.29,.98,2.15,0,1.43-1.11,2.82-2.54,3.18-.35,.08-.73,.15-1.18,.15-.94,0-1.79-.33-2.45-.95-.94-.88-1.23-1.97-1.21-3.07-.48,1.73-.83,3.89-.83,6.19,0,5.9,1.75,9.51,2.7,9.51,.24,0,.35-.06,.47-.25,.19-.31,.24-.73,.21-1.02-.72-.3-1.23-1.01-1.23-1.85,0-1.81,1.6-3.22,3.63-3.22,.97,0,1.98,.35,2.76,1.09,.87-1.22,2.19-1.79,3.45-1.79,2.17,0,3.88,1.6,3.88,3.64,0,.79-.46,1.47-1.12,1.8-.08,.64,.17,1.73,.49,1.93,.4-.01,1.15-1.03,1.15-3.05Zm140.45-68.4c.13,1.4,.26,2.52,.4,3.44,.14,.99,.44,3.06,2.36,3.06,1.31,0,1.99-1.1,2.28-1.57,.21-.35,.5-.76,.86-1.23,.34-.45,.73-.91,1.16-1.36,.23-.25,.47-.42,.71-.51,.77-.19,2.3-.43,5.31-.54,1.11-.04,2.27-.06,3.47-.06,1.06,0,2.16,.02,3.29,.05,.08,1.24,.15,2.65,.21,4.21,.09,2.39,.16,4.99,.19,7.74,.03,2.74,.06,5.44,.1,8.08,.03,2.64,.05,4.94,.05,6.87-.06,2.87-.24,6.1-.52,9.59-.28,3.48-.59,6.7-.91,9.57-.1,.96-.32,1.71-.65,2.23-.42,.65-.84,1.19-1.23,1.59-.43,.38-.88,.64-1.37,.8-.47,.15-.86,.48-1.11,.9-.4,.69-.46,1.49-.16,2.19,.54,1.29,1.97,1.67,2.44,1.79,1.07,.29,2.4,.51,4.06,.68,1.57,.16,3.33,.28,5.24,.34,.95,.03,1.87,.05,2.76,.05s1.75-.02,2.58-.05c1.68-.07,3.07-.16,4.23-.3,1.38-.15,3.46-.39,3.46-2.37,0-.9-.54-1.56-1.07-2.09-.29-.29-.63-.65-1.01-1.09-.33-.38-.66-.84-.99-1.39-.26-.43-.43-.86-.52-1.37-.24-1.19-.44-2.97-.59-5.28-.16-2.42-.29-5.17-.38-8.2-.09-3.12-.14-6.4-.14-9.74s.02-6.81,.05-10.12c.03-3.28,.09-6.39,.19-9.23,.07-2.02,.16-3.83,.28-5.4,1.14-.03,2.26-.05,3.33-.05,1.21,0,2.38,.02,3.51,.06,3.04,.11,4.58,.35,5.35,.54,.24,.09,.48,.26,.71,.5,.42,.45,.81,.91,1.16,1.36,.35,.46,.64,.88,.86,1.23,.26,.43,.97,1.57,2.28,1.57,1.92,0,2.22-2.06,2.36-3.05,.13-.9,.26-2.03,.4-3.44,.13-1.38,.21-2.95,.25-4.65,.03-1.68,.02-3.33-.05-4.82,0-.42-.15-2.5-3.18-2.62-.14,0-.3,0-.49,0-1.01,0-2.68,.08-5.09,.25-2.09,.13-4.89,.22-8.33,.28-3.47,.06-7.1,.09-10.78,.09s-7.29-.03-10.73-.09c-3.4-.06-6.12-.16-8.12-.29-1.38-.06-2.49-.13-3.3-.19-.62-.05-1.15-.07-1.59-.07-.25,0-.47,0-.67,.02-.78,.05-1.33,.18-1.76,.4-.88,.44-1.4,1.27-1.4,2.14-.07,1.58-.07,3.24,0,4.94,.06,1.69,.16,3.24,.3,4.61Zm-20.58,37.76c-.13,1.68-.27,3.34-.43,4.98-.16,1.66-.31,3.2-.43,4.58-.1,.95-.32,1.7-.65,2.23-.42,.65-.84,1.19-1.23,1.59-.43,.37-.88,.64-1.37,.8-.47,.15-.86,.48-1.11,.91-.39,.69-.45,1.49-.16,2.19,.53,1.28,1.92,1.66,2.38,1.78,1.04,.29,2.36,.51,4.02,.68,1.57,.16,3.35,.28,5.28,.34,.97,.03,1.9,.05,2.79,.05s1.76-.02,2.59-.05c1.68-.07,3.07-.16,4.23-.3,1.38-.15,3.46-.39,3.46-2.37,0-.9-.54-1.56-1.07-2.09-.29-.29-.63-.65-1.01-1.09-.35-.4-.71-.89-1.08-1.45-.27-.41-.44-.83-.52-1.27-.24-1.31-.44-3.38-.59-6.16-.16-2.79-.29-6.01-.38-9.55-.1-3.53-.13-7.27-.1-11.12,.03-3.91,.08-7.6,.14-11.07,.06-3.41,.19-6.51,.38-9.22,.19-2.67,.37-4.6,.55-5.71,.08-.44,.25-.86,.52-1.27,.37-.57,.74-1.06,1.08-1.46,.38-.44,.72-.8,1.01-1.09,.53-.53,1.07-1.19,1.07-2.09,0-1.98-2.08-2.21-3.46-2.37-1.17-.13-2.55-.23-4.23-.3-.83-.03-1.69-.05-2.59-.05s-1.83,.02-2.79,.05c-1.93,.07-3.71,.18-5.28,.34-1.66,.17-2.98,.4-4.02,.68-.46,.13-1.85,.51-2.38,1.79-.29,.7-.23,1.5,.17,2.19,.26,.45,.69,.79,1.19,.93,.64,.18,1.19,.47,1.7,.88,.48,.39,.95,.9,1.37,1.52,.35,.52,.58,1.25,.68,2.25,.18,1.34,.32,3.25,.42,5.69,.09,2.46,.16,5.16,.19,8.03l.1,8.61c.03,2.86,.05,5.34,.05,7.44,0,1.42-.05,2.95-.14,4.57-.1,1.65-.21,3.31-.33,4.98Zm73.81-4.76l2.5-8.61c.83-2.86,1.53-5.33,2.11-7.43,1.45-5.59,2.54-10.23,3.23-13.77,.71-3.62,1.33-6.51,1.85-8.57,.37-1.55,.64-2.71,.8-3.46,.36-1.73,1.33-2.54,2.08-2.91,.7-.35,1.57-.51,2.65-.51,.22,0,.46,0,.71,.02,1.01,.06,2.57,.09,4.64,.09s3.51-.03,4.49-.09c.27-.02,.53-.02,.76-.02,1,0,1.8,.14,2.46,.42,.75,.33,1.73,1.05,2.18,2.62,.19,.67,.49,1.72,.87,3.13,.53,2.1,1.17,5.01,1.91,8.69,.72,3.61,1.86,8.45,3.39,14.38,.57,2.07,1.25,4.55,2.06,7.42,.8,2.86,1.62,5.72,2.45,8.59,.83,2.86,1.63,5.55,2.39,8.05,.76,2.48,1.39,4.42,1.89,5.78,.39,.97,.9,1.8,1.48,2.41,.67,.69,1.33,1.25,1.97,1.68,.69,.44,1.44,.78,2.19,.98,.39,.1,.74,.32,1,.63,.6,.69,.81,1.55,.57,2.36-.27,.92-1.02,1.56-2.24,1.92-.99,.29-2.27,.52-3.91,.69-1.54,.16-3.29,.28-5.19,.34-.95,.03-1.88,.05-2.77,.05s-1.77-.02-2.61-.05c-1.66-.06-3.08-.15-4.23-.24-1.23-.11-2.9-.25-3.46-1.67-.24-.58-.32-1.46,.46-2.57,.21-.29,.43-.65,.69-1.08,.22-.36,.42-.8,.6-1.31,.13-.36,.17-.74,.13-1.16-.06-1.11-.34-2.81-.83-5.12-.51-2.42-1.12-5.22-1.82-8.4-.14-.56-.51-1.44-2.04-2.08-1.31-.54-2.72-.82-4.21-.82-.2,0-.4,0-.6,.01-1.72,.08-3.36,.51-4.86,1.27-1.23,.62-1.92,1.44-2.17,2.57-.7,2.89-1.27,5.48-1.72,7.75-.44,2.21-.72,3.84-.84,4.87-.03,.37,.01,.75,.14,1.11,.18,.51,.38,.94,.59,1.3,.25,.41,.47,.73,.66,.97,.98,1.23,.83,2.2,.53,2.81-.59,1.18-1.87,1.32-3.35,1.49-1.17,.13-2.57,.23-4.28,.3-.84,.03-1.71,.05-2.61,.05s-1.82-.02-2.77-.05c-1.9-.06-3.65-.18-5.19-.35-1.64-.17-2.92-.4-3.91-.69-1.19-.35-1.95-.97-2.25-1.85-.26-.76-.12-1.59,.37-2.28,.25-.34,.59-.6,1-.73,.99-.33,1.79-.69,2.38-1.07,.61-.39,1.25-.94,1.91-1.62,.59-.61,1.09-1.44,1.51-2.47,.47-1.3,1.11-3.25,1.86-5.72,.77-2.51,1.57-5.2,2.4-8.05Zm17-9.55c1.37,.05,2.72,.08,4.05,.08,1.12,0,2.16,0,3.13-.03-.32-1.35-.64-2.83-.95-4.42-.51-2.59-1.01-5.22-1.5-7.87-.33-1.82-.68-3.61-1.03-5.32-.36,1.69-.73,3.45-1.1,5.27-.55,2.65-1.09,5.27-1.64,7.85-.34,1.6-.66,3.09-.96,4.44Zm39.48,81.34c-1.16-1.96-2.53-3.74-4.07-5.27-1.51-1.5-3.16-2.86-4.91-4.04-1.63-1.09-3.25-2.15-4.82-3.14-1.48-.93-2.86-1.88-4.11-2.8-1.07-.79-1.89-1.64-2.43-2.52-.47-.77-.69-1.61-.66-2.54,.03-.97,.52-2.26,1.38-3.71,.7-1.1,1.51-1.92,2.49-2.5,.64-.39,1.25-.57,1.85-.57,.17,0,.35,.02,.51,.04,.74,.14,1.34,.54,1.9,1.26,.35,.45,.96,1.62,1.21,4.47,.1,1.14-.01,1.51-.01,1.52-.11,.35-.19,.47-.19,.47h0c-.14,.17-.24,.25-.3,.3-.4,.31-1.07,1.04-1.07,2.35,0,.54,.22,1.06,.61,1.44,.37,.36,.87,.56,1.39,.56,.02,0,.05,0,.07,0,.32-.01,.64-.02,.95-.02,.79,0,1.59,.04,2.37,.11,.71,.07,1.39,.1,2.02,.1,.52,0,1.02-.02,1.48-.07,1.32-.13,2.4-.55,3.21-1.25,.71-.61,1.5-1.81,1.21-4.08-.28-1.89-.68-3.71-1.17-5.41-.54-1.85-1.36-3.5-2.43-4.92-1.1-1.45-2.54-2.65-4.28-3.57-1.73-.92-3.9-1.48-6.47-1.68-.54-.04-1.07-.06-1.6-.06-1.93,0-3.82,.29-5.61,.87-2.26,.73-4.29,1.82-6.01,3.24-1.74,1.43-3.13,3.16-4.14,5.14-1.03,2.03-1.52,4.21-1.47,6.46,.05,2.69,.66,5.02,1.81,6.92,1.08,1.78,2.47,3.39,4.12,4.76,1.56,1.3,3.28,2.53,5.11,3.65,1.69,1.04,3.36,2.2,4.97,3.44,1.54,1.18,2.94,2.56,4.16,4.1,1.14,1.43,1.98,3.26,2.5,5.44,.48,2.04,.57,4.13,.27,6.19-.3,2.04-.98,3.92-2.02,5.59-1.04,1.66-2.47,3.09-4.27,4.25-1.78,1.15-3.96,1.88-6.48,2.16-.77,.08-1.55,.12-2.32,.12-1.54,0-3.1-.17-4.63-.5-2.3-.49-4.32-1.26-6.02-2.29-1.6-.97-2.82-2.15-3.62-3.5-.56-.94-.76-1.89-.62-2.94,1.48-.82,2.56-1.8,3.21-2.94,.8-1.41,1.07-2.86,.81-4.33-.25-1.35-.85-2.58-1.79-3.64-.38-.43-.79-.8-1.22-1.13,.4,.03,.74,.05,1.03,.06,.32,.01,.61,.02,.87,.02,.29,0,.53,0,.73-.02,.63-.04,1.09-.15,1.48-.34,.81-.4,1.31-1.21,1.31-2.01,.05-1.13,.05-2.32,0-3.54-.05-1.18-.12-2.29-.21-3.3-.09-.98-.19-1.8-.28-2.46-.1-.73-.38-2.66-2.25-2.66-1.25,0-1.9,1.05-2.11,1.39-.16,.26-.36,.57-.61,.91-.2,.29-.44,.57-.7,.82-.1,.1-.2,.17-.3,.21-.3,.08-.89,.19-2.05,.33-1.04,.13-2.11,.2-3.19,.22h-.45c-.76,0-1.47-.04-2.09-.12-.04-.53-.1-1.14-.17-1.81-.1-1.02-.15-2.01-.13-2.93,.02-.66,.09-1.24,.22-1.73,.5,.01,.81,.04,.99,.07,.39,.06,.73,.12,1.02,.19,.17,.04,.32,.08,.43,.13,.33,.15,.68,.27,1.04,.34,.02,.01,.04,.04,.07,.06,.23,.23,.44,.46,.6,.68,.19,.25,.35,.46,.48,.65,.66,.98,1.45,1.18,2,1.18,2.08,0,2.32-2.33,2.43-3.46,.12-1.17,.18-2.46,.18-3.82s-.06-2.65-.18-3.83c-.11-1.12-.35-3.45-2.43-3.45-.55,0-1.34,.21-2.01,1.2-.11,.17-.27,.38-.46,.63-.17,.22-.38,.45-.61,.68h0c-.17,.01-.38,.02-.62,.03-.28,.01-.57,.02-.87,.02s-.62,0-.95-.02c-.52-.02-1.01-.03-1.47-.05,0-.16-.01-.34-.01-.56,0-1.42,.04-1.86,.05-1.99,.03-.21,.05-.38,.07-.47,.06-.2,.12-.44,.18-.74,0-.04,.02-.09,.03-.16,1.89-.08,3.51-.14,4.84-.15h.27c1.33,0,2.39,.13,3.17,.41,.13,.04,.27,.13,.42,.27,.26,.24,.49,.5,.68,.78,.22,.32,.4,.59,.52,.81,.53,.99,1.25,1.49,2.13,1.49,1.87,0,2.15-1.94,2.25-2.66,.09-.66,.19-1.49,.28-2.5,.09-.99,.16-2.09,.21-3.29,.05-1.2,.05-2.38,0-3.43,0-1.19-.9-2.47-2.88-2.47-.64,0-1.89,.07-3.93,.21-.04,0-.07,0-.11,.01-.13,.02-.34,.02-.64,.02-.39,0-.9-.01-1.51-.03-1.3-.04-2.79-.08-4.48-.1-1.68-.02-3.44-.03-5.28-.03s-3.56,.03-5.07,.1c-1.63,.08-2.91,.23-3.91,.46-.7,.16-1.66,.47-2.22,1.28-.2-.7-.82-1.73-2.71-1.8-.1,0-.22,0-.36,0-.73,0-1.92,.06-3.63,.18-1.46,.09-3.42,.16-5.84,.2-2.46,.05-5.01,.07-7.58,.07s-5.12-.02-7.55-.07c-2.4-.04-4.3-.11-5.7-.2-.97-.04-1.74-.09-2.31-.13-.45-.03-.84-.05-1.17-.05-.19,0-.35,0-.51,.02-.64,.04-1.09,.15-1.46,.34-.81,.4-1.31,1.21-1.31,2.01-.05,1.13-.05,2.32,0,3.54,.05,1.21,.12,2.32,.21,3.3,.09,.99,.19,1.81,.28,2.46,.1,.73,.38,2.67,2.25,2.67,1.25,0,1.9-1.05,2.11-1.39,.15-.25,.35-.52,.57-.83,.22-.3,.48-.61,.77-.91,.07-.07,.16-.16,.25-.2,.52-.12,1.55-.28,3.58-.35,.77-.03,1.58-.04,2.42-.04,.57,0,1.16,0,1.77,.02,.04,.73,.08,1.54,.11,2.43,.07,1.67,.11,3.51,.13,5.46l.07,5.72c.02,1.87,.03,3.5,.03,4.84-.04,2.04-.17,4.31-.37,6.75-.2,2.49-.42,4.76-.64,6.77-.07,.73-.24,1.12-.37,1.32-.27,.42-.53,.76-.78,1.01-.24,.21-.48,.35-.74,.43-.47,.15-.86,.48-1.11,.9-.37,.65-.42,1.4-.15,2.07,.49,1.18,1.71,1.5,2.11,1.61,.79,.21,1.76,.37,2.95,.5,1.13,.12,2.38,.2,3.73,.25,.68,.02,1.33,.04,1.96,.04s1.25-.01,1.84-.04c1.18-.05,2.2-.12,3.03-.21,.96-.11,2.96-.34,2.96-2.26,0-.96-.65-1.61-.93-1.89-.2-.2-.42-.45-.68-.74-.22-.26-.44-.56-.65-.91-.14-.24-.24-.48-.29-.78-.17-.82-.3-2.05-.41-3.66-.11-1.67-.2-3.62-.27-5.79-.07-2.15-.1-4.46-.1-6.88s0-4.82,.03-7.16c.02-2.29,.07-4.49,.13-6.52,.04-1.2,.09-2.29,.16-3.27,.62-.01,1.22-.02,1.8-.02,.84,0,1.65,.01,2.44,.04,2.05,.07,3.09,.23,3.61,.35,.09,.04,.19,.13,.25,.19,.31,.33,.56,.63,.78,.92,.23,.3,.42,.58,.58,.83,.21,.34,.86,1.39,2.11,1.39,1.87,0,2.14-1.94,2.25-2.66,.09-.66,.19-1.48,.28-2.47,.09-1.01,.15-2.13,.18-3.33,0-.4,.01-.8,.01-1.2,.19,.21,.42,.38,.69,.49,.54,.23,.84,.44,.98,.57,.24,.21,.51,.54,.76,.94,.13,.2,.3,.6,.37,1.35,.22,1.97,.4,3.67,.54,5.08,.13,1.36,.23,2.64,.3,3.82,.06,1.12,.1,2.2,.1,3.2s-.03,2.07-.1,3.16c-.07,1.13-.17,2.41-.3,3.83-.13,1.43-.31,3.14-.54,5.13-.06,.58-.19,1.03-.37,1.32-.26,.4-.51,.72-.76,.93-.15,.14-.45,.35-.99,.58-.74,.32-1.21,1.04-1.21,1.84h0c-.1,.53-.03,1.08,.22,1.55,.61,1.18,1.98,1.46,2.43,1.56,.99,.2,2.23,.34,3.8,.41,1.11,.05,2.33,.08,3.63,.08,.43,0,.87,0,1.33,0,1.71-.02,3.35-.05,4.92-.1-.53,.52-1,1.17-1.4,1.94-1.71,3.26-2.44,6.46-2.19,9.49,.25,3,1.25,5.77,2.96,8.25,1.67,2.41,3.93,4.5,6.74,6.19,2.74,1.66,5.82,2.88,9.13,3.63,2.33,.52,4.77,.79,7.26,.79h0c1.04,0,2.1-.05,3.17-.14,3.65-.31,7.26-1.3,10.71-2.92,2.5-1.17,4.72-2.72,6.59-4.6,1.86-1.86,3.39-3.96,4.54-6.23,1.15-2.28,1.94-4.73,2.36-7.29,.42-2.58,.4-5.18-.04-7.73-.45-2.63-1.28-4.99-2.49-7.02ZM126.03,243.71c-1.04-.17-2.31-.29-3.79-.36-1.46-.06-2.99-.1-4.56-.1s-3.11,.05-4.47,.15c-1.48,.11-2.67,.31-3.63,.62-1.1,.35-1.82,.95-2.14,1.77-.19,.48-.21,.99-.09,1.48-.05,.9-.08,1.77-.08,2.58,0,.74-.02,1.46-.05,2.16-.04,.78-.05,1.3-.05,1.57,0,1.18,.92,2.1,2.08,2.1,.41,0,.82-.12,1.24-.36,.23-.13,.54-.31,.93-.54,.37-.21,.78-.44,1.23-.68,.27-.14,.53-.23,.85-.27,1.12-.17,2.2-.3,3.22-.39,.03,1.43,.03,2.92,.01,4.45-.03,1.87-.29,3.61-.78,5.18-.43,1.38-1.14,2.46-2.18,3.29-.77,.62-1.95,.94-3.49,.94-.31,0-.63-.01-.99-.04-1.51-.1-2.96-.73-4.43-1.93-.97-.8-1.9-1.97-2.77-3.48-.89-1.55-1.63-3.49-2.19-5.79-.58-2.36-.98-5.13-1.2-8.22-.22-3.11-.17-6.63,.14-10.47,.31-4.19,.92-7.99,1.81-11.29,.88-3.27,1.94-6.05,3.14-8.27,1.14-2.11,2.37-3.68,3.66-4.69,1.01-.79,1.95-1.17,2.88-1.17,.09,0,.19,0,.25,0,.63,.06,1.32,.14,2.07,.23,.54,.07,1.04,.21,1.47,.43,.32,.16,.58,.4,.8,.74,.08,.12,.26,.51,.21,1.49-.16,3.22,.47,5.51,1.91,6.99,1.28,1.32,2.82,2.01,4.44,2.01,.2,0,.41-.01,.61-.03,1.74-.18,3.35-1.05,4.78-2.59,1.45-1.57,2.15-3.61,2.07-6.07-.08-2.15-.74-4.02-1.97-5.57-1.11-1.4-2.49-2.59-4.11-3.54-1.57-.92-3.3-1.62-5.15-2.08-1.76-.44-3.44-.73-5.02-.86-.76-.07-1.52-.1-2.27-.1-3.15,0-6.25,.59-9.21,1.76-3.65,1.44-6.83,3.56-9.47,6.32-2.24,2.37-3.93,5.77-5.19,10.41-1.18,4.39-1.95,9.35-2.28,14.73-.19,2.77-.29,5.68-.29,8.65s.2,5.99,.6,8.88c.4,2.95,1.12,5.78,2.13,8.43,1.05,2.76,2.57,5.19,4.51,7.22,1.95,2.05,4.45,3.7,7.42,4.92,2.81,1.15,6.2,1.73,10.08,1.73,.22,0,.43,0,.62,0,2.98,0,5.68-.48,8.07-1.42,.51,.23,1.04,.36,1.41,.45,1.04,.25,2.18,.41,3.38,.48,.28,.02,.55,.02,.83,.02,.97,0,1.91-.11,2.79-.32,1.83-.44,2.93-1.72,2.93-3.43,0-.69,.02-1.81,.05-3.35,.03-1.57,.05-3.31,.05-5.2s.03-3.8,.1-5.77c.06-2.03,.1-3.92,.1-5.61s.01-3.01,.05-4.05c.03-1.09,.05-1.67,.05-1.73,0-1.88-1.95-2.21-3.12-2.4Zm92.8,55.83c.89,4.61,1.12,10.36,.71,17.09-.19,2.6-.58,5.15-1.17,7.59-.62,2.57-1.61,4.89-2.96,6.91-1.4,2.09-3.26,3.79-5.54,5.04-2.15,1.18-4.77,1.78-7.78,1.78-.24,0-.48,0-.73-.01-2.98-.05-5.59-.55-7.75-1.49-2.18-.95-4-2.23-5.43-3.81-1.4-1.55-2.5-3.36-3.26-5.37-.73-1.92-1.24-3.97-1.53-6.09-.28-2.07-.43-4.21-.43-6.37s.07-4.18,.21-6.17c.23-3.84,.78-7.38,1.62-10.51,.91-3.37,2.16-5.83,3.81-7.54,1.47-1.52,3.22-2.76,5.19-3.7,1.96-.93,4.04-1.51,6.17-1.74,.59-.06,1.19-.09,1.79-.09,1.59,0,3.22,.22,4.86,.66,2.26,.6,4.44,1.67,6.49,3.16,2.85,2.12,4.78,5.7,5.73,10.65Zm-10.8,6.24c-.3-2.88-.8-5.37-1.49-7.38-.66-1.92-1.45-3.42-2.34-4.46-.49-.58-1.24-1.29-2.01-1.38-.08,0-.15-.01-.22-.01-.48,0-.98,.21-1.54,.63-.84,.64-1.65,1.67-2.41,3.06-.82,1.5-1.55,3.41-2.16,5.66-.62,2.28-1.04,4.9-1.26,7.78-.39,4.38-.29,8.12,.31,11.15,.58,2.95,1.4,5.25,2.45,6.83,.91,1.38,1.9,2.21,2.94,2.49,.25,.07,.49,.1,.73,.1,.65,0,1.3-.25,1.98-.77,1.14-.87,2.19-2.43,3.13-4.64,.99-2.34,1.65-5.46,1.95-9.29,.26-3.55,.24-6.84-.06-9.76Zm172.51-26.29c1.12,1.43,1.6,3.14,1.43,5.09-.18,1.98-1.1,3.67-2.73,5.04-1.14,.97-2.53,1.63-4.11,1.96-1.04,.21-2.1,.32-3.15,.32h0c-.4,0-.8-.01-1.2-.04-1.48-.11-2.94-.45-4.33-1-1.44-.56-2.68-1.32-3.7-2.25-2.1-1.88-3.61-4.19-4.45-6.85-.77-2.43-1.33-5.03-1.66-7.72-.32-2.59-.61-5.23-.87-7.84-.24-2.4-.8-4.69-1.68-6.79-.84-2-2.16-3.79-3.94-5.33-1.75-1.52-4.38-2.68-7.82-3.43-.88-.22-1.62-.32-2.24-.32-.04,0-.07,0-.11,0,.12,3.26,.24,6.28,.36,8.99,.12,2.81,.33,4.91,.63,6.26,.09,.51,.27,.93,.54,1.34,.36,.55,.72,1.04,1.08,1.46,.38,.43,.71,.8,1,1.08,.56,.57,1.08,1.2,1.08,2.09,0,1.98-2.08,2.21-3.46,2.37-1.17,.13-2.55,.23-4.23,.3-.83,.03-1.69,.05-2.59,.05s-1.83-.02-2.79-.05c-1.93-.07-3.71-.18-5.28-.34-1.66-.17-2.98-.39-4.03-.68-.45-.12-1.85-.5-2.38-1.78-.29-.7-.23-1.5,.17-2.19,.25-.43,.64-.75,1.11-.9,.49-.16,.94-.42,1.37-.8,.4-.4,.81-.93,1.23-1.59,.34-.52,.56-1.27,.65-2.23,.13-1.38,.27-2.92,.43-4.58,.16-1.64,.3-3.3,.43-4.98,.13-1.68,.24-3.34,.33-4.98,.09-1.63,.14-3.16,.14-4.57,0-2.1-.02-4.58-.05-7.44l-.09-8.61c-.03-2.86-.1-5.56-.19-8.03-.09-2.45-.23-4.36-.42-5.68-.1-1-.33-1.74-.68-2.25-.43-.62-.89-1.14-1.37-1.52-.51-.42-1.06-.7-1.71-.88-.5-.14-.92-.47-1.18-.93-.39-.68-.45-1.47-.17-2.16,.51-1.29,1.93-1.71,2.39-1.85,1.1-.33,2.48-.56,4.21-.7,1.61-.13,3.39-.23,5.29-.29,.97-.03,1.91-.05,2.82-.05s1.8,.02,2.66,.05c5.67,.06,10.7,.51,14.87,1.33,4.44,.87,8.17,2.77,11.07,5.66,2.53,2.52,4.35,5.57,5.41,9.07,1.04,3.44,1.35,6.93,.94,10.38-.42,3.46-1.58,6.76-3.46,9.8-1.56,2.52-3.63,4.62-6.16,6.26,1.35,.8,2.53,1.82,3.52,3.05,1.82,2.26,3.2,4.9,4.1,7.84,.87,2.83,1.45,5.8,1.71,8.83,.26,2.95,.44,5.62,.54,7.94,.07,1.6,.14,2.96,.22,4.08,1.79-.99,3.4-1.47,4.91-1.47,.18,0,.36,0,.53,.02,2.2,.17,3.91,1.01,5.07,2.48Zm-25.01-51.19c.09-2.73-.37-5.34-1.34-7.74-.96-2.35-2.42-4.33-4.35-5.89-1.86-1.5-4.11-2.23-6.87-2.23-1.26,0-1.84,.11-2.07,.17h-.01c-.04,.14-.09,.39-.1,.83-.04,.85-.12,1.94-.25,3.23-.12,1.44-.23,3.23-.33,5.3-.09,2.05-.16,4.25-.19,6.53-.03,2.32-.05,4.75-.05,7.29v5.8c.75,.07,1.48,.11,2.17,.11,2.23,0,4.17-.39,5.78-1.16,2.51-1.21,4.33-2.82,5.58-4.95,1.26-2.15,1.95-4.6,2.03-7.27Zm-173.7,103.58c-.22-.25-.43-.55-.64-.9-.15-.24-.24-.49-.31-.84-.2-.88-.35-2.29-.46-4.2-.11-1.98-.2-4.25-.27-6.75-.07-2.5-.09-5.14-.07-7.85,.02-2.76,.07-5.39,.13-7.82,.07-2.43,.16-4.63,.27-6.54,.13-2.28,.29-3.38,.41-3.96,.05-.26,.14-.5,.29-.75,.21-.35,.43-.66,.64-.9,.26-.3,.49-.55,.68-.75,.28-.28,.92-.92,.92-1.89,0-1.92-2-2.15-2.96-2.26-.83-.09-1.85-.17-3.03-.21-.59-.02-1.21-.04-1.85-.04s-1.3,.01-1.99,.04c-1.37,.05-2.64,.13-3.76,.25-1.21,.12-2.17,.29-2.94,.5-.39,.11-1.58,.44-2.06,1.6-.27,.66-.22,1.41,.15,2.06,.26,.45,.69,.79,1.19,.93,.37,.11,.69,.27,.99,.51,.3,.24,.58,.56,.85,.95,.19,.28,.32,.73,.39,1.35,.13,.93,.22,2.27,.29,3.97,.07,1.77,.12,3.67,.17,5.69,.04,2.02,.08,4.05,.1,6.07,.02,1.76,.03,3.32,.03,4.62-.78-1.55-1.54-3.12-2.29-4.69-.95-1.98-1.87-3.93-2.77-5.85-.9-1.9-1.7-3.66-2.42-5.28-.72-1.62-1.35-3.05-1.89-4.29-.53-1.21-.9-2.11-1.09-2.64-.11-.33-.12-.54-.11-.66,.03-.32,.09-.53,.14-.64,.12-.3,.21-.47,.26-.56,.26-.43,.49-.86,.49-1.44,0-.21-.03-.43-.1-.63-.49-1.47-1.97-1.58-3.68-1.7-1.29-.09-2.78-.14-4.45-.14-.92,0-1.86,.01-2.83,.03-1.03,.03-1.91,.07-2.7,.14-.89,.08-1.63,.19-2.27,.36-.59,.15-1.31,.38-1.85,.9-.45,.35-.74,.83-.85,1.37-.13,.64,.03,1.29,.44,1.83,.26,.35,.63,.6,1.05,.72,.37,.11,.69,.27,.99,.51,.3,.24,.58,.56,.85,.95,.19,.28,.32,.72,.39,1.35,.13,.93,.22,2.26,.29,3.97,.07,1.73,.11,3.64,.13,5.67l.07,6.09c.02,2.02,.03,3.78,.03,5.26,0,1-.03,2.08-.1,3.2-.07,1.16-.15,2.34-.23,3.52-.09,1.18-.19,2.36-.3,3.52-.11,1.18-.22,2.27-.3,3.24-.07,.73-.24,1.12-.37,1.32-.27,.42-.53,.76-.78,1.02-.24,.21-.48,.35-.74,.43-.47,.16-.87,.48-1.11,.91-.37,.65-.42,1.4-.15,2.06,.32,.77,1.02,1.31,2.06,1.6,.77,.21,1.74,.38,2.93,.5,1.13,.12,2.39,.2,3.77,.25,.69,.02,1.35,.04,1.99,.04s1.26-.01,1.85-.04c1.18-.05,2.2-.12,3.03-.21,.96-.11,2.96-.34,2.96-2.26,0-.96-.65-1.61-.93-1.89-.2-.2-.42-.45-.68-.74-.23-.27-.47-.59-.72-.97-.15-.23-.24-.45-.29-.72-.21-1.03-.37-2.69-.47-4.95-.11-2.36-.19-5-.23-7.86-.04-2.69-.04-5.47,0-8.28v.03c.63,1.37,1.23,2.67,1.83,3.91,.6,1.25,1.19,2.39,1.72,3.31,.54,1.03,1.1,2.13,1.68,3.29,.58,1.17,1.17,2.35,1.75,3.54,.58,1.19,1.13,2.36,1.63,3.48,.52,1.18,1.01,2.27,1.45,3.24,.41,.95,.38,1.31,.38,1.31-.03,.15-.06,.27-.08,.36-.19,.07-.35,.14-.49,.2-.36,.18-.66,.46-.86,.81-.37,.65-.42,1.4-.15,2.06,.32,.78,1.02,1.31,2.06,1.6,.77,.21,1.74,.38,2.93,.5,1.13,.12,2.39,.2,3.77,.25,.69,.02,1.35,.04,1.99,.04s1.26-.01,1.85-.04c1.18-.05,2.2-.12,3.03-.21,.96-.11,2.96-.34,2.96-2.26,0-.96-.64-1.61-.93-1.89-.2-.2-.42-.45-.68-.74Zm-32.87-57.71c2.8,1.1,6.21,1.72,10.13,1.86,.35,.01,.7,.02,1.04,.02h0c3.6,0,6.74-.67,9.35-2,2.74-1.39,5.17-3.14,7.23-5.19,1.29-1.28,2.28-2.84,2.96-4.63,.63-1.67,1.07-3.55,1.32-5.59,.23-1.96,.34-4.09,.3-6.34-.03-2.16-.05-4.44-.05-6.89-.06-3.3-.08-6.71-.05-10.13,.03-3.4,.09-6.67,.19-9.71,.1-3.01,.22-5.69,.38-7.96,.15-2.24,.32-3.89,.5-4.9,.08-.42,.24-.81,.5-1.19,.37-.54,.75-1.03,1.11-1.45,.43-.49,.79-.92,1.09-1.28,.46-.56,.89-1.19,.89-1.99,0-1.98-2.08-2.21-3.46-2.37-1.18-.13-2.57-.22-4.27-.25-.81-.02-1.66-.02-2.54-.02s-1.78,0-2.73,.02c-1.92,.03-3.69,.13-5.27,.3-1.66,.17-2.98,.39-4.06,.68-.47,.13-1.9,.51-2.44,1.8-.29,.7-.23,1.5,.16,2.19,.23,.4,.6,.71,1.03,.87,.83,.31,1.47,.64,1.92,.99,.45,.35,.91,.87,1.37,1.53,.38,.54,.62,1.29,.71,2.21,.13,1.26,.29,3.45,.47,6.52,.19,3.08,.33,6.56,.43,10.35,.1,3.8,.14,7.71,.14,11.62s-.1,7.36-.28,10.28c-.18,2.52-.59,4.83-1.22,6.87-.55,1.79-1.79,3.5-3.69,5.07-1.29,.92-2.5,1.37-3.7,1.37-.52,0-1.05-.09-1.53-.24-1.94-.67-3.31-1.71-4.19-3.17-.99-1.63-1.68-3.45-2.05-5.41-.39-2.06-.57-4.21-.54-6.39,.03-2.34,.05-4.47,.05-6.43-.06-3.3-.08-6.69-.05-10.08,.03-3.42,.1-6.65,.19-9.61,.1-2.98,.22-5.64,.38-7.91,.15-2.23,.32-3.88,.5-4.89,.08-.42,.24-.81,.5-1.18,.38-.55,.75-1.03,1.11-1.45,.4-.46,.76-.86,1.07-1.2,.52-.57,1.01-1.22,1.01-2.07,0-1.98-2.08-2.21-3.46-2.37-1.18-.13-2.57-.22-4.27-.25-.81-.02-1.66-.02-2.55-.02s-1.8,0-2.76,.02c-1.95,.03-3.74,.13-5.31,.3-1.66,.17-2.98,.4-4.02,.68-.46,.13-1.85,.51-2.38,1.79-.29,.7-.23,1.5,.17,2.19,.22,.39,.58,.7,1,.86,.78,.31,1.4,.65,1.86,1,.45,.35,.91,.87,1.37,1.53,.38,.54,.62,1.29,.72,2.29,.18,1.34,.32,3.23,.42,5.64,.09,2.43,.16,5.11,.19,7.98l.1,8.61c.03,2.86,.05,5.34,.05,7.44,0,2.31,.01,4.58,.05,6.82,.03,2.3,.2,4.54,.5,6.66,.31,2.19,.85,4.28,1.61,6.19,.8,2.02,1.97,3.85,3.55,5.49,1.97,1.9,4.41,3.42,7.24,4.53Z" style="fill:#fff;"/><path id="c" d="M329.02,367.64c-.05-.1-.1-.2-.15-.3,.58-.44,1.13-.9,1.69-1.37h7.06c.46,0,.84,.37,.84,.84s-.37,.84-.84,.84h-8.59Zm42.05-1.67h-5.58c-.46,0-.84,.37-.84,.84s.37,.84,.84,.84h5.58c.46,0,.84-.37,.84-.84s-.37-.84-.84-.84Zm-13.94,9.87c.46,0,.84-.37,.84-.84s-.37-.84-.84-.84h-24.97c.25,.55,.5,1.11,.75,1.67h24.23Zm-84.3-190.33c.15,.05,.3,.09,.44,.14,.14-.06,.29-.09,.44-.14h-.88Zm75.93,149.32c.46,0,.84-.37,.84-.84s-.37-.84-.84-.84h-3.13c0,.56-.01,1.11-.03,1.67h3.16Zm2.79-32.81c.27,0,.51-.14,.66-.34-.45-.43-.89-.88-1.32-1.33h-8.07c.05,.56,.08,1.12,.09,1.67h8.64Zm-9.39,6.53c-.15,.57-.31,1.12-.5,1.67h23.83c.44,0,.79-.34,.82-.77-.99-.26-1.97-.56-2.94-.9h-21.21Zm-200.27,131.24h-52.5c-.46,0-.84,.37-.84,.84s.37,.84,.84,.84h53.09c-.2-.56-.41-1.11-.59-1.67Zm243.96-122.2c0-.46-.37-.84-.84-.84h-41.83c-.31,0-.56,.17-.71,.42,.17,.4,.33,.8,.48,1.21,.07,.02,.15,.05,.23,.05h41.83c.46,0,.84-.37,.84-.84Zm-67.64-132.08l-11.32-6.53-1.33-.77-15.71-9.07-.07-.04-11.32-6.53-2.33-1.34-13.99-8.07-.8-.46-1.55-.89,.03,3.33,10,5.77h-9.96v1.67h12.86l11.32,6.53h-2.21c-.46,0-.84,.37-.84,.84s.37,.84,.84,.84h5.11l11.32,6.53h-35.94c-.46,0-.84,.37-.84,.84s.37,.84,.84,.84h38.84l11.32,6.53h-10.81c.41,.15,.82,.31,1.22,.48,.8,.35,1.56,.76,2.3,1.19h10.19l.16,.09c1-.46,2.07-.88,3.24-1.23,.08-.03,.17-.04,.26-.07l-.18-.1-.64-.37ZM108.92,447.99c-.46,0-.84,.37-.84,.84s.37,.84,.84,.84h5.58c.46,0,.84-.37,.84-.84s-.37-.84-.84-.84h-5.58Zm285.3-138.61c0-.46-.37-.84-.84-.84h-5.58c-.46,0-.84,.37-.84,.84s.37,.84,.84,.84h5.58c.46,0,.84-.37,.84-.84Zm-2.79,49.21c0-.46-.37-.84-.84-.84h-52.66c-.39,.57-.8,1.12-1.22,1.67h53.88c.46,0,.84-.37,.84-.84Zm-39.88-9.04h-9.16c-.23,.56-.47,1.12-.72,1.67h9.89c.46,0,.84-.37,.84-.84s-.37-.84-.84-.84Zm-41.77,124.7c.26-.02,.48-.16,.61-.36-.21,.12-.41,.24-.61,.36Zm27.6-32.8h14.17c.46,0,.84-.37,.84-.84s-.37-.84-.84-.84h-13.58c-.19,.57-.4,1.12-.6,1.67ZM75.46,343.03h46.29c-.03-.07-.06-.13-.09-.2-.2-.49-.38-.98-.54-1.47h-45.66c-.46,0-.84,.37-.84,.84s.37,.84,.84,.84Zm261.32,105.8c0,.46,.37,.84,.84,.84h27.89c.46,0,.84-.37,.84-.84s-.37-.84-.84-.84h-27.89c-.46,0-.84,.37-.84,.84Zm12.83-57.42c0-.46-.37-.84-.84-.84h-10.48c.16,.56,.32,1.11,.48,1.67h10c.46,0,.84-.37,.84-.84Zm41.83-65.62c0-.46-.37-.84-.84-.84h-45.77c.07,.36,.14,.72,.21,1.08,.03,.2,.06,.4,.09,.59h45.48c.46,0,.84-.37,.84-.84Zm-2.51-112.06c.3,.98,.54,1.96,.77,2.95l29.43,16.98v18.2h1.62c.42,0,.84,.03,1.25,.07v-19.93l-1.43-.83-31.98-18.45c.11,.33,.23,.66,.34,1Zm8.85,21h-7.71c-.11,.56-.22,1.12-.35,1.67h10.96l6.85,3.95v2.58h-11.35c-.46,0-.84,.37-.84,.84s.37,.84,.84,.84h11.35v6.53h-14.14c-.46,0-.84,.37-.84,.84s.37,.84,.84,.84h.51c1.87-.62,3.85-.95,5.93-.95h4.86c.4,0,.79,.02,1.19,.06,.39-.04,.79-.06,1.19-.06h3.33v-13.16l-1.43-.83-18.13-10.46c-.02,1.07-.09,2.14-.19,3.2l7.13,4.11Zm-43.44,98.43c-.46,0-.84,.37-.84,.84s.37,.84,.84,.84h22.31c.46,0,.84-.37,.84-.84s-.37-.84-.84-.84h-22.31Zm22.31,59.09c.46,0,.84-.37,.84-.84s-.37-.84-.84-.84h-22.31c-.46,0-.84,.37-.84,.84s.37,.84,.84,.84h22.31Zm28.72,40.18c0-.46-.37-.84-.84-.84h-55.78c-.46,0-.84,.37-.84,.84s.37,.84,.84,.84h55.78c.46,0,.84-.37,.84-.84Zm-25.94-50.05h-43.88c.21,.55,.41,1.11,.61,1.67h43.27c.46,0,.84-.37,.84-.84s-.37-.84-.84-.84Zm25.94,17.24c0-.46-.37-.84-.84-.84h-55.78c-.46,0-.84,.37-.84,.84s.37,.84,.84,.84h55.78c.46,0,.84-.37,.84-.84Zm-52.99,8.2c0-.46-.37-.84-.84-.84h-10c.06,.56,.12,1.11,.17,1.67h9.84c.46,0,.84-.37,.84-.84Zm27.05,15.57h-37.86c-.06,.56-.14,1.12-.21,1.67h38.07c.46,0,.84-.37,.84-.84s-.37-.84-.84-.84Zm-232.31,50.05c0,.46,.37,.84,.84,.84h21.88c-.95-.54-1.88-1.1-2.78-1.67h-19.09c-.46,0-.84,.37-.84,.84ZM215.76,154.37l-11.32,6.53-1.42,.82-12.79,7.38-1.17,.67-15.74,9.08-.21,.12-10,5.77c.36-.04,.7-.09,1.07-.13,1.74-.18,3.56-.3,5.51-.36l9.15-5.28h8.17c.46,0,.84-.37,.84-.84s-.37-.84-.84-.84h-5.27l25.54-14.73h4.83c.46,0,.84-.37,.84-.84s-.37-.84-.84-.84h-1.93l9.06-5.23,.03-3.33-2.14,1.24-1.38,.79ZM105.8,456.19l.1,.05,28.34,16.35,.59,.34,27.85,16.07,2.9,1.67,11.32,6.53,.23,.14,28.2,16.27,1.29,.75,12.93,7.46,1.4,.81,12.82,7.39,.61,.35,4.2,2.42,1.43,.83,1.43-.83,16.12-9.3,.47-.27,13.75-7.93,1.78-1.03,13.15-7.59,.29-.17,15.21-8.78,.9-.52,12.17-7.02,2.05-1.18,11.32-6.53,.78-.45,27.65-15.95,2.9-1.67,12.3-7.1,1.92-1.11,12.77-7.37,.4-.23,12.36-7.13,2.46-1.42,6.77-3.91,1.43-.83v-131.75h-2.87v13.19h-5.78c-.46,0-.84,.37-.84,.84s.37,.84,.84,.84h5.78v6.53h-.2c-.46,0-.84,.37-.84,.84s.37,.84,.84,.84h.2v6.53h-14.14c-.46,0-.84,.37-.84,.84s.37,.84,.84,.84h14.14v6.53h-53.19c-.46,0-.84,.37-.84,.84s.37,.84,.84,.84h53.19v6.53h-39.24c-.46,0-.84,.37-.84,.84s.37,.84,.84,.84h39.24v6.53h-.2c-.46,0-.84,.37-.84,.84s.37,.84,.84,.84h.2v6.53h-14.14c-.46,0-.84,.37-.84,.84s.37,.84,.84,.84h14.14v6.53h-33.66c-.46,0-.84,.37-.84,.84s.37,.84,.84,.84h33.66v6.53h-11.35c-.46,0-.84,.37-.84,.84s.37,.84,.84,.84h11.35v6.53h-14.14c-.46,0-.84,.37-.84,.84s.37,.84,.84,.84h14.14v14.73h-39.24c-.46,0-.84,.37-.84,.84s.37,.84,.84,.84h39.24v6.53h-65.53c0,.56,0,1.11-.01,1.67h65.55v6.53h-11.35c-.46,0-.84,.37-.84,.84s.37,.84,.84,.84h11.35v8.6l-10.63,6.14h-28.61c-.46,0-.84,.37-.84,.84s.37,.84,.84,.84h25.71l-25.54,14.73h-25.27c-.46,0-.84,.37-.84,.84s.37,.84,.84,.84h22.37l-11.32,6.53h-31.26c-.58,.57-1.18,1.12-1.79,1.67h30.15l-11.32,6.53h-19.15c-.46,0-.84,.37-.84,.84s.37,.84,.84,.84h16.25l-11.32,6.53h-30.98c-1.8,.6-3.65,1.15-5.56,1.67h33.64l-11.32,6.53h-82.74c-.46,0-.84,.37-.84,.84s.37,.84,.84,.84h79.84l-11.32,6.53h-29.48c-.46,0-.84,.37-.84,.84s.37,.84,.84,.84h26.58l-11.96,6.9c-.15-.22-.39-.37-.68-.37h-27.89c-.46,0-.84,.37-.84,.84s.37,.84,.84,.84h26.31l-11.32,6.53h-34.51c-.46,0-.84,.37-.84,.84s.37,.84,.84,.84h31.61l-26.04,15.02-11.82-6.82h11.82c.46,0,.84-.37,.84-.84s-.37-.84-.84-.84h-14.72l-11.32-6.53h3.73c.46,0,.84-.37,.84-.84s-.37-.84-.84-.84h-6.63l-12.15-7.01c.05-.11,.09-.23,.09-.36,0-.46-.37-.84-.84-.84h-1.32l-11.32-6.53h65.63c.46,0,.84-.37,.84-.84s-.37-.84-.84-.84h-68.53l-11.32-6.53h40.8c.46,0,.84-.37,.84-.84s-.37-.84-.84-.84h-43.7l-11.32-6.53h33.1c-1.9-.52-3.75-1.08-5.53-1.67h-30.46l-11.46-6.61c.29-.13,.49-.42,.49-.76,0-.46-.37-.84-.84-.84h-2.41l-11.32-6.53h29.85c-.6-.55-1.19-1.1-1.77-1.67h-28.29c-.46,0-.84,.37-.84,.84,0,.09,.02,.18,.05,.26l-55.19-31.84v-.39h53.19c.46,0,.84-.37,.84-.84s-.37-.84-.84-.84h-53.19v-6.53h28.09c.46,0,.84-.37,.84-.84s-.37-.84-.84-.84h-28.09v-6.53h65.54c0-.56-.01-1.12,0-1.67H72.47v-6.53h.2c.46,0,.84-.37,.84-.84s-.37-.84-.84-.84h-.2v-6.53h53.19c.46,0,.84-.37,.84-.84s-.37-.84-.84-.84h-53.19v-14.73h28.09c.46,0,.84-.37,.84-.84s-.37-.84-.84-.84h-28.09v-6.53h5.78c.46,0,.84-.37,.84-.84s-.37-.84-.84-.84h-5.78v-14.73h39.24c.46,0,.84-.37,.84-.84s-.37-.84-.84-.84h-39.24v-6.53h.2c.46,0,.84-.37,.84-.84s-.37-.84-.84-.84h-.2v-22.93h39.24c.46,0,.84-.37,.84-.84s-.37-.84-.84-.84h-39.24v-6.53h33.66c.46,0,.84-.37,.84-.84s-.37-.84-.84-.84h-33.66v-6.53h14.14c.46,0,.84-.37,.84-.84s-.37-.84-.84-.84h-14.14v-5.21c-.93,.22-1.89,.37-2.87,.46v131.51l1.43,.83,34.77,20.06Zm46.24-90.23h-4.07c-.46,0-.84,.37-.84,.84s.37,.84,.84,.84h3.21c.29-.57,.58-1.12,.86-1.67Zm-29.17,91.9h28.23c-.4-.55-.79-1.11-1.18-1.67h-27.05c-.46,0-.84,.37-.84,.84s.37,.84,.84,.84Zm33.67-100.1h-28.1c-.46,0-.84,.37-.84,.84s.37,.84,.84,.84h27.15c.32-.57,.64-1.13,.95-1.67Zm-69.93,8.2c-.46,0-.84,.37-.84,.84s.37,.84,.84,.84h5.58c.46,0,.84-.37,.84-.84s-.37-.84-.84-.84h-5.58Zm-26.78-114.11c.35,0,.69,.03,1.04,.06v-18.26l1.92-1.11c.09-1.18,.19-2.34,.31-3.49l-3.67,2.12-1.43,.83v19.86h1.83Zm29.57,155.12c-.46,0-.84,.37-.84,.84s.37,.84,.84,.84h48.92c.05-.56,.11-1.12,.17-1.67h-49.09Zm329.73-87.61v120.97l-179.13,103.34L60.87,440.34v-118.65c-.21,.07-.43,.13-.65,.13-.59,0-1.16-.28-1.69-.79-.16,.27-.34,.54-.53,.8v120.18l1.43,.83,179.13,103.34,1.43,.83,1.43-.83,179.13-103.34,1.43-.83v-119.06c-1.11-1.02-2.08-2.22-2.87-3.57ZM142.62,184.19c1.03,0,2.02,0,2.96,.03,.32,0,.62,.02,.93,.03l72.87-42.04,.03-3.33-78.56,45.32c.6,0,1.2,0,1.77,0Zm83.44,321.21c-.46,0-.84,.37-.84,.84s.37,.84,.84,.84h5.58c.46,0,.84-.37,.84-.84s-.37-.84-.84-.84h-5.58Zm-150.6-114.84c-.46,0-.84,.37-.84,.84s.37,.84,.84,.84h22.31c.46,0,.84-.37,.84-.84s-.37-.84-.84-.84h-22.31ZM333.53,184.27c1.05-.03,2.08-.05,3.07-.05,.91,0,1.79,.02,2.66,.05l-79.57-45.9,.03,3.33,73.81,42.58ZM116.45,424.22c0,.46,.37,.84,.84,.84h21.29c-.07-.56-.14-1.12-.2-1.67h-21.09c-.46,0-.84,.37-.84,.84Zm-7.53-114h5.58c.46,0,.84-.37,.84-.84s-.37-.84-.84-.84h-5.58c-.46,0-.84,.37-.84,.84s.37,.84,.84,.84Zm-33.47,24.61h22.31c.46,0,.84-.37,.84-.84s-.37-.84-.84-.84h-22.31c-.46,0-.84,.37-.84,.84s.37,.84,.84,.84Zm39.04,0h5.57c0-.56,.03-1.12,.08-1.67h-5.65c-.46,0-.84,.37-.84,.84s.37,.84,.84,.84Zm104.53-157.52h-15.28c-.46,0-.84,.37-.84,.84s.37,.84,.84,.84h15.27l.02-1.67Zm.08-8.2h-20.94c-.46,0-.84,.37-.84,.84s.37,.84,.84,.84h20.93l.02-1.67ZM89.4,302.02h34.73c-.4-.54-.77-1.1-1.11-1.67h-33.61c-.46,0-.84,.37-.84,.84s.37,.84,.84,.84Zm4.74,72.99c0,.46,.37,.84,.84,.84h41.83c.46,0,.84-.37,.84-.84s-.37-.84-.84-.84h-41.83c-.46,0-.84,.37-.84,.84Zm20.36,17.24h26.84c.16-.56,.32-1.12,.48-1.67h-27.33c-.46,0-.84,.37-.84,.84s.37,.84,.84,.84Zm27.05,56.58c0,.46,.37,.84,.84,.84h3.63c-.28-.55-.55-1.11-.82-1.67h-2.81c-.46,0-.84,.37-.84,.84Zm-52.15-97.59h38.64c-.66-.52-1.29-1.08-1.88-1.67h-36.76c-.46,0-.84,.37-.84,.84s.37,.84,.84,.84Zm27.05,31.97c0,.46,.37,.84,.84,.84h26.68c.2-.56,.4-1.12,.61-1.67h-27.3c-.46,0-.84,.37-.84,.84Zm-1.95-15.57h27.89c.46,0,.84-.37,.84-.84s-.37-.84-.84-.84h-27.89c-.46,0-.84,.37-.84,.84s.37,.84,.84,.84ZM238,113.13h-3.75l.09-13.75h3.7l-.04,13.75Zm.09-29.16h-3.65l-.1,14.42h3.7l.04-14.42Zm7.98,100.86l-.07-8.58h-3.85l.03,8.6c1.31,0,2.61-.01,3.89-.02Zm-.69-86.45l-.12-14.42h-3.45l.05,14.42h3.51Zm.12,14.74l-.11-13.75h-3.51l.05,13.76h3.57Zm.31,38.93l-.09-11.43h-3.69l.04,11.44h3.74Zm-7.82-37.94h-3.76l-.08,12.27h3.8l.04-12.27Zm7.72,25.51l-.1-12.26h-3.64l.04,12.26h3.69Zm-.11-13.26l-.1-12.26h-3.58l.04,12.27h3.63Zm.27-28.01h2.63l-.22-14.42h-2.52l.12,14.42Zm-12.32,42.26h-3.31l-.15,11.44h3.38l.08-11.44Zm-.08,12.43h-3.39l-.14,11.11h3.45l.08-11.11Zm.17-25.68h-3.24l-.16,12.26h3.31l.08-12.26Zm4.3,0h-3.8l-.08,12.27h3.85l.04-12.27Zm-4.56,37.78h-3.46l-.13,10.11h3.52l.07-10.11Zm4.48-12.1h-3.9l-.08,11.11h3.94l.03-11.11Zm-.04,12.1h-3.94l-.07,10.11h3.98l.03-10.11Zm-.03,11.1h-3.98l-.06,8.56c1.32,.01,2.66,.02,4.02,.03l.03-8.59Zm11.54-24.2l-.18-11.43h-2.94l.09,11.44h3.03Zm-10.92-12.42h3.11l-.04-12.26h-3.03l-.04,12.26Zm-.04,12.43h3.19l-.04-11.44h-3.11l-.04,11.44Zm-.04,12.1h3.27l-.04-11.11h-3.2l-.03,11.11Zm-.03,11.1h3.35l-.04-10.11h-3.28l-.03,10.11Zm21.95,182.98c-1.17-1.7-2.18-3.47-3.04-5.3-.23,.15-.48,.28-.72,.42v10.12c-.02,3.33,2.72,6.02,6.1,6.02h9.59c-4.84-3.04-8.86-6.81-11.93-11.25Zm-21.76-245.11h2.93l-.05-13.76h-2.84l-.04,13.76Zm-5.18,63.13h-3.52l-.11,8.5c1.17,.02,2.37,.04,3.57,.05l.06-8.55Zm15.39-102.17h-2.31l-.6,8.87h2.5l.41-8.87Zm-10.25,52.29h3.02l-.04-12.26h-2.94l-.04,12.26Zm-.18,58.46c.64,0,1.27,0,1.92,0,.5,0,1,0,1.5,0l-.03-8.6h-3.35l-.03,8.6Zm10.67-58.48l-.19-12.26h-2.75l.1,12.26h2.84Zm-.21-13.26l-.21-13.75h-2.64l.11,13.75h2.74Zm-2.74,62.13l-.08-10.11h-3.8l.04,10.11h3.85Zm-.09-11.11l-.09-11.1h-3.75l.04,11.11h3.8Zm3.79,11.09l-.16-10.11h-3.13l.08,10.11h3.2Zm.15,9.52l-.13-8.53h-3.21l.07,8.58c1.1-.01,2.2-.03,3.27-.04Zm-.32-20.63l-.17-11.1h-3.04l.09,11.1h3.12Zm-.38-24.53l-.19-12.26h-2.84l.1,12.26h2.94Zm-10.56-55.66l-.04,14.42h2.83l-.05-14.42h-2.73Zm-.67,56.67h-3.85l-.08,11.44h3.9l.04-11.44Zm-10.52-.98h2.36l.16-12.26h-2.4l-.12,12.26Zm2.35,.99h-2.36l-.11,11.44h2.33l.15-11.44Zm-.16,12.43h-2.33l-.11,11.1h2.3l.14-11.1Zm-2.06-26.67h2.4l.16-12.26h-2.43l-.12,12.26Zm6.21-12.27h-3.16l-.16,12.27h3.23l.08-12.27Zm-6.08-.99h2.44l.17-13.76h-2.48l-.14,13.76Zm23.21,71.62c.4,0,.79-.01,1.17-.02l-.06-8.5h-1.76l.13,8.53c.17,0,.35,0,.52,0Zm-21.43-19.59h-2.29l-.1,10.11h2.27l.13-10.11Zm-1.63-66.77h2.48l.18-14.42h-2.52l-.14,14.42Zm20.14,257.78c-.16,.02-.33,.04-.5,.06l.13,16.27h.5l-.13-16.33Zm5.59,32.01c8.78-2.17,24.09-2.47,24.09-2.47l.02-13.23-24.39,.03,.11,7.2c1.11,.11,1.99,1.03,1.99,2.15,0,1.2-.99,2.18-2.21,2.18-1.22,0-2.21-.97-2.21-2.17,0-1.11,.85-2.01,1.93-2.15l-.11-7.2h-4.68l.06,7.2c1.11,.12,1.97,1.03,1.97,2.15,0,1.2-.99,2.18-2.21,2.18-1.22,0-2.21-.97-2.21-2.17,0-1.11,.86-2.02,1.95-2.15l-.06-7.2h-4.71l.03,7.2c1.1,.12,1.97,1.03,1.97,2.15,0,1.2-.99,2.18-2.21,2.18-1.22,0-2.21-.97-2.21-2.17,0-1.11,.86-2.02,1.95-2.15l-.03-7.2h-4.68l-.02,7.2c1.1,.13,1.95,1.04,1.95,2.15,0,1.2-1,2.18-2.21,2.18-1.22,0-2.21-.97-2.21-2.17,0-1.12,.87-2.03,1.97-2.15l.02-7.2h-4.7l-.05,7.21c1.09,.13,1.94,1.04,1.94,2.15,0,1.2-.99,2.18-2.21,2.18-1.22,0-2.21-.97-2.21-2.17,0-1.12,.87-2.04,1.98-2.16l.05-7.2h-4.69l.22-17.15c-.17-.04-.33-.08-.5-.12l-.22,17.28h.5l-.09,7.2c1.08,.14,1.93,1.04,1.93,2.15,0,1.2-.99,2.18-2.21,2.18-1.22,0-2.21-.97-2.21-2.17,0-1.12,.88-2.04,1.99-2.16l.09-7.2-24.83,.03-.02,13.23s13.4,.09,24.66,2.42c11.06,2.28,18.13,2.14,26.91-.03ZM218,49.6h-4.1c-3.74,1.26-3.79,8.6-.01,9.85h4.1c.88-.48,1.43-1.86,1.64-3.44h4.92c.06,4.17,.09,6.84,.09,6.84,3.28,3.34,3.33,6.69,3.33,6.69v3.56h2.63l.18-15.57c-1.28-.54-2.18-1.79-2.18-3.24,0-1.94,1.61-3.53,3.58-3.53,.11,0,.22,.02,.33,.03l-.42-9.33c-1.92-.05-3.48-1.6-3.48-3.51,0-1.94,1.61-3.53,3.58-3.53,.37,0,.72,.07,1.06,.17l-.94-9.47s-.07,.01-.1,.01c-1.97,0-3.58-1.58-3.58-3.52,0-1.94,1.61-3.53,3.58-3.53,1.97,0,3.58,1.58,3.58,3.52,0,1.74-1.3,3.18-2.98,3.47l.97,9.73c1.18,.58,2,1.76,2,3.14,0,1.13-.56,2.13-1.41,2.78l1.26,12.69c.07,.28,.12,.57,.12,.88,0,.06-.02,.12-.02,.18l1.85,18.62h4.92l3.71-32.53c-.74-.65-1.21-1.58-1.21-2.62,0-1.32,.76-2.47,1.86-3.07l1.12-9.81c-1.68-.29-2.96-1.73-2.96-3.46,0-1.94,1.61-3.53,3.58-3.53,1.97,0,3.58,1.58,3.58,3.52,0,1.94-1.61,3.53-3.58,3.53-.04,0-.08-.01-.12-.01l-1.09,9.52c.38-.13,.77-.22,1.19-.22,1.97,0,3.58,1.58,3.58,3.52,0,1.93-1.6,3.51-3.55,3.53l-.63,9.35c.19-.03,.39-.06,.59-.06,1.97,0,3.58,1.58,3.58,3.52,0,1.44-.89,2.69-2.16,3.23l-.72,15.58h2.02v-3.56s.06-3.34,3.35-6.69c0,0,.04-2.67,.1-6.84h5.65c.21,1.57,.75,2.95,1.63,3.42h4.1c3.78-1.26,3.74-8.6,.01-9.85h-4.1c-.8,.44-1.32,1.6-1.56,2.99h-5.67c.06-3.74,.15-8.21,.25-12.9h5.36c.21,1.57,.75,2.95,1.63,3.42h4.1c3.78-1.26,3.74-8.6,.01-9.85h-4.1c-.8,.44-1.32,1.6-1.56,2.99h-5.37c.1-4.35,.21-8.78,.34-12.9h4.97c.21,1.57,.75,2.95,1.63,3.42h4.1c3.78-1.26,3.74-8.6,.01-9.85h-4.1c-.8,.44-1.32,1.6-1.56,2.99h-4.94c.26-7.57,.56-13.53,.89-14.98,0,0-2.08,.22-7.12-2.58C244.3-.5,238.77,.04,238.77,.04c0,0-5.98,.22-9.37,2.28-3.4,2.05-6.45,2.6-6.45,2.6,.33,1.45,.62,7.41,.86,14.98h-4.21c-.25-1.38-.76-2.54-1.56-2.97h-4.1c-3.74,1.26-3.79,8.6-.01,9.85h4.1c.89-.48,1.43-1.86,1.64-3.44h4.24c.11,4.11,.22,8.54,.31,12.9h-4.64c-.25-1.38-.76-2.54-1.56-2.97h-4.1c-3.74,1.26-3.79,8.6-.01,9.85h4.1c.89-.48,1.43-1.86,1.64-3.44h4.64c.09,4.68,.16,9.16,.22,12.9h-4.94c-.24-1.38-.76-2.54-1.56-2.97Zm8.96,135.1c.7,.02,1.45,.04,2.24,.05l.11-8.49h-2.26l-.08,8.43Zm95.1,186.9c-.35,.18-.7,.36-1.06,.53-.25,.12-.5,.22-.75,.33,7.62,15.15,15.2,35.94,10.05,57.82-7.86,33.39-34.89,47.66-90.37,47.72h-.36c-55.24,0-82.13-14.21-89.89-47.51-6.77-29.01,8.87-56.17,17.27-70.76,.69-1.2,1.32-2.29,1.89-3.31-.76-.05-1.49-.11-2.19-.19-8.27,14.52-26.26,43.21-18.92,74.71,7.83,33.58,34.7,49.05,91.84,49.05,.12,0,.24,0,.36,0,57.39-.07,84.39-15.59,92.31-49.26,5.31-22.56-2.37-43.65-10.18-59.14Zm-69.07-16.61c-.17,.06-.33,.13-.5,.18l.27,17.32h.5l-.27-17.51Zm-15.25,1.57c-.17,0-.32-.02-.49-.02l-.05,15.98h.5l.05-15.95h-.01Zm-5.63-.41l-.11,16.36h.5l.11-16.3c-.17-.02-.33-.04-.5-.06Zm1.74-256.78h-3.07l-.17,13.76h3.15l.09-13.76Zm8.97,257.18c-.16,0-.33,0-.5,.01l.06,15.93h.5l-.06-15.94Zm-12.23-282.45h-2.53l-.09,8.87h2.52l.1-8.87Zm18.67,40l.19,12.26h2.15l-.09-12.26h-2.25Zm-.47-30.15l.22,14.42h2.37l-.11-14.42h-2.48Zm-.23-26.16c-.37,0-.71-.07-1.05-.17l-1.05,15.45h2.29l.71-15.42c-.29,.08-.6,.13-.91,.13Zm.65,16.3l-.41,8.87h2.46l-.07-8.87h-1.98Zm-.19,25.27l.21,13.75h2.25l-.1-13.75h-2.36Zm2.86,64.78l-.08-11.1h-1.94l.17,11.1h1.85Zm.08,11.1l-.08-10.11h-1.84l.16,10.11h1.77Zm-21.18-76.86h3.06l.1-14.42h-2.98l-.18,14.42Zm20.91,41.23l-.09-12.26h-2.14l.19,12.26h2.05Zm0,.99h-2.04l.18,11.43h1.95l-.09-11.43Zm-20.44-82.93l-.17,15.41h2.41l-.69-15.35c-.21,.04-.43,.07-.65,.07-.31,0-.61-.05-.9-.13Zm1.32-16.25l.42,9.44c.81,.19,1.5,.65,1.99,1.28l-1.11-11.12c-.4,.21-.84,.35-1.31,.41Zm.72,16.18l.69,15.48h3.09l-1.72-17.26c-.42,.83-1.16,1.47-2.06,1.78Zm-2.33,25.37h2.96l-.4-8.87h-2.46l-.1,8.87Zm15.69-42.08l-1.36,11.91c.42-.89,1.2-1.57,2.15-1.88l.65-9.53c-.52-.07-1.01-.24-1.44-.5Zm-4.8,42.07h3.42l.6-8.87h-3.01l-1.01,8.87Zm-3.81,0l-.88-8.87h-3.14l.4,8.87h3.63Zm4.94-9.9h2.96l1.06-15.64c-.98-.46-1.72-1.35-1.96-2.43l-2.06,18.07Zm-5.32,1.02l.88,8.87h2.81l1.01-8.87h-4.7Zm192.62,237.87c0,1.12-.74,1.92-2.03,1.92-2.56,0-3.28-2.59-3.28-4.8,0-2.06,1.02-4.93,3.3-4.93h1.84c0,.87-1.17,2.14-1.23,2.72,0,.1,.04,.18,.1,.21v-.03c0-.17,.14-.31,.31-.31s.33,.14,.33,.31c0,.18-.18,.4-.4,.45-.19,.04-.46,.08-.68-.12-.83-.74,.99-2.75-.19-2.75s-1.89,2.67-1.89,4.42c0,2.09,.63,4.2,1.81,4.2,1.27,0,1.27-1.87,.56-1.87,0-.57,1.46-.79,1.46,.56Zm3.12-7.33c1.58,0-.03,2.02,.8,2.76,.22,.19,.5,.17,.68,.12,.22-.07,.39-.27,.39-.45,0-.17-.15-.31-.33-.31s-.31,.14-.31,.31v.03c-.05-.03-.09-.1-.09-.21,.05-.58,.69-2.09,.69-2.72,0,0-1.06-.26-2.07-.12-.98,.14-2.1,.69-2.1,2.02,0,2.44,3.24,3.15,3.24,5.48,0,1.12-.53,1.84-1.23,1.84-1.1,0-1.21-2.09-.52-2.09,0-.79-1.66-.99-1.66,.6,0,1.15,.91,2.1,2.18,2.1,1.7,0,2.59-1.17,2.59-2.45,0-2.55-3.24-3.64-3.24-5.48,0-.84,.34-1.43,.97-1.43Zm4.33,1.43c0-.84,.34-1.43,.97-1.43,1.58,0-.03,2.02,.8,2.76,.22,.19,.5,.17,.68,.12,.22-.07,.4-.27,.4-.45,0-.17-.15-.31-.33-.31s-.31,.14-.31,.31v.03c-.06-.03-.1-.1-.1-.21,.06-.58,.7-2.09,.7-2.72,0,0-1.06-.26-2.07-.12-.98,.14-2.1,.69-2.1,2.02,0,2.44,3.24,3.15,3.24,5.48,0,1.12-.53,1.84-1.23,1.84-1.1,0-1.21-2.09-.52-2.09,0-.79-1.66-.99-1.66,.6,0,1.15,.91,2.1,2.18,2.1,1.7,0,2.59-1.17,2.59-2.45,0-2.55-3.24-3.64-3.24-5.48Zm-36-20.25c0,3.05-1.9,5.26-5.25,5.26-6.63,0-8.5-7.1-8.5-13.14,0-5.65,2.65-13.5,8.53-13.5h4.76c0,2.38-3.03,5.86-3.17,7.46,0,.28,.11,.5,.25,.57v-.07c0-.46,.35-.85,.81-.85s.85,.39,.85,.85c0,.5-.46,1.1-1.02,1.24-.49,.11-1.2,.21-1.76-.32-2.15-2.02,2.57-7.53-.49-7.53s-4.9,7.32-4.9,12.11c0,5.72,1.62,11.51,4.69,11.51,3.28,0,3.28-5.11,1.45-5.11,0-1.56,3.77-2.17,3.77,1.53Zm15.27-8.95s.21,1.63-1.09,2.52v-11.68c0-.07,.03-2.73,.63-2.73,.53,0,.46-.53,.46-.53h-5.75s-.07,.53,.46,.53c.6,0,.63,2.59,.63,2.73v12.22c-1.9-.04-4.09,.04-5.36,1.46v-13.67c0-.07,.04-2.73,.64-2.73,.53,0,.49-.53,.49-.53h-4.51s-.07,.53,.49,.53,.6,2.59,.6,2.73v20.1c0,.14-.04,2.73-.6,2.73s-.49,.53-.49,.53h4.51s.04-.53-.49-.53c-.6,0-.64-2.66-.64-2.73v-3.05s-.25-3.2,3.21-3.2c.77,0,1.48,.07,2.15,.18v6.07c0,.14-.03,2.73-.63,2.73-.53,0-.46,.53-.46,.53h5.75s.07-.53-.46-.53c-.6,0-.63-2.66-.63-2.73v-5.97c.35-.07,.7-.21,1.06-.43,1.52-.85,1.83-3.41,.03-4.55Zm15.34-6.92v15.63c.04,2.98-2.86,5.47-5.99,5.5-3.17-.07-5.96-2.52-5.96-5.5v-15.63c0-3.02,2.82-5.43,6.03-5.51h.03c3.14,.11,5.89,2.52,5.89,5.51Zm-3.56,0c0-1.63-1.09-3.02-2.4-3.76-1.34,.71-2.43,2.13-2.43,3.76v15.63c0,1.63,1.09,3.05,2.4,3.76,1.34-.71,2.43-2.13,2.43-3.76v-15.63Zm23.56,24.5c0,.39-.18,.85-.7,1.17-.85,.53-3.49,.82-5.15-1.31-2.04-2.63-5.89-11.33-7.93-11.9v5.4c0,.21,.07,2.73,.64,2.73s.49,.53,.49,.53h-5.78s-.07-.53,.49-.53,.6-2.52,.6-2.73v-20.1c0-.21-.04-2.73-.6-2.73s-.49-.53-.49-.53h4.62c5.68,0,10.05,3.44,10.05,9.31,0,4.87-3.07,7.99-6.81,8.67,4.48,1.7,6.31,12.07,8.92,12.07v-.04c0-.46,.35-.85,.81-.85s.85,.39,.85,.85Zm-7.16-20.81c0-5.29-3.56-7.67-6.63-7.74v15.2h.32c3.1,0,6.31-2.98,6.31-7.46Zm18.76-1.21c0,1.88,.03,8.1,.03,11.01,0,4.23-2.47,7.63-6.21,7.63h-7.48s-.07-.53,.49-.53,.6-2.56,.6-2.73v-20.1c0-.14-.04-2.73-.6-2.73s-.49-.53-.49-.53h4.65c4.97,0,8.99,2.34,8.99,7.99Zm-3.53,11.19c0-2.91-.04-9.59-.04-11.19,0-4.37-.99-6.07-5.43-6.18v23.37c.28,.04,.53,.07,.81,.07,2.89,0,4.65-3.2,4.65-6.07Zm9.17-13.96c0-2.31,.88-3.91,2.5-3.91,4.09,0-.07,5.54,2.08,7.57,.57,.53,1.31,.46,1.76,.32,.56-.18,1.02-.75,1.02-1.24,0-.46-.39-.85-.85-.85s-.81,.39-.81,.85v.07c-.14-.07-.25-.28-.25-.57,.14-1.6,1.8-5.72,1.8-7.46,0,0-2.75-.71-5.36-.32-2.54,.39-5.43,1.88-5.43,5.54,0,6.68,8.39,8.63,8.39,15.02,0,3.05-1.37,5.04-3.17,5.04-2.86,0-3.14-5.72-1.34-5.72,0-2.17-4.3-2.7-4.3,1.63,0,3.16,2.36,5.75,5.64,5.75,4.41,0,6.7-3.2,6.7-6.71,0-7-8.39-9.98-8.39-15.02ZM32.9,310.37c-.13,.08-.26,.13-.39,.16v2.24s.01,1.03,.23,1.03c.19,0,.17,.2,.17,.2h-2.11s-.03-.2,.17-.2c.22,0,.23-.97,.23-1.03v-2.28c-.25-.04-.5-.07-.79-.07-1.27,0-1.18,1.2-1.18,1.2v1.15s.01,1.03,.23,1.03c.19,0,.18,.2,.18,.2h-1.65s-.03-.2,.18-.2,.22-.97,.22-1.03v-7.55c0-.05-.01-1.03-.22-1.03s-.18-.2-.18-.2h1.65s.01,.2-.18,.2c-.22,0-.23,1-.23,1.03v5.13c.46-.53,1.27-.56,1.96-.55v-4.59c0-.05-.01-1.03-.23-1.03-.19,0-.17-.2-.17-.2h2.11s.03,.2-.17,.2c-.22,0-.23,1-.23,1.03v4.39c.48-.33,.4-.95,.4-.95,.66,.43,.54,1.39-.01,1.71Zm6.56-3.71c-.17,0-.3,.15-.3,.32v.03c-.05-.03-.09-.11-.09-.21,.05-.6,.66-2.15,.66-2.8h-5.74c0,.65,.61,2.2,.65,2.8,.01,.11-.03,.19-.09,.21t.01-.03c0-.17-.14-.32-.31-.32s-.3,.15-.3,.32c0,.21,.19,.41,.36,.47,.18,.05,.44,.08,.65-.12,.79-.76-.57-2.81,.68-2.84h.56v8.28c0,.08-.01,1.03-.23,1.03-.19,0-.17,.2-.17,.2h2.12s.01-.2-.18-.2c-.21,0-.23-.95-.23-1.03v-8.28h.56c1.25,.03-.1,2.08,.68,2.84,.21,.2,.48,.17,.65,.12,.23-.07,.37-.28,.37-.47,0-.17-.14-.32-.31-.32Zm7.49-2.47c.21,0,.18-.2,.18-.2h-1.71l-1.71,5.93-1.71-5.93h-1.72s-.03,.2,.18,.2,.22,.95,.22,1.03v7.55c0,.08-.01,1.03-.22,1.03s-.18,.2-.18,.2h1.65s.01-.2-.18-.2c-.21,0-.23-.95-.23-1.03v-6.03l1.96,6.53,1.93-6.36v5.85c-.01,.08-.03,1.03-.23,1.03s-.18,.2-.18,.2h2.12s.03-.2-.18-.2c-.22,0-.23-1.04-.23-1.04v-7.52s.01-1.04,.23-1.04Zm5.05,6.75s-.59-.16-.59,.43c0,.43-.19,2.09-1.19,2.13h-.7v-8.27s.01-1.04,.23-1.04c.21,0,.18-.2,.18-.2h-2.12s-.03,.2,.18,.2,.22,.95,.22,1.03v7.55c0,.08-.01,1.03-.22,1.03s-.18,.2-.18,.2h4.19c-.45-1.92,0-3.05,0-3.05Zm-38.55-28.01s-1.24,3.02,0,8.13H2s-.07-.53,.49-.53,.6-2.52,.6-2.73v-20.1c0-.21-.04-2.73-.6-2.73s-.49-.53-.49-.53H7.8s.07,.53-.49,.53c-.6,0-.64,2.77-.64,2.77v22.02h1.91c2.72-.11,3.25-4.55,3.25-5.68,0-1.56,1.62-1.14,1.62-1.14Zm8.3-17.97c.6,0-.14,2.66-.18,2.73l-1.98,9.73-2.23-9.73c-.04-.14-.81-2.73-.21-2.73,.53,0,.32-.53,.32-.53h-5.79s.11,.53,.64,.53c.6,0,1.45,2.66,1.48,2.73l3.36,14.6v5.51c0,.21-.04,2.73-.64,2.73-.53,0-.46,.53-.46,.53h5.79s.04-.53-.49-.53c-.57,0-.64-2.52-.64-2.73v-6.18l3.14-13.92c.04-.14,.85-2.73,1.41-2.73s.67-.53,.67-.53h-4.52s-.21,.53,.32,.53Zm23.64,29.48c0,.39-.18,.85-.71,1.17-.85,.53-3.5,.82-5.16-1.31-2.05-2.63-5.9-11.33-7.95-11.9v5.4c0,.21,.07,2.73,.64,2.73s.49,.53,.49,.53h-5.79s-.07-.53,.49-.53,.6-2.52,.6-2.73v-20.1c0-.21-.04-2.73-.6-2.73s-.49-.53-.49-.53h4.63c5.69,0,10.07,3.44,10.07,9.31,0,4.87-3.07,7.99-6.82,8.67,4.49,1.7,6.32,12.07,8.94,12.07v-.04c0-.46,.35-.85,.81-.85s.85,.39,.85,.85Zm-7.17-20.81c0-5.29-3.57-7.67-6.64-7.74v15.2h.32c3.11,0,6.32-2.98,6.32-7.46Zm10.1-8.66c.57,0,.49-.53,.49-.53h-5.79s-.07,.53,.49,.53,.6,2.59,.6,2.73v20.1c0,.14-.04,2.73-.6,2.73s-.49,.53-.49,.53h5.79s.07-.53-.49-.53c-.6,0-.64-2.66-.64-2.73v-20.1c0-.07,.04-2.73,.64-2.73Zm11.91,19.32c1.84,0,1.84,5.11-1.45,5.11-3.07,0-4.7-5.79-4.7-11.51,0-4.79,1.7-12.11,4.91-12.11s-1.66,5.51,.49,7.53c.57,.53,1.27,.43,1.77,.32,.56-.14,1.02-.75,1.02-1.24,0-.46-.39-.85-.85-.85s-.81,.39-.81,.85v.07c-.14-.07-.25-.28-.25-.57,.14-1.6,3.18-5.08,3.18-7.46h-4.77c-5.9,0-8.55,7.85-8.55,13.5,0,6.04,1.87,13.14,8.51,13.14,3.36,0,5.26-2.2,5.26-5.26,0-3.69-3.78-3.09-3.78-1.53Zm9.36-14.63c0-2.31,.88-3.91,2.51-3.91,4.1,0-.07,5.54,2.08,7.57,.57,.53,1.31,.46,1.77,.32,.56-.18,1.02-.75,1.02-1.24,0-.46-.39-.85-.85-.85s-.81,.39-.81,.85v.07c-.14-.07-.25-.28-.25-.57,.14-1.6,1.8-5.72,1.8-7.46,0,0-2.76-.71-5.37-.32-2.54,.39-5.44,1.88-5.44,5.54,0,6.68,8.41,8.63,8.41,15.02,0,3.05-1.38,5.04-3.18,5.04-2.86,0-3.14-5.72-1.34-5.72,0-2.17-4.31-2.7-4.31,1.63,0,3.16,2.37,5.75,5.65,5.75,4.42,0,6.71-3.2,6.71-6.71,0-7-8.41-9.98-8.41-15.02Zm-36.69,40.71c-.13,.08-.26,.13-.39,.16v2.24s.01,1.03,.23,1.03c.19,0,.17,.2,.17,.2h-2.11s-.03-.2,.17-.2c.22,0,.23-.97,.23-1.03v-2.28c-.25-.04-.5-.07-.79-.07-1.27,0-1.18,1.2-1.18,1.2v1.15s.01,1.03,.23,1.03c.19,0,.18,.2,.18,.2h-1.65s-.03-.2,.18-.2,.22-.97,.22-1.03v-7.55c0-.05-.01-1.03-.22-1.03s-.18-.2-.18-.2h1.65s.01,.2-.18,.2c-.22,0-.23,1-.23,1.03v5.13c.46-.53,1.27-.56,1.96-.55v-4.59c0-.05-.01-1.03-.23-1.03-.19,0-.17-.2-.17-.2h2.11s.03,.2-.17,.2c-.22,0-.23,1-.23,1.03v4.39c.48-.33,.4-.95,.4-.95,.66,.43,.54,1.39-.01,1.71Zm6.56-3.71c-.17,0-.3,.15-.3,.32v.03c-.05-.03-.09-.11-.09-.21,.05-.6,.66-2.15,.66-2.8h-5.74c0,.65,.61,2.2,.65,2.8,.01,.11-.03,.19-.09,.21t.01-.03c0-.17-.14-.32-.31-.32s-.3,.15-.3,.32c0,.21,.19,.41,.36,.47,.18,.05,.44,.08,.65-.12,.79-.76-.57-2.81,.68-2.84h.56v8.28c0,.08-.01,1.03-.23,1.03-.19,0-.17,.2-.17,.2h2.12s.01-.2-.18-.2c-.21,0-.23-.95-.23-1.03v-8.28h.56c1.25,.03-.1,2.08,.68,2.84,.21,.2,.48,.17,.65,.12,.23-.07,.37-.28,.37-.47,0-.17-.14-.32-.31-.32Zm7.49-2.47c.21,0,.18-.2,.18-.2h-1.71l-1.71,5.93-1.71-5.93h-1.72s-.03,.2,.18,.2,.22,.95,.22,1.03v7.55c0,.08-.01,1.03-.22,1.03s-.18,.2-.18,.2h1.65s.01-.2-.18-.2c-.21,0-.23-.95-.23-1.03v-6.03l1.96,6.53,1.93-6.36v5.85c-.01,.08-.03,1.03-.23,1.03s-.18,.2-.18,.2h2.12s.03-.2-.18-.2c-.22,0-.23-1.04-.23-1.04v-7.52s.01-1.04,.23-1.04Zm5.05,6.75s-.59-.16-.59,.43c0,.43-.19,2.09-1.19,2.13h-.7v-8.27s.01-1.04,.23-1.04c.21,0,.18-.2,.18-.2h-2.12s-.03,.2,.18,.2,.22,.95,.22,1.03v7.55c0,.08-.01,1.03-.22,1.03s-.18,.2-.18,.2h4.19c-.45-1.92,0-3.05,0-3.05Zm-38.55-28.01s-1.24,3.02,0,8.13H2s-.07-.53,.49-.53,.6-2.52,.6-2.73v-20.1c0-.21-.04-2.73-.6-2.73s-.49-.53-.49-.53H7.8s.07,.53-.49,.53c-.6,0-.64,2.77-.64,2.77v22.02h1.91c2.72-.11,3.25-4.55,3.25-5.68,0-1.56,1.62-1.14,1.62-1.14Zm8.3-17.97c.6,0-.14,2.66-.18,2.73l-1.98,9.73-2.23-9.73c-.04-.14-.81-2.73-.21-2.73,.53,0,.32-.53,.32-.53h-5.79s.11,.53,.64,.53c.6,0,1.45,2.66,1.48,2.73l3.36,14.6v5.51c0,.21-.04,2.73-.64,2.73-.53,0-.46,.53-.46,.53h5.79s.04-.53-.49-.53c-.57,0-.64-2.52-.64-2.73v-6.18l3.14-13.92c.04-.14,.85-2.73,1.41-2.73s.67-.53,.67-.53h-4.52s-.21,.53,.32,.53Zm23.64,29.48c0,.39-.18,.85-.71,1.17-.85,.53-3.5,.82-5.16-1.31-2.05-2.63-5.9-11.33-7.95-11.9v5.4c0,.21,.07,2.73,.64,2.73s.49,.53,.49,.53h-5.79s-.07-.53,.49-.53,.6-2.52,.6-2.73v-20.1c0-.21-.04-2.73-.6-2.73s-.49-.53-.49-.53h4.63c5.69,0,10.07,3.44,10.07,9.31,0,4.87-3.07,7.99-6.82,8.67,4.49,1.7,6.32,12.07,8.94,12.07v-.04c0-.46,.35-.85,.81-.85s.85,.39,.85,.85Zm-7.17-20.81c0-5.29-3.57-7.67-6.64-7.74v15.2h.32c3.11,0,6.32-2.98,6.32-7.46Zm10.1-8.66c.57,0,.49-.53,.49-.53h-5.79s-.07,.53,.49,.53,.6,2.59,.6,2.73v20.1c0,.14-.04,2.73-.6,2.73s-.49,.53-.49,.53h5.79s.07-.53-.49-.53c-.6,0-.64-2.66-.64-2.73v-20.1c0-.07,.04-2.73,.64-2.73Zm11.91,19.32c1.84,0,1.84,5.11-1.45,5.11-3.07,0-4.7-5.79-4.7-11.51,0-4.79,1.7-12.11,4.91-12.11s-1.66,5.51,.49,7.53c.57,.53,1.27,.43,1.77,.32,.56-.14,1.02-.75,1.02-1.24,0-.46-.39-.85-.85-.85s-.81,.39-.81,.85v.07c-.14-.07-.25-.28-.25-.57,.14-1.6,3.18-5.08,3.18-7.46h-4.77c-5.9,0-8.55,7.85-8.55,13.5,0,6.04,1.87,13.14,8.51,13.14,3.36,0,5.26-2.2,5.26-5.26,0-3.69-3.78-3.09-3.78-1.53Zm9.36-14.63c0-2.31,.88-3.91,2.51-3.91,4.1,0-.07,5.54,2.08,7.57,.57,.53,1.31,.46,1.77,.32,.56-.18,1.02-.75,1.02-1.24,0-.46-.39-.85-.85-.85s-.81,.39-.81,.85v.07c-.14-.07-.25-.28-.25-.57,.14-1.6,1.8-5.72,1.8-7.46,0,0-2.76-.71-5.37-.32-2.54,.39-5.44,1.88-5.44,5.54,0,6.68,8.41,8.63,8.41,15.02,0,3.05-1.38,5.04-3.18,5.04-2.86,0-3.14-5.72-1.34-5.72,0-2.17-4.31-2.7-4.31,1.63,0,3.16,2.37,5.75,5.65,5.75,4.42,0,6.71-3.2,6.71-6.71,0-7-8.41-9.98-8.41-15.02Zm-36.69,40.71c-.13,.08-.26,.13-.39,.16v2.24s.01,1.03,.23,1.03c.19,0,.17,.2,.17,.2h-2.11s-.03-.2,.17-.2c.22,0,.23-.97,.23-1.03v-2.28c-.25-.04-.5-.07-.79-.07-1.27,0-1.18,1.2-1.18,1.2v1.15s.01,1.03,.23,1.03c.19,0,.18,.2,.18,.2h-1.65s-.03-.2,.18-.2,.22-.97,.22-1.03v-7.55c0-.05-.01-1.03-.22-1.03s-.18-.2-.18-.2h1.65s.01,.2-.18,.2c-.22,0-.23,1-.23,1.03v5.13c.46-.53,1.27-.56,1.96-.55v-4.59c0-.05-.01-1.03-.23-1.03-.19,0-.17-.2-.17-.2h2.11s.03,.2-.17,.2c-.22,0-.23,1-.23,1.03v4.39c.48-.33,.4-.95,.4-.95,.66,.43,.54,1.39-.01,1.71Zm6.56-3.71c-.17,0-.3,.15-.3,.32v.03c-.05-.03-.09-.11-.09-.21,.05-.6,.66-2.15,.66-2.8h-5.74c0,.65,.61,2.2,.65,2.8,.01,.11-.03,.19-.09,.21t.01-.03c0-.17-.14-.32-.31-.32s-.3,.15-.3,.32c0,.21,.19,.41,.36,.47,.18,.05,.44,.08,.65-.12,.79-.76-.57-2.81,.68-2.84h.56v8.28c0,.08-.01,1.03-.23,1.03-.19,0-.17,.2-.17,.2h2.12s.01-.2-.18-.2c-.21,0-.23-.95-.23-1.03v-8.28h.56c1.25,.03-.1,2.08,.68,2.84,.21,.2,.48,.17,.65,.12,.23-.07,.37-.28,.37-.47,0-.17-.14-.32-.31-.32Zm7.49-2.47c.21,0,.18-.2,.18-.2h-1.71l-1.71,5.93-1.71-5.93h-1.72s-.03,.2,.18,.2,.22,.95,.22,1.03v7.55c0,.08-.01,1.03-.22,1.03s-.18,.2-.18,.2h1.65s.01-.2-.18-.2c-.21,0-.23-.95-.23-1.03v-6.03l1.96,6.53,1.93-6.36v5.85c-.01,.08-.03,1.03-.23,1.03s-.18,.2-.18,.2h2.12s.03-.2-.18-.2c-.22,0-.23-1.04-.23-1.04v-7.52s.01-1.04,.23-1.04Zm5.05,6.75s-.59-.16-.59,.43c0,.43-.19,2.09-1.19,2.13h-.7v-8.27s.01-1.04,.23-1.04c.21,0,.18-.2,.18-.2h-2.12s-.03,.2,.18,.2,.22,.95,.22,1.03v7.55c0,.08-.01,1.03-.22,1.03s-.18,.2-.18,.2h4.19c-.45-1.92,0-3.05,0-3.05Zm-38.55-28.01s-1.24,3.02,0,8.13H2s-.07-.53,.49-.53,.6-2.52,.6-2.73v-20.1c0-.21-.04-2.73-.6-2.73s-.49-.53-.49-.53H7.8s.07,.53-.49,.53c-.6,0-.64,2.77-.64,2.77v22.02h1.91c2.72-.11,3.25-4.55,3.25-5.68,0-1.56,1.62-1.14,1.62-1.14Zm8.3-17.97c.6,0-.14,2.66-.18,2.73l-1.98,9.73-2.23-9.73c-.04-.14-.81-2.73-.21-2.73,.53,0,.32-.53,.32-.53h-5.79s.11,.53,.64,.53c.6,0,1.45,2.66,1.48,2.73l3.36,14.6v5.51c0,.21-.04,2.73-.64,2.73-.53,0-.46,.53-.46,.53h5.79s.04-.53-.49-.53c-.57,0-.64-2.52-.64-2.73v-6.18l3.14-13.92c.04-.14,.85-2.73,1.41-2.73s.67-.53,.67-.53h-4.52s-.21,.53,.32,.53Zm23.64,29.48c0,.39-.18,.85-.71,1.17-.85,.53-3.5,.82-5.16-1.31-2.05-2.63-5.9-11.33-7.95-11.9v5.4c0,.21,.07,2.73,.64,2.73s.49,.53,.49,.53h-5.79s-.07-.53,.49-.53,.6-2.52,.6-2.73v-20.1c0-.21-.04-2.73-.6-2.73s-.49-.53-.49-.53h4.63c5.69,0,10.07,3.44,10.07,9.31,0,4.87-3.07,7.99-6.82,8.67,4.49,1.7,6.32,12.07,8.94,12.07v-.04c0-.46,.35-.85,.81-.85s.85,.39,.85,.85Zm-7.17-20.81c0-5.29-3.57-7.67-6.64-7.74v15.2h.32c3.11,0,6.32-2.98,6.32-7.46Zm10.1-8.66c.57,0,.49-.53,.49-.53h-5.79s-.07,.53,.49,.53,.6,2.59,.6,2.73v20.1c0,.14-.04,2.73-.6,2.73s-.49,.53-.49,.53h5.79s.07-.53-.49-.53c-.6,0-.64-2.66-.64-2.73v-20.1c0-.07,.04-2.73,.64-2.73Zm11.91,19.32c1.84,0,1.84,5.11-1.45,5.11-3.07,0-4.7-5.79-4.7-11.51,0-4.79,1.7-12.11,4.91-12.11s-1.66,5.51,.49,7.53c.57,.53,1.27,.43,1.77,.32,.56-.14,1.02-.75,1.02-1.24,0-.46-.39-.85-.85-.85s-.81,.39-.81,.85v.07c-.14-.07-.25-.28-.25-.57,.14-1.6,3.18-5.08,3.18-7.46h-4.77c-5.9,0-8.55,7.85-8.55,13.5,0,6.04,1.87,13.14,8.51,13.14,3.36,0,5.26-2.2,5.26-5.26,0-3.69-3.78-3.09-3.78-1.53Zm9.36-14.63c0-2.31,.88-3.91,2.51-3.91,4.1,0-.07,5.54,2.08,7.57,.57,.53,1.31,.46,1.77,.32,.56-.18,1.02-.75,1.02-1.24,0-.46-.39-.85-.85-.85s-.81,.39-.81,.85v.07c-.14-.07-.25-.28-.25-.57,.14-1.6,1.8-5.72,1.8-7.46,0,0-2.76-.71-5.37-.32-2.54,.39-5.44,1.88-5.44,5.54,0,6.68,8.41,8.63,8.41,15.02,0,3.05-1.38,5.04-3.18,5.04-2.86,0-3.14-5.72-1.34-5.72,0-2.17-4.31-2.7-4.31,1.63,0,3.16,2.37,5.75,5.65,5.75,4.42,0,6.71-3.2,6.71-6.71,0-7-8.41-9.98-8.41-15.02Zm142.32,20.85c-1.85-1.35-3.79-2.3-5.83-2.84-2.03-.54-4.01-.71-5.93-.51-1.92,.2-3.76,.72-5.52,1.56-1.76,.84-3.3,1.93-4.61,3.28-1.4,1.44-2.51,3.67-3.32,6.67-.81,3-1.33,6.38-1.56,10.12-.14,1.94-.2,3.95-.2,6.03s.14,4.11,.41,6.09,.75,3.87,1.42,5.65c.68,1.78,1.64,3.36,2.88,4.74,1.24,1.38,2.82,2.48,4.74,3.32,1.92,.84,4.26,1.27,7.01,1.32,2.98,.09,5.48-.42,7.49-1.52,2.01-1.1,3.62-2.57,4.84-4.4,1.22-1.83,2.11-3.92,2.68-6.26,.56-2.35,.94-4.76,1.12-7.24,.41-6.59,.18-12.12-.68-16.59-.86-4.47-2.51-7.61-4.94-9.41Zm-23.95,29.66c.2,1.81,.53,3.53,.98,5.18,.45,1.65,1.11,3.13,1.96,4.43-1.08-1.22-1.93-2.64-2.54-4.26-.61-1.63-1.05-3.35-1.32-5.18s-.41-3.71-.41-5.65,.04-3.81,.14-5.62c.18-3.39,.59-6.47,1.22-9.24,.63-2.78,1.53-4.84,2.71-6.2,.45-.5,.91-.96,1.39-1.39,.47-.43,.98-.82,1.52-1.19-.68,.59-1.31,1.22-1.9,1.9-1.13,1.44-2.01,3.62-2.64,6.53-.63,2.91-1.06,6.17-1.29,9.78-.09,1.76-.14,3.57-.14,5.42s.1,3.68,.3,5.48Zm16.26,10.9c-1.42,1.08-2.9,1.42-4.44,1.02-1.54-.41-2.9-1.51-4.1-3.32-1.2-1.81-2.11-4.32-2.74-7.55-.63-3.23-.75-7.12-.34-11.68,.23-3.02,.67-5.74,1.32-8.16,.65-2.41,1.43-4.45,2.34-6.09,.9-1.65,1.89-2.88,2.95-3.69,1.06-.81,2.13-1.15,3.22-1.02,1.13,.14,2.22,.82,3.29,2.07,1.06,1.24,1.96,2.94,2.71,5.11,.75,2.17,1.28,4.77,1.59,7.82,.32,3.05,.34,6.42,.07,10.12-.32,4.06-1.02,7.37-2.1,9.92-1.08,2.55-2.34,4.37-3.76,5.45Zm8.57-16.38c-.05,1.94-.21,3.83-.51,5.65-.29,1.83-.76,3.55-1.39,5.18-.63,1.62-1.51,3.05-2.64,4.26,.87-1.31,1.56-2.79,2.07-4.43,.51-1.65,.87-3.37,1.1-5.18,.23-1.81,.37-3.63,.41-5.48,.05-1.85,.05-3.66,0-5.42-.14-3.61-.5-6.87-1.1-9.78-.59-2.91-1.44-5.09-2.54-6.53-.32-.36-.62-.69-.89-.98-.28-.29-.59-.6-.96-.91,.5,.36,.99,.76,1.49,1.19,.5,.43,.95,.89,1.36,1.39,1.13,1.36,1.99,3.42,2.57,6.2,.59,2.78,.92,5.86,1.02,9.24,.04,1.81,.04,3.68,0,5.62Zm-34.58-11.21c.07-2.46,.16-4.66,.27-6.6,.11-1.94,.26-3.34,.44-4.2,.09-.5,.27-.97,.54-1.42,.27-.45,.55-.85,.85-1.19,.29-.34,.55-.62,.78-.85,.23-.23,.34-.38,.34-.47s-.4-.18-1.19-.27c-.79-.09-1.75-.16-2.88-.2-1.13-.04-2.36-.04-3.69,0-1.33,.05-2.54,.12-3.62,.24-1.08,.11-1.95,.26-2.61,.44-.66,.18-.89,.43-.71,.75,.63,.18,1.2,.47,1.69,.88,.45,.36,.87,.82,1.25,1.39,.38,.57,.62,1.3,.71,2.2,.14,.99,.24,2.38,.3,4.16,.07,1.78,.12,3.69,.17,5.72,.04,2.03,.08,4.06,.1,6.09,.02,2.03,.03,3.79,.03,5.28-.05,1.04-.09,2.16-.14,3.35-.05,1.2-.11,2.4-.2,3.62-.9-1.72-1.85-3.56-2.85-5.52-.99-1.96-1.96-3.94-2.91-5.92-.95-1.99-1.87-3.94-2.78-5.86-.9-1.92-1.72-3.69-2.44-5.32-.72-1.62-1.35-3.06-1.9-4.3-.54-1.24-.93-2.18-1.15-2.81-.18-.54-.25-1.04-.2-1.49,.04-.45,.13-.85,.27-1.18,.14-.34,.27-.62,.41-.85,.14-.23,.2-.36,.2-.41-.05-.14-.69-.25-1.93-.34-1.24-.09-2.68-.13-4.3-.13-.9,0-1.83,.01-2.78,.03-.95,.02-1.81,.07-2.57,.14-.77,.07-1.42,.17-1.96,.3-.54,.13-.88,.29-1.02,.47-.23,.13-.27,.29-.14,.47,.63,.18,1.2,.47,1.69,.88,.45,.36,.87,.82,1.25,1.39,.38,.57,.62,1.3,.71,2.2,.14,.99,.24,2.38,.3,4.16,.07,1.78,.11,3.69,.14,5.72,.02,2.03,.04,4.06,.07,6.09,.02,2.03,.03,3.79,.03,5.28,0,1.04-.03,2.14-.1,3.32-.07,1.17-.15,2.36-.24,3.55-.09,1.2-.19,2.38-.3,3.56-.11,1.17-.22,2.26-.3,3.25-.09,.9-.32,1.64-.68,2.2-.36,.57-.72,1.03-1.08,1.39-.45,.41-.95,.7-1.49,.88-.18,.32,.06,.57,.71,.75,.65,.18,1.52,.33,2.61,.44,1.08,.11,2.29,.19,3.62,.24,1.33,.04,2.56,.04,3.69,0,1.13-.04,2.09-.11,2.88-.2,.79-.09,1.19-.18,1.19-.27s-.11-.25-.34-.47c-.23-.23-.49-.51-.78-.85-.29-.34-.59-.73-.88-1.19-.29-.45-.49-.92-.58-1.42-.23-1.13-.4-2.88-.51-5.25-.11-2.37-.19-5.01-.24-7.92-.05-2.91-.05-5.89,0-8.94,.04-3.05,.11-5.83,.2-8.36,.59,1.31,1.19,2.66,1.8,4.06,.61,1.4,1.22,2.78,1.83,4.13,.61,1.36,1.21,2.64,1.8,3.86,.59,1.22,1.15,2.3,1.69,3.25,.54,1.04,1.11,2.14,1.69,3.32,.59,1.17,1.17,2.36,1.76,3.55,.59,1.2,1.14,2.38,1.66,3.56,.52,1.17,1,2.26,1.46,3.25,.45,1.04,.62,1.86,.51,2.47-.11,.61-.28,1.07-.51,1.39-.27,.23-.54,.39-.81,.47-.14,.05-.25,.09-.34,.13-.18,.32,.06,.57,.71,.75,.65,.18,1.52,.33,2.61,.44,1.08,.11,2.29,.19,3.62,.24,1.33,.04,2.56,.04,3.69,0,1.13-.04,2.09-.11,2.88-.2,.79-.09,1.19-.18,1.19-.27s-.11-.25-.34-.47c-.23-.23-.49-.51-.78-.85-.29-.34-.58-.73-.85-1.19-.27-.45-.45-.92-.54-1.42-.23-.99-.4-2.5-.51-4.54-.11-2.03-.2-4.3-.27-6.81s-.09-5.15-.07-7.92c.02-2.78,.07-5.39,.13-7.85Zm-28.55,15.13c-.05,2.39-.15,4.6-.3,6.64-.16,2.03-.35,3.63-.58,4.81-.05,.18-.1,.28-.17,.3-.07,.02-.14,.01-.2-.03-.07-.04-.15-.09-.24-.13-.09-.05-.16-.05-.2,0,.09-.27,.16-1.15,.2-2.64,.04-1.49,.09-3.35,.13-5.59,.04-2.23,.08-4.68,.1-7.35,.02-2.66,.04-5.28,.07-7.86,.02-2.57,.03-4.99,.03-7.24s.02-4.06,.07-5.42c.04-1.31,.2-1.84,.47-1.59,.27,.25,.43,.87,.47,1.86,0,.77,.02,2.01,.07,3.72,.04,1.72,.08,3.69,.1,5.92,.02,2.23,.03,4.63,.03,7.18s-.02,5.02-.07,7.41Zm23.85-24.58c-.05,.72-.08,1.78-.1,3.18-.02,1.4-.02,3,0,4.81,.02,1.81,.03,3.72,.03,5.76s-.02,4.02-.07,5.96c-.05,1.94-.11,3.76-.2,5.45-.09,1.69-.23,3.1-.41,4.23-.05,.18-.1,.27-.17,.27s-.14-.02-.2-.07c-.07-.04-.15-.09-.24-.13-.09-.04-.16-.04-.2,0,.09-.23,.16-.94,.2-2.13,.04-1.2,.09-2.67,.14-4.43,.04-1.76,.08-3.71,.1-5.86,.02-2.14,.04-4.29,.07-6.43,.02-2.14,.03-4.16,.03-6.06s.02-3.5,.07-4.81c0-.63,.06-1.06,.17-1.29,.11-.22,.24-.3,.37-.24,.13,.07,.25,.27,.34,.61,.09,.34,.11,.73,.07,1.18Zm83.05-5.72c-.59-.02-1.85,.03-3.79,.17-1.49,.09-3.47,.16-5.93,.2-2.46,.05-5,.07-7.62,.07s-5.15-.02-7.59-.07c-2.44-.04-4.36-.11-5.76-.2-.99-.05-1.78-.09-2.37-.14-.59-.04-1.05-.06-1.39-.03-.34,.02-.58,.07-.71,.14-.14,.07-.2,.17-.2,.3-.05,1.08-.05,2.21,0,3.38,.04,1.17,.11,2.24,.2,3.18,.09,.95,.18,1.74,.27,2.37,.09,.63,.18,.95,.27,.95s.23-.15,.41-.44c.18-.29,.41-.62,.68-.98s.58-.72,.91-1.08c.34-.36,.71-.61,1.12-.74,.86-.23,2.22-.37,4.1-.44,1.87-.07,3.92-.06,6.13,.03,.09,1.13,.17,2.56,.24,4.3,.07,1.74,.11,3.58,.14,5.52,.02,1.94,.04,3.85,.07,5.72,.02,1.87,.03,3.51,.03,4.91-.05,2.08-.17,4.37-.37,6.87-.2,2.51-.42,4.77-.64,6.81-.09,.9-.32,1.64-.68,2.2-.36,.57-.72,1.03-1.08,1.39-.45,.41-.95,.7-1.49,.88-.18,.32,.07,.57,.74,.75,.68,.18,1.56,.33,2.64,.44,1.08,.11,2.28,.19,3.59,.24,1.31,.04,2.53,.04,3.66,0,1.13-.04,2.09-.11,2.88-.2,.79-.09,1.19-.18,1.19-.27s-.11-.25-.34-.47c-.23-.23-.49-.51-.78-.85-.29-.34-.58-.73-.85-1.19-.27-.45-.45-.92-.54-1.42-.18-.9-.33-2.21-.44-3.93-.11-1.71-.2-3.67-.27-5.86-.07-2.19-.1-4.5-.1-6.94s.01-4.83,.03-7.18c.02-2.35,.07-4.54,.13-6.57,.07-2.03,.17-3.75,.3-5.15,2.21-.09,4.27-.1,6.17-.03,1.9,.07,3.27,.22,4.13,.44,.41,.13,.78,.38,1.12,.74,.34,.36,.64,.72,.91,1.08,.27,.36,.5,.69,.68,.98,.18,.29,.32,.44,.41,.44s.18-.32,.27-.95c.09-.63,.18-1.42,.27-2.37,.09-.95,.15-2.01,.17-3.18,.02-1.17,.01-2.3-.03-3.38,0-.27-.29-.42-.88-.44Zm-22.49,4.91c-.9-.04-1.55-.06-1.93-.03-.38,.02-.79,.06-1.22,.1-.43,.05-1.03,.09-1.8,.14-.77,.05-1.96,.07-3.59,.07-.27,0-.52-.03-.75-.1-.23-.07-.38-.13-.47-.2-.09-.07-.08-.14,.03-.2,.11-.07,.37-.12,.78-.17,.95-.05,1.73-.08,2.34-.1,.61-.02,1.22-.06,1.83-.1,.61-.04,1.32-.07,2.13-.07s1.92,.02,3.32,.07c.09,0,.15,.11,.17,.34,.02,.23-.26,.32-.85,.27Zm4.44,19.16c-.02,2.35-.06,4.64-.1,6.87-.04,2.24-.15,4.3-.3,6.2s-.35,3.43-.58,4.6c-.09,.36-.22,.44-.37,.24-.16-.2-.28-.24-.37-.1,.04-.27,.1-1.09,.17-2.47,.07-1.38,.11-3.09,.13-5.15,.02-2.05,.04-4.31,.07-6.77,.02-2.46,.05-4.9,.07-7.31,.02-2.41,.04-4.68,.07-6.81,.02-2.12,.05-3.86,.1-5.21,0-1.26,.15-1.78,.44-1.56,.29,.23,.44,.84,.44,1.83,0,.77,.02,1.95,.07,3.56s.09,3.43,.14,5.48c.04,2.06,.05,4.26,.03,6.6Zm14.87-18.96c-1.4,.05-2.51,.07-3.32,.07s-1.52-.02-2.13-.07c-.61-.05-1.22-.09-1.83-.14-.61-.04-1.39-.09-2.34-.13-.41,0-.67-.03-.78-.1-.11-.07-.12-.13-.03-.2,.09-.07,.25-.14,.47-.2,.22-.07,.47-.1,.74-.1,1.62,0,2.82,.02,3.59,.07,.77,.05,1.37,.09,1.8,.13,.43,.05,.84,.08,1.22,.1,.38,.02,1.03,.01,1.93-.03,.59-.05,.86,.05,.81,.27-.05,.23-.09,.34-.14,.34Zm67.54,28.68c-1.08-1.83-2.34-3.45-3.76-4.88-1.42-1.42-2.96-2.69-4.61-3.79-1.65-1.11-3.24-2.14-4.78-3.11-1.53-.97-2.95-1.93-4.23-2.88-1.29-.95-2.27-1.97-2.95-3.08-.68-1.11-.99-2.33-.95-3.66s.61-2.9,1.69-4.71c.86-1.36,1.91-2.4,3.15-3.15,1.24-.75,2.49-1.01,3.76-.78,1.22,.23,2.26,.89,3.12,2,.86,1.11,1.4,2.94,1.63,5.52,.09,1.04,.06,1.81-.1,2.3-.16,.5-.34,.87-.54,1.12-.2,.25-.41,.45-.61,.61-.2,.16-.3,.42-.3,.78,1.22-.05,2.42-.01,3.59,.1,1.17,.11,2.21,.12,3.12,.03,.9-.09,1.6-.35,2.1-.78,.5-.43,.68-1.19,.54-2.27-.27-1.8-.64-3.52-1.12-5.15-.47-1.62-1.18-3.05-2.1-4.27-.93-1.22-2.13-2.22-3.62-3.01-1.49-.79-3.39-1.27-5.69-1.45-2.26-.18-4.4,.06-6.44,.71-2.03,.65-3.82,1.61-5.35,2.88-1.54,1.26-2.74,2.77-3.62,4.5-.88,1.74-1.3,3.58-1.25,5.52,.05,2.35,.55,4.32,1.52,5.92,.97,1.6,2.2,3.02,3.69,4.26,1.49,1.24,3.12,2.4,4.88,3.49,1.76,1.08,3.48,2.27,5.15,3.56,1.67,1.29,3.17,2.77,4.51,4.43,1.33,1.67,2.29,3.75,2.88,6.23,.54,2.3,.64,4.62,.3,6.94-.34,2.33-1.11,4.45-2.3,6.37-1.2,1.92-2.82,3.54-4.88,4.87s-4.5,2.16-7.35,2.47c-2.53,.27-5.06,.14-7.59-.41-2.53-.54-4.74-1.39-6.64-2.54-1.9-1.15-3.33-2.55-4.3-4.2-.97-1.65-1.19-3.42-.64-5.32,1.58-.72,2.65-1.58,3.22-2.57,.56-.99,.76-1.99,.58-2.98-.18-.99-.62-1.89-1.32-2.67-.7-.79-1.51-1.35-2.44-1.69-.93-.34-1.86-.36-2.81-.07-.95,.29-1.74,1.05-2.37,2.27-1.53,2.93-2.19,5.73-1.96,8.4,.23,2.66,1.09,5.09,2.61,7.28,1.51,2.19,3.56,4.06,6.13,5.62s5.42,2.69,8.54,3.39c3.12,.7,6.39,.9,9.82,.61,3.43-.29,6.77-1.21,10.03-2.74,2.3-1.08,4.31-2.48,6.03-4.2,1.72-1.72,3.1-3.62,4.17-5.72,1.06-2.1,1.78-4.33,2.17-6.7,.38-2.37,.37-4.73-.03-7.08-.41-2.39-1.15-4.5-2.24-6.33Zm-7.62-29.08c.61,.9,1.09,1.95,1.46,3.15,.36,1.2,.51,2.36,.44,3.49-.07,1.13-.46,1.87-1.19,2.23,.14-.27,.25-.64,.34-1.12,.09-.47,.09-1.12,0-1.93-.18-1.94-.52-3.46-1.02-4.57-.5-1.1-1.11-1.91-1.83-2.4,.59-.14,1.19,.25,1.8,1.15Zm4.34,41.68c-.07,.52-.17,.92-.3,1.22-.13,.29-.29,.3-.47,.03-.09-.09-.15-.33-.17-.71-.02-.38-.03-.8-.03-1.25v-2.3c-.18-2.75-.83-5.07-1.93-6.94-1.11-1.87-2.45-3.49-4.03-4.84-1.58-1.36-3.29-2.56-5.12-3.62-1.83-1.06-3.58-2.18-5.25-3.35-1.67-1.17-3.14-2.52-4.4-4.03-1.26-1.51-2.1-3.4-2.51-5.65-.13-.68-.16-1.57-.07-2.68,.09-1.1,.21-2.07,.37-2.91,.16-.84,.29-1.35,.41-1.56,.11-.2,.12,.26,.03,1.39-.09,.63-.19,1.32-.3,2.06-.11,.75-.12,1.5-.03,2.27,.22,2.3,.94,4.21,2.13,5.72,1.19,1.51,2.63,2.86,4.3,4.03,1.67,1.17,3.47,2.3,5.39,3.39,1.92,1.08,3.73,2.35,5.42,3.79,1.69,1.44,3.15,3.19,4.37,5.25,1.22,2.05,1.96,4.66,2.24,7.82,.04,.27,.07,.69,.07,1.25s-.03,1.11-.1,1.62Zm-37.83-10.12c1.26-.05,2.1-.07,2.51-.07,.99,.09,1.78,.15,2.37,.17,.59,.02,1.05,.02,1.39,0,.34-.02,.58-.07,.71-.14,.13-.07,.2-.17,.2-.3,.04-1.08,.04-2.21,0-3.38-.05-1.17-.11-2.24-.2-3.18-.09-.95-.18-1.74-.27-2.37-.09-.63-.18-.95-.27-.95s-.23,.15-.41,.44c-.18,.29-.41,.63-.68,1.02-.27,.39-.58,.75-.91,1.08-.34,.34-.71,.58-1.12,.71-.5,.14-1.3,.27-2.4,.41-1.11,.14-2.24,.22-3.39,.24-1.15,.02-2.18-.03-3.08-.17-.9-.14-1.38-.41-1.42-.81-.05-.72-.12-1.64-.24-2.74-.11-1.1-.16-2.17-.14-3.18,.02-1.02,.16-1.88,.41-2.61,.25-.72,.73-1.08,1.46-1.08,.68,0,1.23,.03,1.66,.1,.43,.07,.8,.14,1.12,.2,.32,.07,.6,.16,.85,.27,.25,.11,.51,.19,.78,.24,.32,.09,.62,.28,.91,.58,.29,.29,.55,.59,.78,.88,.22,.29,.41,.54,.54,.75,.14,.2,.25,.3,.34,.3,.18,0,.33-.55,.44-1.66,.11-1.1,.17-2.31,.17-3.62s-.06-2.52-.17-3.62c-.11-1.1-.26-1.66-.44-1.66-.09,0-.2,.1-.34,.3-.13,.2-.32,.45-.54,.74-.23,.29-.49,.59-.78,.88-.29,.29-.6,.49-.91,.58-.09,0-.44,.01-1.05,.03-.61,.02-1.26,.02-1.96,0-.7-.02-1.36-.04-1.97-.07-.61-.02-.94-.08-.98-.17-.32-.27-.47-1.06-.47-2.37,0-1.13,.02-1.87,.07-2.23,.04-.36,.09-.62,.13-.78,.04-.16,.09-.35,.14-.58,.04-.23,.11-.79,.2-1.69,2.71-.14,4.91-.21,6.6-.24,1.69-.02,3.06,.15,4.1,.51,.41,.13,.79,.37,1.15,.71,.36,.34,.68,.7,.95,1.08,.27,.39,.49,.72,.64,1.02s.28,.44,.37,.44,.18-.32,.27-.95c.09-.63,.18-1.43,.27-2.4,.09-.97,.16-2.03,.2-3.18,.04-1.15,.04-2.27,0-3.35,0-.32-.29-.47-.88-.47s-1.85,.07-3.79,.2c-.36,.05-1.19,.05-2.47,0-1.29-.04-2.77-.08-4.44-.1-1.67-.02-3.42-.03-5.25-.03s-3.49,.03-4.98,.1c-1.49,.07-2.68,.2-3.56,.41-.88,.2-1.23,.48-1.05,.85,.63,.27,1.14,.58,1.52,.91,.38,.34,.76,.79,1.12,1.36,.36,.56,.59,1.3,.68,2.2,.23,1.99,.41,3.69,.54,5.11,.13,1.42,.24,2.72,.3,3.89,.07,1.17,.1,2.28,.1,3.32s-.03,2.13-.1,3.28c-.07,1.15-.17,2.45-.3,3.89-.14,1.45-.32,3.16-.54,5.15-.09,.9-.32,1.64-.68,2.2-.36,.57-.74,1.02-1.12,1.35-.38,.34-.89,.64-1.52,.91v.27c-.18,.41,.17,.7,1.05,.88,.88,.18,2.04,.3,3.49,.37,1.44,.07,3.06,.09,4.84,.07,1.78-.02,3.49-.06,5.12-.1,1.63-.04,3.07-.09,4.34-.13Zm-7.28-31.69c.11-.06,.29-.12,.54-.18,.25-.06,.51-.09,.78-.09,1.8-.04,3.14-.06,4-.03,.86,.02,1.52,.06,2,.1,.47,.05,.92,.07,1.35,.07s1.14-.04,2.13-.13c.32-.04,.53-.04,.64,.03,.11,.06,.19,.14,.24,.22,.04,.08,.04,.16,0,.24-.05,.08-.09,.12-.14,.12-1.54,.05-2.75,.07-3.66,.07h-2.37c-.68,0-1.34-.02-2-.07-.66-.04-1.52-.07-2.61-.07-.5,0-.8-.03-.91-.09-.11-.06-.11-.12,0-.18Zm-4.64,18.82c-.05,1.81-.13,3.49-.27,5.04-.14,1.56-.32,2.86-.54,3.89-.09,.54-.26,.78-.51,.71-.25-.07-.35-.35-.3-.85,.04-.63,.09-1.6,.14-2.91,.04-1.31,.08-2.8,.1-4.47,.02-1.67,.04-3.45,.07-5.35,.02-1.9,.04-3.75,.07-5.55,.02-1.81,.05-3.48,.07-5.01,.02-1.53,.06-2.78,.1-3.72,0-.99,.15-1.4,.44-1.22,.29,.18,.44,.65,.44,1.42,0,.54,.02,1.45,.07,2.71,.04,1.26,.09,2.73,.13,4.4,.05,1.67,.07,3.45,.07,5.35s-.02,3.75-.07,5.55Zm4.64,8.36c-.11-.07-.11-.15,0-.24,.11-.09,.29-.17,.54-.24,.25-.07,.51-.1,.78-.1,1.8-.04,3.14-.04,4,0,.86,.05,1.52,.08,2,.1,.47,.02,.92,.05,1.35,.07,.43,.02,1.14-.01,2.13-.1,.32-.04,.53-.03,.64,.03,.11,.07,.19,.15,.24,.24,.04,.09,.04,.17,0,.24-.05,.07-.09,.1-.14,.1-1.54,.09-2.75,.14-3.66,.14h-2.37c-.68,0-1.34-.02-2-.07-.66-.05-1.52-.07-2.61-.07-.5,0-.8-.03-.91-.1Zm-78.17-65.87c-.13,1.69-.27,3.36-.43,5.02-.16,1.66-.31,3.19-.43,4.59-.13,1.28-.45,2.31-.96,3.11-.51,.8-1.03,1.45-1.54,1.96-.64,.57-1.35,.99-2.12,1.24-.26,.45,.08,.8,1.01,1.05,.93,.26,2.16,.46,3.7,.62,1.54,.16,3.25,.27,5.14,.34,1.89,.06,3.64,.06,5.24,0,1.6-.06,2.96-.16,4.09-.29,1.12-.13,1.68-.25,1.68-.38s-.16-.35-.48-.67c-.32-.32-.69-.72-1.11-1.19-.42-.48-.83-1.04-1.25-1.67-.42-.64-.69-1.31-.82-2.01-.26-1.4-.47-3.54-.62-6.41-.16-2.87-.29-6.07-.38-9.61-.1-3.54-.13-7.27-.1-11.19,.03-3.92,.08-7.62,.14-11.09,.06-3.47,.19-6.58,.38-9.32,.19-2.74,.38-4.72,.58-5.93,.13-.7,.4-1.37,.82-2.01,.42-.64,.83-1.19,1.25-1.67,.42-.48,.78-.87,1.11-1.19,.32-.32,.48-.54,.48-.67s-.56-.25-1.68-.38c-1.12-.13-2.48-.22-4.09-.29-1.6-.06-3.35-.06-5.24,0-1.89,.06-3.61,.18-5.14,.34-1.54,.16-2.77,.37-3.7,.62-.93,.26-1.26,.61-1.01,1.05,.9,.26,1.7,.67,2.4,1.24,.64,.51,1.23,1.16,1.78,1.96,.54,.8,.88,1.83,1.01,3.11,.19,1.4,.34,3.36,.43,5.88,.1,2.52,.16,5.21,.19,8.08,.03,2.87,.06,5.74,.1,8.61,.03,2.87,.05,5.36,.05,7.46,0,1.47-.05,3.03-.14,4.69-.1,1.66-.21,3.33-.34,5.02Zm2.07,7.36c.1-2.14,.16-4.77,.19-7.89,.03-3.12,.06-6.57,.1-10.33,.03-3.76,.06-7.47,.1-11.14,.03-3.66,.06-7.08,.1-10.23,.03-3.16,.08-5.69,.14-7.6,.06-1.85,.29-2.6,.67-2.25,.38,.35,.58,1.23,.58,2.63,0,1.09,.03,2.84,.1,5.26,.06,2.42,.13,5.21,.19,8.37,.06,3.16,.08,6.54,.05,10.14-.03,3.6-.08,7.09-.14,10.47-.06,3.38-.21,6.5-.43,9.37-.23,2.87-.5,5.13-.82,6.79-.13,.51-.31,.62-.53,.33-.23-.29-.4-.33-.53-.14,.06-.38,.14-1.64,.24-3.78Zm182.56,19.17c-.8-1.02-2.02-1.59-3.65-1.72-1.63-.13-3.61,.6-5.91,2.2-.71,.51-1.12,.1-1.25-1.24-.13-1.34-.24-3.17-.34-5.5-.1-2.33-.27-4.94-.53-7.84-.26-2.9-.8-5.71-1.63-8.42-.83-2.71-2.08-5.1-3.75-7.17-1.67-2.07-3.94-3.43-6.83-4.06,.32-.13,.67-.27,1.06-.43,.39-.16,.74-.34,1.06-.53,3.08-1.59,5.48-3.79,7.21-6.6,1.73-2.8,2.79-5.8,3.17-8.99,.39-3.19,.1-6.37-.86-9.56-.96-3.19-2.6-5.93-4.9-8.22-2.63-2.61-5.98-4.32-10.05-5.11-4.07-.8-8.93-1.23-14.56-1.29-1.67-.06-3.44-.06-5.34,0-1.89,.06-3.62,.16-5.19,.29-1.57,.13-2.84,.34-3.8,.62-.96,.29-1.31,.66-1.06,1.1,.9,.26,1.7,.67,2.4,1.24,.64,.51,1.23,1.16,1.78,1.96,.54,.8,.88,1.83,1.01,3.11,.19,1.4,.34,3.36,.43,5.88,.1,2.52,.16,5.21,.19,8.08,.03,2.87,.06,5.74,.1,8.61,.03,2.87,.05,5.36,.05,7.46,0,1.47-.05,3.03-.14,4.69-.1,1.66-.21,3.33-.34,5.02-.13,1.69-.27,3.36-.43,5.02-.16,1.66-.31,3.19-.43,4.59-.13,1.28-.45,2.31-.96,3.11-.51,.8-1.03,1.45-1.54,1.96-.64,.57-1.34,.99-2.11,1.24-.26,.45,.08,.8,1.01,1.05,.93,.26,2.16,.46,3.7,.62,1.54,.16,3.25,.27,5.14,.34,1.89,.06,3.64,.06,5.24,0,1.6-.06,2.96-.16,4.09-.29s1.68-.25,1.68-.38-.16-.35-.48-.67c-.32-.32-.69-.72-1.11-1.19-.42-.48-.83-1.04-1.25-1.67-.42-.64-.69-1.31-.82-2.01-.32-1.47-.55-3.66-.67-6.6-.13-2.93-.26-6.22-.39-9.85,0-.7,.48-1.1,1.44-1.19,.96-.1,2.08,.02,3.36,.33,3.78,.83,6.68,2.12,8.7,3.87,2.02,1.75,3.51,3.78,4.47,6.07,.96,2.3,1.57,4.75,1.83,7.36,.26,2.62,.54,5.21,.86,7.79,.32,2.58,.85,5.04,1.59,7.36,.74,2.33,2.03,4.32,3.89,5.98,.83,.77,1.86,1.39,3.08,1.86,1.22,.48,2.47,.77,3.75,.86,1.28,.1,2.55,.02,3.8-.24,1.25-.26,2.32-.77,3.22-1.53,1.22-1.02,1.89-2.25,2.02-3.68,.13-1.44-.21-2.66-1.01-3.68Zm-47.11-31.65c-.1,3.38-.24,6.5-.43,9.37-.19,2.87-.45,5.13-.77,6.79-.13,.51-.32,.62-.58,.34-.26-.29-.45-.34-.58-.14,.06-.38,.14-1.62,.24-3.73,.1-2.1,.16-4.73,.19-7.89,.03-3.16,.06-6.61,.1-10.38,.03-3.76,.06-7.46,.1-11.09,.03-3.63,.06-7.04,.1-10.23,.03-3.19,.08-5.74,.14-7.65,.06-1.85,.29-2.6,.67-2.25,.39,.35,.61,1.23,.67,2.63,0,1.08,.03,2.84,.1,5.26,.06,2.42,.11,5.21,.15,8.37,.03,3.16,.05,6.54,.05,10.14s-.05,7.09-.14,10.47Zm23.89-35.91c.45,.29,.9,.67,1.34,1.15,.45,.48,.87,1,1.25,1.58,.39,.57,.64,1.12,.77,1.62,.13,.51,.26,.93,.39,1.24,.13,.32,.24,.62,.34,.91,.1,.29,.18,.62,.24,1,.06,.38,.16,.92,.29,1.62,.32,2.04,.5,3.84,.53,5.4,.03,1.56-.21,3.3-.72,5.21-.13,.45-.29,.97-.48,1.58-.19,.61-.4,1.21-.62,1.82-.23,.61-.47,1.15-.72,1.63-.26,.48-.48,.81-.67,1-.13,.13-.26,.29-.38,.48-.13,.19-.26,.22-.39,.09,1.02-1.85,1.71-4.09,2.07-6.74,.35-2.64,.42-5.27,.19-7.89-.23-2.61-.74-5.04-1.54-7.27-.8-2.23-1.81-3.86-3.03-4.88,.32,0,.7,.14,1.15,.43Zm-6.97,29.17c-2.85,1.37-6.46,1.71-10.82,1v-7.55c0-2.55,.02-4.99,.05-7.32,.03-2.33,.1-4.53,.19-6.6,.1-2.07,.21-3.87,.34-5.4,.13-1.27,.21-2.31,.24-3.11,.03-.8,.16-1.4,.39-1.82,.22-.41,.62-.7,1.2-.86,.58-.16,1.44-.24,2.6-.24,3.2,0,5.91,.89,8.12,2.68,2.21,1.79,3.86,4.02,4.95,6.69,1.09,2.68,1.59,5.53,1.49,8.56-.1,3.03-.87,5.77-2.31,8.22-1.44,2.45-3.59,4.37-6.44,5.74Zm-114.16-26.73c.13,1.59,.24,3.62,.34,6.07,.1,2.45,.16,5.05,.19,7.79,.03,2.74,.06,5.44,.1,8.08,.03,2.65,.05,4.96,.05,6.93-.06,2.93-.24,6.17-.53,9.71s-.59,6.74-.91,9.61c-.13,1.28-.45,2.31-.96,3.11-.51,.8-1.03,1.45-1.54,1.96-.64,.57-1.35,.99-2.11,1.24-.26,.45,.1,.8,1.06,1.05,.96,.26,2.21,.46,3.75,.62,1.54,.16,3.24,.27,5.1,.34,1.86,.06,3.59,.06,5.19,0,1.6-.06,2.97-.16,4.09-.29,1.12-.13,1.68-.25,1.68-.38s-.16-.35-.48-.67c-.32-.32-.69-.72-1.1-1.19-.42-.48-.82-1.04-1.2-1.67-.39-.64-.64-1.31-.77-2.01-.26-1.27-.47-3.12-.62-5.55-.16-2.42-.29-5.18-.39-8.27-.09-3.09-.14-6.36-.14-9.8s.02-6.82,.05-10.14c.03-3.31,.09-6.41,.19-9.28,.1-2.87,.24-5.29,.43-7.27,3.14-.13,6.06-.14,8.75-.05,2.69,.09,4.64,.3,5.86,.62,.58,.19,1.11,.54,1.59,1.05,.48,.51,.91,1.02,1.3,1.53,.38,.51,.7,.97,.96,1.39,.25,.41,.45,.62,.58,.62s.25-.45,.38-1.34c.13-.89,.25-2.01,.38-3.35,.13-1.34,.21-2.84,.24-4.5,.03-1.66,.02-3.25-.05-4.78,0-.38-.42-.59-1.25-.62-.83-.03-2.63,.05-5.38,.24-2.12,.13-4.92,.22-8.41,.29-3.49,.06-7.1,.09-10.82,.09s-7.3-.03-10.77-.09c-3.46-.06-6.19-.16-8.17-.29-1.41-.06-2.53-.13-3.36-.19-.83-.06-1.49-.08-1.97-.05-.48,.03-.82,.09-1.01,.19-.19,.1-.29,.24-.29,.43-.06,1.53-.06,3.12,0,4.78,.06,1.66,.16,3.16,.29,4.5,.13,1.34,.26,2.45,.38,3.35,.13,.89,.26,1.34,.38,1.34s.32-.21,.58-.62c.26-.41,.58-.88,.96-1.39,.38-.51,.82-1.02,1.3-1.53,.48-.51,1.01-.86,1.59-1.05,1.22-.32,3.16-.53,5.82-.62,2.66-.1,5.56-.08,8.7,.05Zm10.86-3.01c.13-.1,.35-.19,.67-.29,.32-.1,.67-.14,1.06-.14,2.31,0,4,.03,5.1,.1,1.09,.06,1.94,.13,2.55,.19,.61,.06,1.18,.11,1.73,.14,.54,.03,1.46,.02,2.74-.05,.83-.06,1.22,.06,1.15,.38-.07,.32-.13,.48-.19,.48-1.99,.06-3.56,.1-4.71,.1s-2.16-.03-3.03-.1c-.87-.06-1.73-.13-2.6-.19-.86-.06-1.97-.13-3.32-.19-.58,0-.95-.05-1.11-.14-.16-.09-.18-.19-.05-.29Zm-8.51,49.25c.1-1.94,.16-4.37,.19-7.27,.03-2.9,.06-6.09,.1-9.56,.03-3.47,.06-6.92,.1-10.33,.03-3.41,.06-6.61,.09-9.61,.03-3,.08-5.45,.15-7.36,0-1.78,.21-2.52,.62-2.2,.41,.32,.62,1.18,.62,2.58,0,1.09,.03,2.76,.1,5.02,.06,2.26,.13,4.85,.19,7.75,.06,2.9,.08,6.01,.05,9.32-.03,3.32-.08,6.55-.14,9.71-.07,3.15-.21,6.07-.43,8.75-.23,2.68-.5,4.85-.82,6.5-.13,.51-.3,.62-.53,.33-.23-.29-.4-.33-.53-.14,.06-.38,.14-1.55,.24-3.49Zm-16.2-48.34c-.38,0-.74-.05-1.06-.14-.32-.1-.54-.19-.67-.29-.13-.1-.11-.19,.05-.29,.16-.1,.53-.17,1.11-.24,1.35-.06,2.45-.11,3.32-.14,.87-.03,1.73-.08,2.6-.14,.87-.06,1.88-.1,3.03-.1s2.72,.03,4.71,.1c.13,0,.21,.16,.24,.48,.03,.32-.37,.45-1.2,.38-1.28-.06-2.2-.08-2.74-.05-.55,.03-1.12,.08-1.73,.14-.61,.06-1.46,.13-2.55,.19-1.09,.06-2.79,.1-5.1,.1Zm45.37,58.62c1.86,.06,3.61,.06,5.24,0,1.63-.06,3.01-.16,4.13-.29,1.12-.13,1.71-.25,1.78-.38,.06-.13-.03-.35-.29-.67-.26-.32-.53-.72-.82-1.19s-.55-1.04-.77-1.67c-.23-.64-.31-1.31-.24-2.01,.13-1.08,.42-2.76,.87-5.02,.45-2.26,1.02-4.86,1.73-7.79,.38-1.72,1.46-3.03,3.22-3.92,1.76-.89,3.65-1.39,5.67-1.48,2.02-.09,3.91,.22,5.67,.96,1.76,.73,2.84,1.9,3.22,3.49,.7,3.19,1.31,5.99,1.83,8.42,.51,2.42,.8,4.21,.86,5.35,.06,.7-.02,1.37-.24,2.01s-.48,1.19-.77,1.67c-.29,.48-.54,.88-.77,1.19-.22,.32-.3,.54-.24,.67,.06,.19,.66,.33,1.78,.43s2.5,.18,4.13,.24c1.63,.06,3.38,.06,5.24,0,1.86-.06,3.54-.17,5.05-.34,1.51-.16,2.69-.37,3.56-.62,.87-.25,1.11-.61,.72-1.05-.96-.25-1.89-.67-2.79-1.24-.77-.51-1.54-1.16-2.31-1.96s-1.41-1.83-1.92-3.11c-.51-1.4-1.15-3.36-1.92-5.88-.77-2.52-1.57-5.21-2.4-8.08-.83-2.87-1.65-5.74-2.45-8.61-.8-2.87-1.49-5.36-2.07-7.46-1.54-5.99-2.68-10.82-3.41-14.49-.74-3.66-1.36-6.52-1.88-8.56-.38-1.4-.67-2.44-.87-3.11-.19-.67-.54-1.11-1.06-1.34-.51-.22-1.28-.3-2.31-.24-1.03,.06-2.56,.1-4.61,.1s-3.7-.03-4.76-.1c-1.06-.06-1.84,.03-2.35,.29-.51,.26-.85,.77-1.01,1.53-.16,.77-.43,1.95-.82,3.54-.51,2.04-1.12,4.86-1.83,8.46-.71,3.6-1.8,8.24-3.27,13.91-.58,2.1-1.28,4.59-2.12,7.46-.83,2.87-1.67,5.74-2.5,8.61-.83,2.87-1.63,5.56-2.4,8.08-.77,2.52-1.41,4.48-1.92,5.88-.51,1.28-1.15,2.31-1.92,3.11s-1.52,1.43-2.26,1.91c-.74,.48-1.68,.91-2.84,1.29-.32,.45-.05,.8,.82,1.05,.87,.26,2.05,.46,3.56,.62,1.51,.16,3.19,.27,5.05,.34Zm31.63-21.04c.06-.32,.19-.43,.39-.34,.19,.1,.42,.38,.67,.86,.26,.48,.45,1.07,.58,1.77,.26,1.59,.48,2.68,.67,3.25,.19,.57,.35,1.15,.48,1.72,.13,.57,.27,1.39,.43,2.44,.16,1.05,.37,2.82,.62,5.31,0,.06-.05,.18-.14,.33-.1,.16-.19,.24-.29,.24s-.21-.11-.34-.33c-.13-.22-.22-.65-.29-1.29-.06-.57-.14-1.12-.24-1.63-.1-.51-.24-1.16-.43-1.96-.19-.8-.43-1.87-.72-3.2-.29-1.34-.69-3.12-1.2-5.36-.19-.89-.26-1.5-.19-1.82Zm-8.17-36.53c.06-.32,.19-.43,.39-.34,.19,.1,.42,.38,.67,.86,.26,.48,.45,1.07,.58,1.77,.26,1.59,.56,3.2,.91,4.83,.35,1.62,.72,3.36,1.11,5.21,.39,1.85,.8,3.86,1.25,6.02,.45,2.17,.87,4.53,1.25,7.08,0,.06-.05,.16-.14,.29-.1,.13-.19,.19-.29,.19s-.21-.1-.34-.29c-.13-.19-.23-.64-.29-1.34-.06-.57-.26-1.64-.58-3.2-.32-1.56-.72-3.4-1.2-5.5-.48-2.1-.99-4.35-1.54-6.74s-1.07-4.7-1.59-6.93c-.19-.96-.26-1.59-.19-1.91Zm-7.45,20.32c.54-2.58,1.09-5.2,1.63-7.84,.54-2.65,1.07-5.15,1.59-7.51,.51-2.36,1.02-4.27,1.54-5.74,.45,1.47,.93,3.39,1.44,5.79,.51,2.39,1.01,4.91,1.49,7.55,.48,2.65,.98,5.26,1.49,7.84,.51,2.58,1.02,4.83,1.54,6.74-1.67,.06-3.56,.09-5.67,.09s-4.29-.06-6.54-.19c.45-1.91,.95-4.16,1.49-6.74Zm-14.76,26.58c.64-2.14,1.38-4.76,2.21-7.89,.83-3.12,1.75-6.57,2.74-10.33,.99-3.76,1.97-7.47,2.93-11.14,.96-3.67,1.86-7.08,2.69-10.23,.83-3.16,1.51-5.69,2.02-7.6,.51-1.85,.93-2.6,1.25-2.25,.32,.35,.32,1.23,0,2.63-.26,1.09-.66,2.84-1.2,5.26-.55,2.42-1.2,5.21-1.97,8.37-.77,3.15-1.62,6.54-2.55,10.14-.93,3.6-1.88,7.09-2.84,10.47-.96,3.38-1.91,6.5-2.84,9.37-.93,2.87-1.78,5.13-2.55,6.79-.26,.51-.47,.62-.63,.34-.16-.29-.34-.34-.53-.14,.19-.38,.61-1.64,1.25-3.78Zm-141.7-15.78c-.96-.16-2.15-.27-3.56-.34-1.41-.06-2.9-.09-4.47-.09s-3.01,.05-4.33,.14c-1.31,.1-2.37,.27-3.17,.53-.8,.26-1.07,.61-.82,1.05-.06,1.02-.1,1.98-.1,2.87,0,.77-.02,1.52-.05,2.25-.03,.73-.05,1.23-.05,1.48,0,.13,.11,.13,.34,0,.22-.13,.53-.3,.91-.53,.38-.22,.82-.46,1.3-.72,.48-.25,.98-.41,1.49-.48,1.28-.19,2.51-.34,3.7-.43,1.19-.1,1.78,.11,1.78,.62,.06,1.85,.08,3.81,.05,5.88-.03,2.07-.32,3.98-.87,5.74-.54,1.75-1.49,3.17-2.84,4.26-1.35,1.08-3.3,1.53-5.86,1.34-1.92-.13-3.78-.92-5.58-2.39-1.15-.96-2.23-2.3-3.22-4.02-.99-1.72-1.8-3.83-2.4-6.31-.61-2.49-1.03-5.34-1.25-8.56-.22-3.22-.18-6.8,.14-10.76,.32-4.33,.95-8.22,1.87-11.67,.93-3.44,2.03-6.34,3.32-8.7,1.28-2.36,2.68-4.13,4.18-5.31,1.51-1.18,3.03-1.71,4.57-1.58,.64,.06,1.35,.14,2.11,.24s1.47,.3,2.12,.62c.64,.32,1.17,.8,1.59,1.43,.42,.64,.59,1.53,.53,2.68-.13,2.62,.32,4.45,1.35,5.5,1.02,1.05,2.16,1.52,3.41,1.39,1.25-.13,2.42-.78,3.51-1.96,1.09-1.18,1.6-2.73,1.54-4.64-.06-1.72-.58-3.19-1.54-4.4-.96-1.21-2.15-2.23-3.56-3.06-1.41-.83-2.95-1.45-4.61-1.87-1.67-.41-3.24-.68-4.71-.81-3.65-.32-7.18,.19-10.57,1.53-3.4,1.34-6.31,3.28-8.75,5.83-1.99,2.1-3.56,5.29-4.71,9.56-1.15,4.27-1.89,9.05-2.21,14.35-.19,2.74-.29,5.58-.29,8.51s.19,5.8,.58,8.61c.38,2.81,1.06,5.47,2.02,7.99,.96,2.52,2.32,4.7,4.09,6.55,1.76,1.85,4,3.33,6.73,4.45,2.72,1.11,6.04,1.64,9.95,1.58,3.27,0,6.12-.61,8.56-1.82v.29c0,.19,.46,.4,1.39,.62,.93,.22,1.94,.37,3.03,.43,1.09,.06,2.1-.02,3.03-.24,.93-.22,1.39-.72,1.39-1.48,0-.7,.02-1.83,.05-3.39,.03-1.56,.05-3.28,.05-5.16s.03-3.83,.1-5.83c.06-2.01,.1-3.86,.1-5.55s.02-3.06,.05-4.11c.03-1.05,.05-1.61,.05-1.67,0-.13-.48-.27-1.44-.43Zm-30.76-31.6c-1.6,2.04-2.84,5.12-3.7,9.23-.87,4.11-1.39,8.72-1.59,13.82-.06,2.49-.08,5.04-.05,7.65,.03,2.62,.21,5.2,.53,7.75,.32,2.55,.82,4.99,1.49,7.32,.67,2.33,1.62,4.42,2.84,6.26-1.6-1.72-2.84-3.73-3.7-6.03-.87-2.29-1.51-4.73-1.92-7.32-.42-2.58-.66-5.24-.72-7.98-.06-2.74-.03-5.39,.1-7.94,.19-4.84,.72-9.21,1.59-13.1,.87-3.89,2.1-6.79,3.7-8.7,1.22-1.4,2.56-2.61,4.04-3.63-1.03,.96-1.89,1.85-2.6,2.68Zm26.73,44.56c0,.83-.06,1.8-.19,2.92-.13,1.12-.38,2.63-.77,4.54-.19,.19-.38,.32-.58,.38-.38,.13-.48-.22-.29-1.05,.19-.83,.3-2.23,.34-4.21,.03-1.98,.11-4.69,.24-8.13,.06-1.4,.32-1.96,.77-1.67,.45,.29,.64,.94,.58,1.96-.13,1.15-.18,2.1-.14,2.87,.03,.77,.05,1.56,.05,2.39Zm56.43-52.45c-1.6-.03-3.33-.03-5.19,0-1.86,.03-3.56,.13-5.1,.29s-2.79,.37-3.75,.62c-.96,.26-1.31,.61-1.06,1.05,1.02,.38,1.84,.81,2.45,1.29,.61,.48,1.2,1.13,1.78,1.96,.58,.83,.93,1.88,1.06,3.16,.13,1.28,.29,3.47,.48,6.6,.19,3.12,.34,6.6,.43,10.42s.14,7.71,.14,11.67-.1,7.43-.29,10.42c-.19,2.68-.62,5.12-1.3,7.32-.67,2.2-2.13,4.22-4.37,6.07-2.37,1.72-4.74,2.2-7.11,1.43-2.37-.83-4.12-2.17-5.24-4.02-1.12-1.85-1.89-3.87-2.31-6.07-.42-2.2-.61-4.46-.58-6.79,.03-2.33,.05-4.45,.05-6.36-.06-3.31-.08-6.69-.05-10.14,.03-3.44,.1-6.66,.19-9.66,.1-3,.22-5.66,.38-7.99,.16-2.33,.34-4.03,.53-5.12,.13-.7,.4-1.35,.82-1.96,.42-.6,.83-1.15,1.25-1.62,.42-.48,.78-.89,1.11-1.24,.32-.35,.48-.59,.48-.72s-.56-.25-1.68-.38c-1.12-.13-2.48-.21-4.09-.24-1.6-.03-3.35-.03-5.24,0-1.89,.03-3.61,.13-5.14,.29-1.54,.16-2.77,.37-3.7,.62-.93,.26-1.26,.61-1.01,1.05,.96,.38,1.75,.81,2.36,1.29,.61,.48,1.2,1.13,1.78,1.96,.58,.83,.93,1.88,1.06,3.16,.19,1.4,.34,3.35,.43,5.83,.1,2.49,.16,5.16,.19,8.03,.03,2.87,.06,5.74,.1,8.61,.03,2.87,.05,5.36,.05,7.46,0,2.3,.01,4.56,.05,6.79,.03,2.23,.19,4.37,.48,6.41,.29,2.04,.78,3.95,1.49,5.74,.7,1.79,1.73,3.38,3.08,4.78,1.79,1.72,3.99,3.09,6.58,4.11,2.6,1.02,5.75,1.59,9.47,1.72,3.72,.13,6.86-.46,9.42-1.77,2.56-1.3,4.81-2.92,6.73-4.83,1.09-1.08,1.92-2.39,2.5-3.92,.58-1.53,.98-3.23,1.2-5.12,.22-1.88,.32-3.9,.29-6.07-.03-2.17-.05-4.46-.05-6.89-.06-3.31-.08-6.71-.05-10.18,.03-3.47,.1-6.72,.19-9.75,.1-3.03,.22-5.71,.38-8.03,.16-2.33,.34-4.03,.53-5.12,.13-.7,.4-1.35,.82-1.96,.42-.6,.83-1.15,1.25-1.62,.42-.48,.77-.89,1.06-1.24,.29-.35,.43-.59,.43-.72s-.56-.25-1.68-.38c-1.12-.13-2.48-.21-4.09-.24Zm-35.14,57.47c-.16-.35-.37-.87-.62-1.58-.26-.7-.5-1.45-.72-2.25-.23-.8-.37-1.29-.43-1.48-.45-2.36-.67-4.91-.67-7.65s-.02-6.04-.05-9.51c-.03-3.47-.08-6.9-.14-10.28-.06-3.38-.1-6.53-.1-9.47v-7.08c0-.89,.07-1.5,.22-1.82,.15-.32,.28-.43,.4-.34,.12,.1,.25,.38,.4,.86,.15,.48,.22,1.04,.22,1.67,0,1.15,.05,3.06,.14,5.74,.1,2.68,.16,5.71,.19,9.09,.03,3.38,.06,6.92,.1,10.61,.03,3.7,.02,7.21-.05,10.52-.13,2.42-.02,4.81,.34,7.17,.35,2.36,.66,4.18,.91,5.45,.06,.57,.01,.69-.14,.33Zm29.51-19.46c-.1,3.76-.27,6.92-.53,9.47-.06,.7-.16,.99-.29,.86-.13-.13-.24-.41-.34-.86-.1-.45-.18-.91-.24-1.39-.06-.48-.1-.75-.1-.81,.06-1.78,.1-4.26,.1-7.41v-10.09c0-3.57-.02-7.11-.05-10.61-.03-3.51-.02-6.5,.05-8.99,0-.89,.08-1.5,.24-1.82,.16-.32,.3-.43,.43-.34,.13,.1,.27,.38,.43,.86,.16,.48,.24,1.04,.24,1.67,0,1.59,.03,4.03,.1,7.32,.06,3.28,.1,6.85,.1,10.71s-.05,7.67-.14,11.43Z" style="fill:#333;"/></svg>