<?xml version="1.0" standalone="no"?>
<!DOCTYPE svg PUBLIC "-//W3C//DTD SVG 20010904//EN"
 "http://www.w3.org/TR/2001/REC-SVG-20010904/DTD/svg10.dtd">
<svg version="1.0" xmlns="http://www.w3.org/2000/svg"
 width="700.000000pt" height="700.000000pt" viewBox="0 0 700.000000 700.000000"
 preserveAspectRatio="xMidYMid meet">
<metadata>
Created by potrace 1.11, written by Peter Selinger 2001-2013
</metadata>
<g transform="translate(0.000000,700.000000) scale(0.100000,-0.100000)"
fill="#000000" stroke="none">
<path d="M3450 6631 c-19 -4 -60 -17 -90 -30 l-55 -23 3 -84 c3 -80 2 -84 -18
-84 -11 0 -23 7 -26 15 -7 18 -65 20 -82 3 -7 -7 -12 -26 -12 -43 0 -40 16
-55 56 -55 24 0 34 5 39 20 3 11 14 20 24 20 21 0 31 -35 31 -106 0 -40 -2
-44 -25 -44 -14 0 -29 8 -35 20 -13 24 -52 26 -74 4 -18 -18 -21 -56 -6 -85
14 -26 66 -26 82 1 7 11 23 20 35 20 22 0 23 -4 23 -70 l0 -70 -29 0 c-16 0
-31 6 -35 15 -8 22 -63 19 -76 -4 -15 -29 -12 -67 6 -85 22 -22 61 -20 74 4 6
12 21 20 35 20 22 0 25 -4 25 -37 0 -20 7 -44 16 -54 9 -10 18 -36 21 -58 4
-25 11 -41 19 -41 11 0 14 20 14 89 0 50 -4 93 -10 96 -17 10 -11 44 10 57 16
10 20 24 20 63 0 39 -4 53 -20 63 -29 18 -26 60 4 68 15 3 27 15 29 27 4 19 4
19 6 -4 0 -14 6 -30 11 -35 6 -6 7 -30 3 -60 -6 -41 -8 -45 -14 -24 -5 18 -7
9 -8 -32 -1 -57 14 -87 22 -46 3 13 4 1 3 -27 -1 -42 -5 -52 -23 -60 -21 -9
-23 -16 -23 -92 l0 -83 64 0 c53 0 65 3 69 18 4 16 5 16 6 0 0 -10 8 -18 15
-18 11 0 16 15 19 53 l3 52 2 -52 c2 -49 4 -53 27 -53 21 0 25 5 25 28 0 15 9
42 20 60 11 18 20 48 20 67 0 32 2 35 30 35 19 0 33 -7 40 -20 13 -24 52 -26
74 -4 18 18 21 56 6 85 -13 23 -62 26 -80 4 -7 -8 -25 -15 -41 -15 l-29 0 0
70 0 70 30 0 c19 0 33 -7 40 -20 12 -23 59 -27 78 -8 17 17 15 74 -4 92 -22
22 -61 20 -74 -4 -14 -25 -76 -29 -66 -4 3 9 6 42 6 75 0 56 1 59 24 59 16 0
27 -7 31 -20 5 -15 15 -20 39 -20 40 0 56 15 56 55 0 17 -5 36 -12 43 -17 17
-75 15 -82 -3 -3 -8 -17 -15 -32 -15 l-27 0 6 83 6 82 -67 27 c-78 31 -124 39
-172 29z m-12 -213 c16 -16 15 -55 -2 -65 -7 -4 -16 -15 -19 -23 -4 -12 -6
-11 -6 3 -1 9 -8 17 -16 17 -20 0 -30 46 -15 65 15 18 42 19 58 3z m186 -4
c22 -21 20 -37 -7 -60 -21 -19 -24 -19 -40 -4 -20 19 -22 51 -5 68 16 16 33
15 52 -4z m4 -186 c18 -18 15 -45 -7 -60 -10 -8 -21 -25 -24 -38 -4 -24 -4
-24 -6 3 0 15 -5 27 -11 27 -16 0 -23 49 -10 65 15 18 42 19 58 3z m-61 -150
c-3 -7 -5 -2 -5 12 0 14 2 19 5 13 2 -7 2 -19 0 -25z m63 -43 c16 -19 -2 -65
-25 -65 -8 0 -15 -6 -16 -12 0 -8 -3 -7 -6 2 -3 8 -12 23 -20 32 -11 13 -12
21 -3 37 13 25 52 28 70 6z m-173 -107 c-2 -13 -4 -5 -4 17 -1 22 1 32 4 23 2
-10 2 -28 0 -40z m-30 -85 c-2 -21 -4 -6 -4 32 0 39 2 55 4 38 2 -18 2 -50 0
-70z m40 -15 c-2 -13 -4 -5 -4 17 -1 22 1 32 4 23 2 -10 2 -28 0 -40z"/>
<path d="M3362 5738 c4 -74 28 -77 28 -4 0 44 -3 56 -16 56 -12 0 -14 -10 -12
-52z"/>
<path d="M3400 5734 c0 -40 4 -54 14 -54 8 0 17 10 19 23 4 19 4 20 6 2 1 -18
8 -20 61 -20 l60 0 2 35 1 35 4 -31 c3 -24 10 -33 28 -37 14 -2 27 -2 30 1 9
10 5 102 -5 102 -5 0 -10 -6 -10 -12 0 -10 -2 -10 -8 -1 -5 9 -39 12 -105 12
l-97 0 0 -55z m77 -11 c-3 -10 -5 -2 -5 17 0 19 2 27 5 18 2 -10 2 -26 0 -35z
m50 0 c-3 -10 -5 -2 -5 17 0 19 2 27 5 18 2 -10 2 -26 0 -35z"/>
<path d="M3360 5590 l0 -80 35 0 35 0 0 80 c0 63 -3 80 -15 80 -10 0 -15 -16
-18 -62 l-3 -63 -2 63 c-2 48 -5 62 -17 62 -12 0 -15 -16 -15 -80z"/>
<path d="M3440 5590 l0 -80 60 0 60 0 0 80 0 80 -60 0 -60 0 0 -80z"/>
<path d="M3570 5590 l0 -80 30 0 30 0 0 80 c0 62 -3 80 -14 80 -8 0 -17 -6
-19 -12 -4 -10 -6 -10 -6 0 -1 6 -5 12 -11 12 -6 0 -10 -33 -10 -80z"/>
<path d="M3360 5419 l0 -79 100 0 100 0 0 79 0 79 -59 0 c-57 0 -60 -2 -64
-27 l-4 -26 -2 27 c-1 23 -5 26 -36 26 l-35 0 0 -79z"/>
<path d="M3570 5421 l0 -80 30 1 30 1 0 79 0 78 -30 0 -30 0 0 -79z"/>
<path d="M3360 5260 c0 -64 10 -89 23 -57 4 10 6 10 6 0 1 -9 25 -13 86 -13
l85 0 0 70 0 70 -100 0 -100 0 0 -70z"/>
<path d="M3570 5260 c0 -56 3 -70 15 -70 12 0 15 14 15 70 0 56 -3 70 -15 70
-12 0 -15 -14 -15 -70z"/>
<path d="M3610 5260 c0 -40 4 -70 10 -70 6 0 10 30 10 70 0 40 -4 70 -10 70
-6 0 -10 -30 -10 -70z"/>
<path d="M3356 5164 c-3 -9 -6 -40 -6 -70 0 -41 4 -54 15 -54 12 0 15 14 15
70 0 66 -10 90 -24 54z"/>
<path d="M3390 5108 l0 -68 105 0 105 0 0 70 c0 54 -3 70 -14 70 -11 0 -16
-15 -19 -52 l-3 -53 -2 52 -2 52 -85 -1 -85 -1 0 -69z"/>
<path d="M3610 5110 c0 -58 3 -70 16 -70 11 0 14 5 10 16 -3 9 -6 40 -6 70 0
30 -4 54 -10 54 -6 0 -10 -30 -10 -70z"/>
<path d="M2818 4792 c-246 -141 -447 -260 -448 -264 -1 -32 92 14 464 228 226
130 417 242 424 249 8 7 12 20 10 29 -2 12 -112 -47 -450 -242z"/>
<path d="M3720 5031 c0 -13 75 -61 293 -186 160 -93 353 -204 427 -247 120
-69 190 -95 190 -70 0 7 -891 522 -903 522 -4 0 -7 -8 -7 -19z"/>
<path d="M3354 5016 c-10 -25 1 -119 14 -124 9 -3 12 15 12 67 0 66 -12 93
-26 57z"/>
<path d="M3390 4960 l0 -67 88 3 c48 1 104 3 125 3 l38 1 -3 63 -3 62 -122 1
-123 1 0 -67z"/>
<path d="M3720 4881 c0 -14 15 -29 48 -48 l47 -28 -44 -5 c-25 -3 -46 -11 -49
-17 -3 -10 17 -13 75 -13 71 0 84 -3 138 -35 33 -19 54 -35 48 -35 -29 0 -11
-20 18 -20 17 0 57 -15 88 -32 l56 -33 -200 -5 c-281 -7 -259 -24 35 -28 l231
-2 47 -30 47 -30 -47 0 c-50 0 -64 -13 -25 -24 54 -14 188 -1 167 17 -7 5
-662 381 -672 385 -4 2 -8 -6 -8 -17z"/>
<path d="M3215 4869 c-16 -10 -157 -92 -312 -182 -259 -148 -280 -162 -247
-165 25 -2 48 5 84 27 36 22 63 31 107 33 58 3 75 18 32 28 -35 8 231 160 279
160 29 0 34 3 29 20 -3 13 1 21 13 25 29 9 70 45 70 61 0 19 -19 17 -55 -7z"/>
<path d="M3350 4820 c0 -47 3 -60 15 -60 12 0 15 13 15 60 0 47 -3 60 -15 60
-12 0 -15 -13 -15 -60z"/>
<path d="M3390 4820 c0 -46 3 -60 14 -60 10 0 16 13 19 38 l4 37 1 -37 2 -38
105 0 105 0 0 60 0 60 -125 0 -125 0 0 -60z"/>
<path d="M3354 4741 c-2 -2 -4 -28 -4 -58 l0 -53 35 0 35 0 0 60 0 59 -31 -2
c-17 -1 -32 -4 -35 -6z"/>
<path d="M3430 4689 l0 -59 89 0 90 0 4 53 3 52 2 -52 c1 -29 7 -53 12 -53 7
0 10 22 8 57 l-3 57 -102 2 -103 2 0 -59z"/>
<path d="M3010 4690 c0 -6 48 -10 125 -10 77 0 125 4 125 10 0 6 -48 10 -125
10 -77 0 -125 -4 -125 -10z"/>
<path d="M3350 4570 l0 -50 35 0 35 0 0 50 0 50 -35 0 -35 0 0 -50z"/>
<path d="M3430 4570 l0 -48 69 -1 c65 -1 70 1 74 22 l4 22 2 -22 c0 -13 8 -23
16 -23 11 0 15 12 15 49 l0 49 -39 0 -40 1 -4 -47 -3 -47 -2 47 -2 46 -45 0
-45 0 0 -48z"/>
<path d="M3620 4570 c0 -27 5 -50 10 -50 6 0 10 23 10 50 0 28 -4 50 -10 50
-5 0 -10 -22 -10 -50z"/>
<path d="M3077 4604 c-17 -17 11 -24 94 -24 72 0 89 3 89 15 0 12 -16 15 -88
15 -49 0 -92 -3 -95 -6z"/>
<path d="M1944 4280 c-53 -17 -127 -73 -147 -112 -32 -64 -47 -138 -54 -265
-11 -216 25 -320 132 -376 41 -21 46 -22 261 -19 75 2 74 -2 74 178 0 128 -1
132 -22 138 -34 9 -151 7 -166 -2 -7 -5 -16 -26 -19 -47 -6 -37 -5 -38 18 -31
13 4 39 9 57 13 l32 6 0 -62 c0 -84 -19 -126 -63 -140 -28 -10 -42 -9 -69 2
-75 32 -107 102 -115 252 -12 224 62 415 160 415 46 0 61 -13 72 -66 5 -26 17
-51 26 -57 26 -17 65 0 79 34 19 44 -6 91 -62 120 -48 24 -145 34 -194 19z
m-129 -142 c-38 -93 -45 -365 -11 -472 8 -27 11 -45 6 -40 -15 16 -39 114 -46
187 -8 92 11 257 36 314 22 50 36 59 15 11z m334 -430 c0 -24 -4 -61 -8 -83
-8 -34 -9 -28 -10 43 -1 49 3 82 9 82 6 0 10 -19 9 -42z"/>
<path d="M2325 4273 c-56 -7 -62 -12 -38 -31 38 -29 43 -64 43 -280 0 -316 19
-385 115 -432 56 -27 158 -37 208 -21 55 19 117 69 134 109 11 27 15 72 15
177 -1 77 3 204 7 282 6 117 11 147 26 163 10 11 15 23 11 28 -9 8 -200 7
-215 -2 -5 -3 3 -19 19 -34 25 -26 29 -37 35 -123 4 -52 5 -173 3 -269 -4
-190 -11 -217 -64 -259 -48 -38 -119 -18 -151 42 -16 28 -18 63 -18 302 0 258
1 272 21 306 l22 37 -37 6 c-37 6 -85 6 -136 -1z m57 -400 c2 -158 0 -234 -6
-220 -6 12 -11 141 -12 287 -2 174 0 250 6 220 5 -25 10 -154 12 -287z m347
109 c-1 -114 -5 -218 -9 -232 -5 -14 -8 78 -9 213 -1 157 2 236 9 232 6 -4 10
-85 9 -213z"/>
<path d="M2980 4273 c-54 -5 -70 -17 -42 -32 35 -18 42 -74 41 -311 -1 -275
-7 -331 -39 -365 -13 -14 -21 -28 -17 -31 9 -9 192 -18 212 -10 14 5 13 10 -7
37 -23 30 -23 33 -23 337 0 301 0 308 22 338 l23 31 -38 7 c-37 6 -50 6 -132
-1z m45 -445 c-3 -103 -10 -198 -16 -210 -6 -16 -8 49 -4 206 3 126 6 266 6
310 l2 81 9 -100 c5 -55 6 -184 3 -287z"/>
<path d="M3952 4267 c-6 -7 -23 -67 -37 -132 -27 -128 -68 -281 -117 -435 -30
-95 -66 -150 -97 -150 -12 0 -12 -3 -3 -12 15 -15 200 -24 214 -10 7 7 6 17
-2 31 -8 17 -7 41 6 106 22 110 41 130 126 130 49 0 63 -4 77 -22 25 -30 55
-186 41 -212 -5 -11 -10 -24 -10 -30 0 -12 130 -15 192 -5 l38 7 -41 36 c-38
34 -43 45 -89 201 -26 91 -64 237 -85 325 -20 88 -42 166 -47 173 -14 17 -152
16 -166 -1z m-26 -277 c-55 -219 -103 -377 -118 -386 -8 -5 -9 -1 -4 12 6 16
153 560 157 582 1 4 3 -2 6 -13 2 -11 -16 -99 -41 -195z m145 43 c15 -76 28
-144 29 -150 0 -9 -19 -13 -65 -13 -37 0 -65 4 -65 10 0 6 14 74 30 152 17 77
30 143 30 146 0 3 3 2 6 -1 4 -3 19 -68 35 -144z m38 7 c12 -63 25 -124 28
-135 3 -11 2 -17 -2 -13 -7 7 -65 253 -64 278 0 38 17 -22 38 -130z m80 -342
c6 -26 11 -62 10 -80 0 -23 -7 -8 -19 47 -22 94 -23 102 -11 90 4 -6 13 -31
20 -57z"/>
<path d="M4505 4273 c-66 -6 -71 -10 -42 -37 14 -13 29 -40 33 -60 3 -20 4
-155 2 -299 -4 -265 -7 -284 -44 -322 -9 -9 -14 -19 -10 -22 8 -8 192 -17 211
-9 14 5 13 9 -5 34 -18 24 -23 49 -27 131 l-6 101 38 0 c48 0 124 -41 152 -83
22 -32 31 -69 52 -210 5 -38 18 -85 28 -104 35 -68 133 -95 187 -52 64 50 -2
128 -76 88 -11 -6 -22 -8 -25 -5 -4 3 -10 50 -14 104 -12 155 -39 226 -99 260
-16 9 -30 19 -30 22 0 3 16 15 35 27 78 51 116 184 80 278 -38 101 -96 138
-241 155 -88 10 -120 10 -199 3z m228 -57 c39 -16 82 -61 96 -99 6 -16 11 -57
11 -91 0 -49 -5 -71 -23 -97 -37 -54 -82 -79 -145 -79 l-55 0 5 175 c4 118 10
180 18 190 16 19 51 19 93 1z m-188 -553 c-4 -35 -10 -63 -13 -63 -9 0 -4 571
6 590 9 19 15 -444 7 -527z m311 495 c32 -61 27 -233 -7 -254 -4 -2 -3 9 3 26
16 47 6 202 -15 234 -10 14 -13 26 -7 26 5 0 17 -14 26 -32z"/>
<path d="M3210 4213 c0 -32 3 -69 7 -81 l6 -24 22 28 c20 25 29 28 107 32 l85
4 6 -148 c8 -169 -7 -404 -29 -445 -7 -15 -19 -29 -26 -32 -30 -10 8 -20 96
-25 125 -6 132 -3 104 44 -19 33 -21 54 -26 253 -3 120 -1 248 3 285 l7 68 86
-4 c78 -4 87 -7 107 -32 l22 -28 6 39 c4 21 7 57 7 81 l0 42 -295 0 -295 0 0
-57z m185 -14 c-22 -4 -60 -8 -85 -7 -41 0 -42 1 -15 8 17 4 55 8 85 8 55 0
55 0 15 -9z m295 2 c44 -8 44 -9 -20 -9 -36 0 -74 3 -85 8 -27 11 42 12 105 1z
m-202 -315 c-3 -235 -8 -306 -20 -285 -2 2 -2 129 0 282 2 188 6 277 14 277 7
0 9 -84 6 -274z"/>
<path d="M5200 4187 c0 -25 19 -38 189 -136 l161 -93 0 -104 c0 -86 3 -104 15
-104 12 0 15 20 15 118 l0 117 -182 105 c-213 123 -198 116 -198 97z"/>
<path d="M5220 4012 c0 -10 16 -27 38 -40 l37 -22 -42 0 c-24 0 -43 -4 -43
-10 0 -6 27 -10 61 -10 44 0 72 -6 100 -22 59 -33 51 -47 -28 -50 -38 -2 -68
-7 -68 -13 0 -5 30 -11 68 -13 l67 -3 0 -34 0 -35 -85 0 c-56 0 -85 -4 -85
-11 0 -8 11 -9 31 -5 17 3 65 6 105 6 l74 0 0 78 0 79 -108 61 c-59 34 -111
62 -115 62 -4 0 -7 -8 -7 -18z"/>
<path d="M1438 3996 c-15 -11 -18 -30 -18 -130 0 -96 3 -116 15 -116 12 0 15
18 15 105 0 85 3 107 15 111 18 7 20 44 3 44 -7 0 -21 -7 -30 -14z"/>
<path d="M785 3455 l0 -156 59 3 58 3 2 48 c2 56 -7 61 -20 10 -7 -29 -15 -39
-32 -41 l-23 -4 3 146 3 146 -25 0 -25 0 0 -155z"/>
<path d="M898 3597 c17 -20 52 -181 52 -237 0 -45 2 -50 23 -50 20 0 22 4 19
47 -3 51 31 218 50 240 8 10 5 13 -16 13 -14 0 -25 -3 -24 -7 4 -16 -14 -113
-22 -118 -4 -3 -14 24 -21 60 -12 62 -14 65 -42 65 -23 0 -27 -3 -19 -13z"/>
<path d="M1075 3461 c0 -149 0 -151 22 -151 19 0 22 6 25 48 l3 47 45 -75 c36
-61 50 -76 73 -78 15 -2 27 1 27 7 0 6 -7 11 -15 11 -8 0 -27 24 -41 53 -14
28 -33 59 -41 69 -13 14 -12 17 6 23 12 3 28 19 36 35 23 45 19 86 -13 121
-23 25 -38 33 -78 36 l-49 5 0 -151z m94 103 c12 -15 21 -41 21 -59 0 -35 -33
-85 -56 -85 -11 0 -14 18 -14 85 0 94 11 107 49 59z"/>
<path d="M1258 3460 c3 -140 4 -150 22 -150 18 0 19 10 22 150 l3 150 -25 0
-25 0 3 -150z"/>
<path d="M1387 3599 c-43 -25 -67 -125 -51 -208 15 -76 104 -111 141 -55 12
18 14 31 7 41 -13 22 -30 13 -26 -14 4 -33 -30 -48 -53 -23 -50 55 -33 250 21
250 13 0 14 -7 9 -39 -6 -39 4 -59 25 -46 8 5 8 11 0 20 -8 10 -7 21 4 44 9
16 16 32 16 36 0 9 -74 5 -93 -6z"/>
<path d="M1530 3590 c-31 -31 -25 -63 24 -120 53 -62 63 -93 41 -126 -8 -13
-19 -24 -24 -24 -18 0 -33 31 -27 55 5 21 3 25 -14 25 -18 0 -21 -5 -18 -37 6
-74 99 -82 129 -11 15 36 1 70 -55 136 -20 24 -36 50 -36 57 0 27 13 45 30 45
15 0 20 -9 22 -42 4 -60 21 -53 24 10 l2 52 -39 0 c-26 0 -46 -7 -59 -20z"/>
<path d="M5252 3594 c-37 -26 -56 -73 -56 -144 0 -103 53 -165 119 -140 29 11
43 54 25 75 -17 20 -28 11 -23 -18 3 -14 -2 -29 -12 -37 -14 -11 -19 -10 -38
9 -31 30 -37 159 -10 210 27 53 45 52 41 0 -2 -33 1 -44 11 -44 8 0 16 6 19
14 3 8 0 11 -7 7 -15 -10 -13 4 4 34 8 14 14 31 15 38 0 17 -61 15 -88 -4z"/>
<path d="M5378 3460 c2 -120 6 -150 17 -150 10 0 15 15 17 48 3 43 5 47 31 50
26 3 27 2 27 -47 0 -46 2 -51 23 -51 20 0 22 4 19 46 -3 32 1 50 13 64 9 10
14 24 10 30 -6 9 -10 9 -17 -1 -5 -9 -8 19 -6 74 3 87 3 87 -22 87 l-25 0 3
-89 3 -89 -31 -4 -31 -5 3 94 c3 87 2 93 -17 93 -19 0 -20 -6 -17 -150z"/>
<path d="M5585 3585 c-23 -23 -25 -31 -25 -130 0 -121 12 -145 74 -145 55 0
66 25 66 151 0 104 -1 108 -26 128 -35 27 -59 26 -89 -4z m75 -131 c0 -81 -3
-104 -16 -115 -14 -11 -18 -10 -31 6 -20 28 -15 221 7 235 29 18 40 -18 40
-126z"/>
<path d="M5728 3460 c3 -147 3 -150 25 -150 20 0 22 4 18 47 -4 60 10 51 59
-37 34 -60 64 -81 91 -64 9 5 6 10 -9 15 -12 4 -31 27 -43 51 -12 24 -30 53
-41 64 -19 21 -19 21 0 26 45 12 69 97 42 148 -14 26 -67 50 -112 50 l-33 0 3
-150z m82 120 c29 -15 45 -75 30 -111 -12 -29 -37 -49 -59 -49 -7 0 -11 32
-11 85 0 87 4 94 40 75z"/>
<path d="M5915 3460 l0 -150 50 0 c28 0 55 4 61 8 25 16 34 56 34 145 0 94 0
96 -31 121 -22 19 -42 26 -72 26 l-42 0 0 -150z m89 114 c23 -22 23 -200 0
-232 -8 -12 -22 -22 -30 -22 -11 0 -14 24 -14 135 0 110 3 135 14 135 8 0 22
-7 30 -16z"/>
<path d="M6107 3592 c-30 -33 -21 -73 28 -131 48 -56 60 -106 30 -131 -27 -22
-48 -4 -42 36 5 32 4 35 -16 32 -34 -5 -35 -50 -1 -77 35 -27 59 -27 89 4 42
41 32 86 -32 158 -26 30 -33 46 -31 70 2 24 8 32 23 32 17 0 20 -6 17 -36 -2
-26 1 -38 12 -42 18 -7 33 12 17 22 -7 5 -8 17 -1 41 6 19 10 36 10 37 0 2
-20 3 -43 3 -30 0 -49 -6 -60 -18z"/>
<path d="M2980 3328 c-59 -31 -77 -59 -96 -148 -22 -104 -16 -230 15 -292 60
-125 243 -130 311 -8 24 42 25 54 25 195 0 132 -2 155 -21 190 -41 78 -147
107 -234 63z m133 -49 c60 -81 60 -327 0 -407 -57 -76 -135 -23 -153 105 -9
67 4 200 26 252 34 81 87 102 127 50z m-182 -27 c-27 -51 -38 -269 -16 -337 6
-19 6 -19 -5 -1 -35 54 -13 356 26 356 2 0 0 -8 -5 -18z m255 -146 c3 -50 2
-109 -3 -131 -7 -31 -9 -14 -9 75 1 63 -2 133 -6 155 -6 32 -6 35 3 16 5 -14
12 -66 15 -115z"/>
<path d="M4206 3335 c-22 -7 -55 -29 -74 -48 -28 -28 -36 -45 -39 -84 -6 -58
18 -100 87 -150 140 -103 170 -144 170 -235 0 -107 -78 -182 -190 -183 -136 0
-241 93 -176 155 30 27 32 46 10 78 -10 14 -25 22 -44 22 -38 0 -62 -44 -62
-113 0 -71 38 -122 122 -165 63 -32 69 -33 160 -30 82 3 102 8 148 32 86 48
131 123 132 224 0 98 -40 156 -167 243 -40 27 -80 60 -89 74 -32 49 16 135 75
135 43 0 65 -36 59 -95 l-6 -45 33 0 c19 0 40 3 49 6 39 15 0 141 -51 167 -45
23 -104 28 -147 12z m154 -119 c0 -39 -6 -30 -13 19 -4 27 -3 35 3 25 5 -8 10
-28 10 -44z m-243 -58 c-3 -7 -5 -2 -5 12 0 14 2 19 5 13 2 -7 2 -19 0 -25z
m128 -123 c106 -68 146 -127 144 -209 0 -22 -4 -15 -13 27 -16 74 -37 101
-122 160 -77 53 -134 105 -134 121 0 6 10 -2 22 -17 11 -16 58 -53 103 -82z"/>
<path d="M2413 3333 l-23 -4 21 -28 c20 -27 21 -39 17 -239 -3 -185 -5 -212
-21 -230 -17 -19 -17 -20 5 -26 30 -8 123 -8 131 0 3 4 0 16 -8 28 -12 16 -15
56 -14 191 0 93 3 163 6 155 3 -8 39 -83 79 -167 76 -157 83 -176 62 -189 -18
-12 25 -22 95 -23 59 -1 72 10 45 38 -19 18 -18 442 0 464 28 34 -17 46 -111
31 -37 -7 -38 -7 -18 -25 26 -24 33 -78 29 -229 l-3 -125 -79 159 c-43 88 -79
171 -80 185 0 14 -5 29 -11 33 -10 8 -84 8 -122 1z m317 -369 c-9 -35 -9 -32
-5 25 3 35 6 118 7 185 l2 121 3 -146 c2 -80 -1 -163 -7 -185z m-262 121 c0
-66 -3 -145 -8 -175 -5 -36 -7 19 -7 160 -1 138 2 201 8 175 4 -22 8 -94 7
-160z"/>
<path d="M3290 3276 l0 -60 20 22 c17 18 32 22 82 22 l61 0 -5 -200 c-4 -190
-5 -201 -27 -223 l-22 -24 38 -7 c50 -8 118 -8 126 1 4 3 0 14 -9 24 -12 13
-16 52 -21 176 -3 87 -3 180 1 206 l7 47 56 0 c38 0 62 -5 75 -16 16 -15 18
-15 23 -1 4 8 5 32 3 52 l-3 37 -203 1 -202 2 0 -59z m128 7 c-15 -2 -42 -2
-60 0 -18 2 -6 4 27 4 33 0 48 -2 33 -4z m210 0 c-15 -2 -42 -2 -60 0 -18 2
-6 4 27 4 33 0 48 -2 33 -4z m-158 -404 l-11 -24 6 25 c2 14 6 106 7 205 l3
180 2 -181 c2 -111 -1 -190 -7 -205z"/>
<path d="M3758 3333 c-16 -4 -16 -7 4 -34 20 -27 22 -41 22 -169 0 -127 -2
-142 -21 -169 -12 -16 -19 -31 -16 -35 4 -3 71 -6 150 -6 l143 0 0 33 c0 17
-3 42 -6 55 -6 20 -9 21 -23 9 -21 -19 -87 -28 -117 -17 -20 8 -24 16 -24 54
0 57 14 68 65 50 22 -7 41 -14 43 -14 1 0 2 23 2 50 0 47 -11 63 -25 40 -3 -5
-24 -10 -46 -10 l-39 0 0 45 0 45 64 0 c44 0 67 -5 76 -15 22 -27 30 -16 30
40 l0 55 -132 -1 c-73 -1 -141 -3 -150 -6z m215 -50 c-18 -2 -48 -2 -65 0 -18
2 -4 4 32 4 36 0 50 -2 33 -4z m-162 -288 c-7 -32 -9 -15 -10 85 0 69 3 143 7
165 5 29 8 5 10 -85 1 -69 -2 -144 -7 -165z m162 -22 c-18 -2 -48 -2 -65 0
-18 2 -4 4 32 4 36 0 50 -2 33 -4z"/>
<path d="M1770 3190 c0 -6 73 -10 200 -10 127 0 200 4 200 10 0 6 -73 10 -200
10 -127 0 -200 -4 -200 -10z"/>
<path d="M4670 3190 c0 -5 25 -10 55 -10 30 0 55 5 55 10 0 6 -25 10 -55 10
-30 0 -55 -4 -55 -10z"/>
<path d="M1563 3163 c-10 -4 -13 -164 -13 -758 l0 -753 543 -313 c298 -172
718 -414 932 -538 215 -123 409 -235 432 -248 49 -28 24 -37 238 87 83 48 511
295 953 549 l802 463 0 760 c0 718 -1 759 -17 756 -15 -3 -18 -16 -21 -81 l-3
-77 -34 0 c-19 0 -35 -4 -35 -10 0 -5 16 -10 35 -10 l34 0 0 -80 0 -79 -82 -3
c-107 -4 -107 -22 1 -26 l82 -3 0 -34 0 -35 -305 0 c-197 0 -305 -4 -305 -10
0 -6 108 -10 305 -10 l305 0 0 -35 0 -35 -227 -2 c-144 -2 -228 -7 -228 -13 0
-6 84 -11 227 -13 l226 -2 0 -80 0 -80 -84 0 c-49 0 -84 -4 -84 -10 0 -6 35
-10 85 -10 l85 0 0 -35 0 -35 -192 -2 c-142 -2 -192 -6 -196 -15 -3 -10 40
-13 192 -13 l196 0 0 -35 0 -35 -70 0 c-40 0 -70 -4 -70 -10 0 -6 30 -10 70
-10 l70 0 0 -35 0 -34 -82 -3 c-47 -2 -83 -7 -83 -13 0 -6 36 -11 83 -13 l82
-3 0 -79 0 -80 -224 0 c-139 0 -227 -4 -231 -10 -4 -7 73 -10 224 -10 l231 0
0 -35 0 -35 -370 -2 c-238 -2 -370 -7 -370 -13 0 -6 132 -11 370 -13 l370 -2
0 -35 0 -35 -65 0 c-37 0 -65 -4 -65 -10 0 -6 28 -10 65 -10 l65 0 0 -50 0
-50 -52 -27 c-51 -27 -61 -28 -228 -33 -216 -6 -235 -23 -33 -30 l142 -5 -134
-77 -134 -78 -151 0 c-117 0 -151 -3 -148 -12 3 -9 39 -14 124 -16 l119 -3
-50 -29 -50 -30 -181 0 c-148 0 -184 -3 -194 -15 -10 -13 9 -15 151 -17 l164
-3 -57 -33 c-56 -31 -61 -32 -173 -32 -70 0 -115 -4 -115 -10 0 -6 39 -10 98
-10 l97 0 -55 -33 -55 -32 -200 -5 c-264 -7 -291 -23 -50 -30 l180 -5 -57 -32
-58 -33 -475 0 c-310 0 -475 -3 -475 -10 0 -7 159 -10 458 -10 l457 -1 -60
-34 -60 -35 -173 0 c-134 0 -173 -3 -170 -12 3 -9 45 -14 144 -18 l139 -5 -51
-28 c-50 -28 -55 -28 -219 -30 -124 -2 -169 -5 -172 -14 -4 -10 30 -13 144
-13 l148 -1 -60 -34 -60 -35 -197 0 c-122 0 -198 -4 -198 -10 0 -6 70 -11 176
-12 l175 -3 -134 -77 c-74 -43 -140 -78 -148 -78 -8 0 -36 14 -64 30 l-50 30
63 0 c48 0 62 3 62 15 0 12 -17 15 -92 15 -89 0 -96 2 -148 35 -42 26 -50 35
-32 35 12 0 22 5 22 10 0 6 -19 10 -41 10 -38 0 -101 29 -207 95 -10 6 -37 22
-62 35 l-45 25 364 5 c279 4 365 8 369 18 3 9 -80 12 -395 12 l-398 0 -60 35
-60 34 233 1 c148 0 232 4 232 10 0 6 -90 10 -250 10 l-250 0 -58 33 -57 32
175 5 c151 4 171 7 147 17 -19 9 -85 13 -204 13 l-176 0 -64 35 c-34 20 -63
40 -63 45 0 6 -7 10 -15 10 -8 0 -41 15 -73 33 l-57 32 164 5 c138 4 162 7
148 18 -12 10 -57 13 -190 11 l-175 -2 -188 108 c-104 60 -241 138 -304 174
l-115 66 308 3 c193 1 307 6 307 12 0 6 -111 10 -305 10 l-305 0 0 35 0 35
159 0 c96 0 162 4 166 10 4 7 -52 10 -159 10 l-166 0 0 35 0 35 373 2 c239 2
372 7 372 13 0 6 -132 11 -372 13 l-371 2 0 80 0 80 304 0 c264 0 304 2 304
15 0 13 -41 15 -305 15 l-305 0 0 80 0 80 159 0 c96 0 162 4 166 10 4 7 -52
10 -159 10 l-166 0 0 35 c0 33 2 35 35 35 24 0 35 5 35 15 0 10 -11 15 -35 15
l-35 0 0 80 0 80 226 0 c176 0 225 3 222 13 -4 9 -60 13 -225 15 l-221 2 -1
175 -1 175 225 0 c143 0 225 4 225 10 0 6 -82 10 -225 10 l-225 0 0 35 0 35
195 0 c123 0 195 4 195 10 0 6 -72 10 -195 10 l-195 0 0 35 0 34 83 3 c46 2
82 7 82 13 0 6 -36 11 -82 13 -80 3 -83 4 -83 27 0 26 -8 35 -27 28z"/>
<path d="M1083 3100 c0 -36 2 -55 4 -42 5 27 23 29 23 2 0 -30 18 -24 22 8 4
40 -3 92 -13 92 -5 0 -9 -16 -9 -35 0 -47 -18 -45 -23 3 -2 20 -4 8 -4 -28z"/>
<path d="M1151 3138 c0 -22 1 -22 9 -3 6 15 9 4 12 -40 l4 -60 2 59 c2 47 5
57 17 52 8 -3 15 -1 15 4 0 6 -13 10 -30 10 -25 0 -30 -4 -29 -22z"/>
<path d="M1221 3098 c2 -56 3 -58 8 -23 l6 40 9 -30 8 -30 12 30 11 30 6 -40
c5 -35 6 -33 8 23 0 34 -1 62 -4 62 -3 0 -11 -15 -18 -32 l-13 -33 -12 33 c-6
17 -13 32 -16 32 -4 0 -5 -28 -5 -62z"/>
<path d="M1312 3103 c-2 -57 0 -63 18 -63 13 0 20 6 19 18 0 10 -3 12 -6 5
-11 -29 -22 -10 -26 45 l-3 57 -2 -62z"/>
<path d="M5697 3153 c-12 -11 -8 -40 8 -53 17 -14 20 -50 5 -50 -5 0 -10 6
-10 14 0 18 -33 15 -41 -4 -5 -11 -9 -9 -18 8 -9 17 -10 31 -2 53 10 29 -2 42
-13 13 -19 -50 12 -112 42 -82 8 8 15 8 27 -2 13 -11 19 -11 32 3 16 16 15 19
-5 47 -13 17 -20 36 -16 42 5 8 10 5 15 -8 7 -17 8 -17 8 4 1 21 -18 30 -32
15z"/>
<path d="M5763 3153 c-18 -7 -16 -38 2 -53 16 -14 21 -50 6 -50 -5 0 -12 7
-14 15 -4 11 -4 10 -3 -2 2 -23 26 -23 40 -1 8 13 5 22 -13 42 -14 15 -20 29
-15 37 5 9 9 8 15 -7 7 -17 8 -17 8 4 1 22 -3 25 -26 15z"/>
<path d="M1997 3104 c-17 -17 -4 -25 36 -22 23 2 42 8 42 13 0 12 -67 19 -78
9z"/>
<path d="M4667 3103 c-19 -19 5 -23 132 -23 130 0 181 10 128 24 -30 8 -252 8
-260 -1z"/>
<path d="M5180 3095 c0 -13 9 -16 43 -13 23 2 42 8 42 13 0 6 -19 11 -42 13
-34 3 -43 0 -43 -13z"/>
<path d="M4670 3000 c0 -6 90 -10 250 -10 160 0 250 4 250 10 0 6 -90 10 -250
10 -160 0 -250 -4 -250 -10z"/>
<path d="M5548 2291 l-3 -693 -1023 -589 -1022 -590 -438 252 c-240 139 -606
350 -812 469 -206 119 -471 272 -587 339 l-213 123 0 679 c0 597 -2 679 -15
679 -13 0 -15 -84 -15 -693 l0 -693 1021 -589 c562 -325 1031 -594 1043 -599
18 -7 198 94 1059 590 l1037 598 0 686 c-1 585 -3 688 -15 704 -13 17 -15 -63
-17 -673z"/>
<path d="M4700 2910 c0 -6 95 -10 265 -10 170 0 265 4 265 10 0 6 -95 10 -265
10 -170 0 -265 -4 -265 -10z"/>
<path d="M1610 2815 c0 -13 22 -15 135 -15 113 0 135 2 135 15 0 13 -22 15
-135 15 -113 0 -135 -2 -135 -15z"/>
<path d="M2057 2824 c-13 -13 5 -24 39 -24 24 0 34 5 34 15 0 10 -10 15 -33
15 -19 0 -37 -3 -40 -6z"/>
<path d="M4710 2815 c0 -11 7 -15 23 -13 12 2 22 8 22 13 0 6 -10 11 -22 13
-16 2 -23 -2 -23 -13z"/>
<path d="M4800 2815 c0 -13 22 -15 135 -15 113 0 135 2 135 15 0 13 -22 15
-135 15 -113 0 -135 -2 -135 -15z"/>
<path d="M1610 2720 c0 -6 97 -10 270 -10 173 0 270 4 270 10 0 6 -97 10 -270
10 -173 0 -270 -4 -270 -10z"/>
<path d="M1770 2625 c0 -13 32 -15 226 -15 200 0 225 2 214 15 -10 12 -48 15
-226 15 -184 0 -214 -2 -214 -15z"/>
<path d="M4667 2634 c-18 -18 -2 -25 56 -22 35 2 61 7 60 13 -3 12 -105 19
-116 9z"/>
<path d="M3690 2531 c0 -54 4 -74 21 -95 18 -23 27 -26 86 -26 l65 0 -55 50
c-31 28 -67 71 -82 95 -14 25 -28 45 -30 45 -3 0 -5 -31 -5 -69z"/>
<path d="M3354 2475 c0 -55 1 -76 3 -47 2 29 2 74 0 100 -2 26 -3 2 -3 -53z"/>
<path d="M3643 2505 c0 -38 2 -53 4 -32 2 20 2 52 0 70 -2 17 -4 1 -4 -38z"/>
<path d="M2630 2508 c-140 -239 -202 -435 -202 -633 0 -331 174 -565 494 -663
309 -96 886 -91 1182 10 302 102 468 335 469 658 0 70 -6 143 -16 185 -28 127
-105 315 -127 315 -14 0 -13 -5 9 -48 34 -67 89 -236 101 -315 27 -162 -1
-345 -73 -482 -38 -72 -142 -177 -220 -224 -175 -103 -437 -147 -825 -138
-242 5 -355 20 -497 64 -292 91 -455 297 -472 595 -11 183 32 345 152 576 41
79 75 145 75 148 0 2 -4 4 -10 4 -5 0 -23 -24 -40 -52z"/>
<path d="M3413 2525 c0 -22 2 -30 4 -17 2 12 2 30 0 40 -3 9 -5 -1 -4 -23z"/>
<path d="M2223 2543 c-41 -16 5 -23 152 -23 140 0 165 2 165 15 0 13 -23 15
-152 14 -84 0 -159 -3 -165 -6z"/>
<path d="M4617 2543 c-4 -3 -7 -10 -7 -15 0 -4 140 -8 311 -8 244 0 310 3 307
13 -4 9 -75 13 -305 15 -164 1 -302 -1 -306 -5z"/>
<path d="M1735 2440 c-4 -6 12 -10 39 -10 25 0 46 5 46 10 0 6 -18 10 -39 10
-22 0 -43 -4 -46 -10z"/>
<path d="M2050 2440 c0 -6 63 -10 170 -10 107 0 170 4 170 10 0 6 -63 10 -170
10 -107 0 -170 -4 -170 -10z"/>
<path d="M2440 2440 c0 -5 11 -10 25 -10 14 0 25 5 25 10 0 6 -11 10 -25 10
-14 0 -25 -4 -25 -10z"/>
<path d="M4525 2440 c-4 -6 15 -10 49 -10 31 0 56 5 56 10 0 6 -22 10 -49 10
-28 0 -53 -4 -56 -10z"/>
<path d="M4925 2440 c-4 -6 12 -10 39 -10 25 0 46 5 46 10 0 6 -18 10 -39 10
-22 0 -43 -4 -46 -10z"/>
<path d="M3405 2372 c-2 -2 -78 -3 -169 -3 l-166 2 0 -74 0 -74 99 -6 c55 -4
134 -14 178 -22 100 -19 222 -19 313 0 39 8 116 18 171 21 l99 7 0 74 0 73
-137 0 c-76 0 -194 2 -261 3 -68 1 -125 1 -127 -1z m-32 -96 c7 -17 -18 -40
-33 -31 -5 3 -10 15 -10 26 0 23 35 27 43 5z m60 0 c7 -17 -18 -40 -33 -31 -5
3 -10 15 -10 26 0 23 35 27 43 5z m60 0 c7 -17 -18 -40 -33 -31 -5 3 -10 15
-10 26 0 23 35 27 43 5z m60 0 c7 -17 -18 -40 -33 -31 -5 3 -10 15 -10 26 0
23 35 27 43 5z m60 0 c7 -17 -18 -40 -33 -31 -5 3 -10 15 -10 26 0 23 35 27
43 5z m60 0 c7 -17 -18 -40 -33 -31 -5 3 -10 15 -10 26 0 23 35 27 43 5z"/>
<path d="M1832 2348 c4 -10 65 -14 251 -16 215 -2 247 0 247 13 0 13 -33 15
-251 15 -196 0 -250 -3 -247 -12z"/>
<path d="M4552 2348 c4 -10 45 -14 151 -16 126 -2 147 0 147 13 0 13 -22 15
-151 15 -116 0 -150 -3 -147 -12z"/>
<path d="M2090 2250 c0 -6 60 -10 160 -10 100 0 160 4 160 10 0 6 -60 10 -160
10 -100 0 -160 -4 -160 -10z"/>
<path d="M4595 2250 c4 -6 102 -10 261 -10 163 0 254 4 254 10 0 6 -94 10
-261 10 -171 0 -258 -3 -254 -10z"/>
<path d="M1613 2158 c3 -10 38 -13 132 -13 94 0 129 3 133 13 3 9 -28 12 -133
12 -105 0 -136 -3 -132 -12z"/>
<path d="M2055 2160 c-11 -18 17 -21 170 -18 108 2 149 6 153 16 5 15 -313 18
-323 2z"/>
<path d="M4622 2158 c5 -14 78 -23 115 -13 43 10 13 25 -53 25 -48 0 -65 -3
-62 -12z"/>
<path d="M4803 2158 c3 -10 38 -13 132 -13 94 0 129 3 133 13 3 9 -28 12 -133
12 -105 0 -136 -3 -132 -12z"/>
<path d="M4737 2074 c-20 -20 34 -24 329 -24 256 0 325 3 322 13 -4 9 -79 13
-325 15 -175 1 -322 -1 -326 -4z"/>
<path d="M1770 1970 c0 -6 102 -10 285 -10 183 0 285 4 285 10 0 6 -102 10
-285 10 -183 0 -285 -4 -285 -10z"/>
<path d="M4660 1970 c0 -6 28 -10 65 -10 37 0 65 4 65 10 0 6 -28 10 -65 10
-37 0 -65 -4 -65 -10z"/>
<path d="M4667 1793 c-20 -19 12 -23 212 -23 199 0 260 7 215 24 -21 8 -419 8
-427 -1z"/>
<path d="M2090 1780 c0 -6 48 -10 125 -10 77 0 125 4 125 10 0 6 -48 10 -125
10 -77 0 -125 -4 -125 -10z"/>
<path d="M4730 1690 c0 -6 117 -10 330 -10 213 0 330 4 330 10 0 6 -117 10
-330 10 -213 0 -330 -4 -330 -10z"/>
<path d="M1770 1595 c0 -13 41 -15 310 -15 271 0 309 2 304 15 -9 23 -614 23
-614 0z"/>
<path d="M4617 1604 c-18 -19 0 -24 84 -24 68 0 90 3 87 13 -5 13 -158 23
-171 11z"/>
<path d="M1990 1500 c0 -5 20 -10 45 -10 25 0 45 5 45 10 0 6 -20 10 -45 10
-25 0 -45 -4 -45 -10z"/>
<path d="M2370 1500 c0 -5 14 -10 31 -10 17 0 28 4 24 10 -3 6 -17 10 -31 10
-13 0 -24 -4 -24 -10z"/>
<path d="M4610 1500 c0 -6 61 -10 164 -10 99 0 167 4 171 10 4 7 -53 10 -164
10 -107 0 -171 -4 -171 -10z"/>
<path d="M2152 1408 c4 -10 46 -14 167 -16 129 -2 162 0 159 10 -4 10 -46 14
-167 16 -129 2 -162 0 -159 -10z"/>
<path d="M2440 1220 c0 -6 49 -10 126 -10 81 0 123 4 119 10 -4 6 -57 10 -126
10 -73 0 -119 -4 -119 -10z"/>
<path d="M3330 845 c0 -13 9 -16 43 -13 23 2 42 8 42 13 0 6 -19 11 -42 13
-34 3 -43 0 -43 -13z"/>
</g>
</svg>
